<?xml version="1.0" encoding="utf-8"?>
<!-- Generator: Adobe Illustrator 28.3.0, SVG Export Plug-In . SVG Version: 6.00 Build 0)  -->
<svg version="1.1" id="katman_1" xmlns="http://www.w3.org/2000/svg" xmlns:xlink="http://www.w3.org/1999/xlink" x="0px" y="0px"
	 viewBox="0 0 850.39 320.31" enable-background="new 0 0 850.39 320.31" xml:space="preserve">
<g opacity="0.97">
	<rect y="99.39" fill="none" width="850.39" height="73.99"/>
	<path fill="#F6F6F6" d="M64.39,135.85c0,6.34-1.55,12.41-4.66,18.23c-3.1,5.82-7.33,10.19-12.69,13.13
		c-5.68,3.14-13.72,4.7-24.11,4.7H6.17V99.39h16.46c13.46,0,23.39,2.81,29.79,8.43c3.79,3.33,6.73,7.51,8.82,12.54
		C63.34,125.39,64.39,130.55,64.39,135.85z M50.96,135.85c0-3.33-0.67-6.6-2.01-9.8c-1.34-3.2-3.25-5.88-5.73-8.04
		c-2.09-1.89-4.59-3.3-7.5-4.21c-2.91-0.91-5.41-1.45-7.5-1.62c-2.09-0.16-4.97-0.25-8.62-0.25v47.43h2.84
		c7.58,0,13.46-1.18,17.64-3.53c3.4-1.89,6.06-4.67,7.99-8.33C50,143.85,50.96,139.96,50.96,135.85z"/>
	<path fill="#F6F6F6" d="M125.44,171.91h-39V99.39h39v12.54H99.86v17.74h24.5v12.54h-24.5v17.15h25.58V171.91z"/>
	<path fill="#F6F6F6" d="M218.34,120.07h-15.29c-5.49-6.4-11.96-9.6-19.4-9.6c-6.53,0-12.1,2.53-16.71,7.59
		c-4.61,5.06-6.91,10.9-6.91,17.49c0,6.66,2.37,12.54,7.1,17.64c4.74,5.1,10.4,7.64,17,7.64c6.6,0,12.67-3.04,18.23-9.11h15.58
		c-2.74,6.53-7.24,11.78-13.47,15.73c-6.24,3.95-12.92,5.93-20.04,5.93c-10.39,0-19.29-3.74-26.71-11.22
		c-7.42-7.48-11.12-16.42-11.12-26.8c0-10.26,3.69-19.06,11.07-26.41c7.38-7.35,16.2-11.03,26.46-11.03
		c7.45,0,14.26,1.99,20.43,5.98C210.75,107.88,215.34,113.27,218.34,120.07z"/>
	<path fill="#F6F6F6" d="M310.66,135.85c0,10.39-3.71,19.24-11.12,26.56c-7.42,7.32-16.35,10.98-26.8,10.98
		c-10.45,0-19.39-3.66-26.8-10.98c-7.42-7.32-11.12-16.17-11.12-26.56c0-10.52,3.69-19.47,11.07-26.85
		c7.38-7.38,16.33-11.07,26.85-11.07c10.52,0,19.47,3.69,26.85,11.07C306.97,116.38,310.66,125.33,310.66,135.85z M297.23,135.75
		c0-6.92-2.37-12.87-7.1-17.84c-4.74-4.96-10.54-7.45-17.4-7.45c-6.86,0-12.66,2.48-17.4,7.45c-4.74,4.97-7.1,10.91-7.1,17.84
		c0,6.8,2.38,12.68,7.15,17.64c4.77,4.97,10.55,7.45,17.35,7.45c6.79,0,12.58-2.48,17.35-7.45
		C294.85,148.42,297.23,142.54,297.23,135.75z"/>
	<path fill="#F6F6F6" d="M407.78,171.91h-13.43v-54.39h-0.29l-18.52,54.39h-11.37l-18.62-54.39h-0.2v54.39h-13.43V99.39h18.62
		l19.31,54.88h0.2l19.11-54.88h18.62V171.91z"/>
	<path fill="#F6F6F6" d="M497.54,171.91h-14.8L475,153.19h-25.97l-7.74,18.72h-14.8l30.18-72.52h10.49L497.54,171.91z M470.2,140.55
		l-8.23-22.25h-0.2l-8.23,22.25H470.2z"/>
	<path fill="#F6F6F6" d="M555.17,171.91h-39V99.39h39v12.54h-25.58v17.74h24.5v12.54h-24.5v17.15h25.58V171.91z"/>
	<path fill="#F6F6F6" d="M621.32,150.25c0,6.8-2.22,12.35-6.66,16.66c-4.44,4.31-10.06,6.47-16.86,6.47
		c-6.47,0-11.96-2.11-16.46-6.32s-6.89-9.52-7.15-15.92h14.11c0.26,2.88,1.22,5.21,2.89,7.01c1.67,1.8,3.9,2.69,6.71,2.69
		c2.68,0,5.01-0.85,7.01-2.55c1.99-1.7,2.99-3.89,2.99-6.57c0-1.11-0.13-2.14-0.39-3.09c-0.26-0.95-0.7-1.8-1.32-2.55
		c-0.62-0.75-1.18-1.37-1.67-1.86c-0.49-0.49-1.27-1-2.35-1.52c-1.08-0.52-1.91-0.9-2.5-1.13c-0.59-0.23-1.55-0.59-2.89-1.08
		c-1.34-0.49-2.24-0.83-2.69-1.03c-3.33-1.31-5.52-2.22-6.57-2.74c-7.12-3.72-10.68-9.77-10.68-18.13c0-5.94,2.04-10.88,6.12-14.8
		c4.08-3.92,9.13-5.88,15.14-5.88c5.88,0,10.84,1.98,14.9,5.93c4.05,3.95,6.24,8.87,6.57,14.75h-13.72
		c-0.46-5.42-3.17-8.13-8.13-8.13c-2.16,0-3.94,0.69-5.34,2.06c-1.41,1.37-2.11,3.14-2.11,5.29c0,0.85,0.11,1.63,0.34,2.35
		c0.23,0.72,0.47,1.34,0.74,1.86c0.26,0.52,0.72,1.05,1.37,1.57c0.65,0.52,1.16,0.92,1.52,1.18c0.36,0.26,1.01,0.59,1.96,0.98
		c0.95,0.39,1.58,0.65,1.91,0.78c0.33,0.13,1.06,0.38,2.21,0.73c1.14,0.36,1.81,0.57,2.01,0.64c6.08,2.03,10.76,4.77,14.06,8.23
		C619.67,139.6,621.32,144.31,621.32,150.25z"/>
	<path fill="#F6F6F6" d="M676.78,111.93h-13.52v59.98h-13.43v-59.98h-13.43V99.39h40.38V111.93z"/>
	<path fill="#F6F6F6" d="M744.21,171.91h-16.27l-19.21-27.73h-0.2v27.73h-13.43V99.39h22.25c7.71,0,13.59,1.63,17.64,4.9
		c5.68,4.57,8.53,10.42,8.53,17.54c0,3.14-0.62,6.29-1.86,9.46c-1.24,3.17-2.94,5.8-5.1,7.89c-2.94,2.74-6.96,4.74-12.05,5.98
		L744.21,171.91z M730.09,122.91c0-3.53-1.24-6.24-3.72-8.13c-2.48-1.89-5.55-2.84-9.21-2.84h-8.62v22.15h8.62
		c3.79,0,6.89-0.95,9.31-2.84C728.88,129.35,730.09,126.57,730.09,122.91z"/>
	<path fill="#F6F6F6" d="M839.56,135.85c0,10.39-3.71,19.24-11.12,26.56c-7.42,7.32-16.35,10.98-26.8,10.98
		c-10.45,0-19.39-3.66-26.8-10.98c-7.42-7.32-11.12-16.17-11.12-26.56c0-10.52,3.69-19.47,11.07-26.85
		c7.38-7.38,16.33-11.07,26.85-11.07c10.52,0,19.47,3.69,26.85,11.07C835.87,116.38,839.56,125.33,839.56,135.85z M826.13,135.75
		c0-6.92-2.37-12.87-7.11-17.84c-4.74-4.96-10.54-7.45-17.39-7.45c-6.86,0-12.66,2.48-17.4,7.45c-4.74,4.97-7.1,10.91-7.1,17.84
		c0,6.8,2.38,12.68,7.15,17.64c4.77,4.97,10.55,7.45,17.35,7.45c6.79,0,12.58-2.48,17.35-7.45
		C823.75,148.42,826.13,142.54,826.13,135.75z"/>
</g>
<g opacity="0.97">
	<rect x="39.94" y="200.49" fill="none" width="770.51" height="58.73"/>
	<path fill="#F6F6F6" d="M98.37,213.36h-2.73c-0.73-1.04-1.64-2.11-2.73-3.2c-1.09-1.09-2.57-2.35-4.45-3.78
		c-1.87-1.43-4.16-2.59-6.86-3.47c-2.7-0.88-5.54-1.33-8.5-1.33c-7.7-0.05-14.22,2.57-19.58,7.88c-5.36,5.3-8.03,11.93-8.03,19.89
		c0,7.91,2.68,14.51,8.03,19.81c5.36,5.3,11.88,7.96,19.58,7.96c3.12,0,6.07-0.47,8.85-1.4c2.78-0.94,5.11-2.13,6.98-3.59
		c1.87-1.46,3.29-2.66,4.25-3.63c0.96-0.96,1.78-1.91,2.46-2.85h2.65c-2.18,3.69-5.53,6.88-10.02,9.55
		c-4.5,2.68-9.55,4.02-15.17,4.02c-8.37,0-15.46-2.83-21.25-8.5c-5.8-5.67-8.7-12.79-8.7-21.37s2.9-15.72,8.7-21.41
		c5.8-5.69,12.88-8.51,21.25-8.46c5.67,0,10.69,1.37,15.05,4.1C92.52,206.3,95.92,209.56,98.37,213.36z"/>
	<path fill="#F6F6F6" d="M152.81,218.66c0,1.92-0.33,3.85-0.98,5.77c-0.65,1.92-1.61,3.78-2.89,5.58c-1.27,1.79-3.06,3.28-5.34,4.45
		c-2.29,1.17-4.89,1.81-7.8,1.91l-2.26,0.08l15.52,21.76h-2.96l-16.93-23.87h3.59c3.02,0,5.46-0.23,7.33-0.7
		c1.87-0.47,3.69-1.46,5.46-2.96c3.28-3.43,4.91-7.54,4.91-12.32c0-2.6-0.61-5.13-1.83-7.6c-1.22-2.47-2.9-4.41-5.03-5.81
		c-1.61-1.04-3.43-1.69-5.46-1.95c-2.03-0.26-5.04-0.39-9.05-0.39h-10.84v55.61h-2.34v-57.72h13.18c7.28,0,12.4,0.81,15.37,2.42
		c2.34,1.25,4.3,3.29,5.89,6.12c1.59,2.83,2.4,5.92,2.46,9.24V218.66z"/>
	<path fill="#F6F6F6" d="M201.01,258.21h-31.67v-57.72h31.67v2.11h-29.33v25.51h29.33v2.11h-29.33v25.9h29.33V258.21z"/>
	<path fill="#F6F6F6" d="M268.48,258.21h-2.5l-8.66-20.12h-30.19l-8.66,20.12h-2.5l24.73-57.72h3.04L268.48,258.21z M256.31,235.98
		l-14.12-33.31l-14.04,33.31H256.31z"/>
	<path fill="#F6F6F6" d="M306.23,202.59h-15.68v55.61h-2.34v-55.61h-15.68v-2.11h33.7V202.59z"/>
	<path fill="#F6F6F6" d="M321.29,207.59h-2.18v-7.1h2.18V207.59z M321.29,258.21h-2.18v-41.34h2.18V258.21z"/>
	<path fill="#F6F6F6" d="M388.21,200.49l-24.65,57.72h-1.64l-24.57-57.72h2.65l22.78,53.82l22.85-53.82H388.21z"/>
	<path fill="#F6F6F6" d="M435.87,258.21H404.2v-57.72h31.67v2.11h-29.33v25.51h29.33v2.11h-29.33v25.9h29.33V258.21z"/>
	<path fill="#F6F6F6" d="M525.02,208.13c5.15,5.1,7.72,12.17,7.72,21.22c0,9.05-2.57,16.12-7.72,21.22
		c-5.15,5.1-12.27,7.64-21.37,7.64h-16.3v-57.72h16.3C512.75,200.49,519.87,203.04,525.02,208.13z M530.4,229.5
		c0-8.42-2.35-15.01-7.06-19.77c-4.71-4.76-11.27-7.14-19.7-7.14h-13.96v53.51h13.96c8.37,0,14.92-2.35,19.66-7.06
		C528.04,244.34,530.4,237.83,530.4,229.5z"/>
	<path fill="#F6F6F6" d="M583.13,258.21h-31.67v-57.72h31.67v2.11H553.8v25.51h29.33v2.11H553.8v25.9h29.33V258.21z"/>
	<path fill="#F6F6F6" d="M634.53,243.08c0,4.63-1.69,8.48-5.07,11.54c-3.38,3.07-7.28,4.6-11.7,4.6c-1.82,0-3.64-0.31-5.46-0.94
		c-1.82-0.62-3.55-1.53-5.19-2.73c-1.64-1.2-3-2.83-4.09-4.91c-1.09-2.08-1.74-4.42-1.95-7.02h2.34c0.31,2.6,1.03,4.85,2.15,6.75
		c1.12,1.9,2.42,3.3,3.9,4.21c1.48,0.91,2.9,1.56,4.25,1.95c1.35,0.39,2.68,0.58,3.98,0.58c3.79,0,7.16-1.3,10.1-3.9
		c2.94-2.6,4.41-5.88,4.41-9.83c0-2.03-0.36-3.83-1.09-5.42c-0.73-1.58-1.53-2.83-2.42-3.74c-0.88-0.91-2.13-1.75-3.74-2.53
		c-1.61-0.78-2.86-1.3-3.74-1.56c-0.88-0.26-2.13-0.6-3.74-1.01c-1.61-0.42-2.82-0.74-3.63-0.98c-0.81-0.23-2.05-0.75-3.74-1.56
		c-1.69-0.81-3-1.66-3.94-2.57c-0.94-0.91-1.79-2.18-2.57-3.82c-0.78-1.64-1.2-3.5-1.25-5.58v-0.23c0-4.52,1.52-8.12,4.56-10.8
		c3.04-2.68,6.75-4.02,11.11-4.02c3.69,0,6.96,1.13,9.79,3.39c2.83,2.26,4.54,5.6,5.11,10.02h-2.34
		c-1.4-7.54-5.64-11.31-12.71-11.31c-3.74,0-6.88,1.17-9.4,3.51c-2.52,2.34-3.78,5.36-3.78,9.05c0,1.77,0.3,3.34,0.9,4.72
		c0.6,1.38,1.31,2.48,2.14,3.32c0.83,0.83,2.04,1.63,3.63,2.38c1.59,0.75,2.95,1.31,4.1,1.68c1.14,0.37,2.73,0.81,4.76,1.33
		c4.21,1.04,7.38,2.45,9.52,4.21C632.92,234.6,634.53,238.35,634.53,243.08z"/>
	<path fill="#F6F6F6" d="M655.67,207.59h-2.18v-7.1h2.18V207.59z M655.67,258.21h-2.18v-41.34h2.18V258.21z"/>
	<path fill="#F6F6F6" d="M722.75,258.21h-2.96l-40.09-55.38h-0.16v55.38h-2.34v-57.72h3.51l39.55,54.6h0.16v-54.6h2.34V258.21z"/>
	<path fill="#F6F6F6" d="M802.08,233.79c-0.83,7.07-4.17,13.08-10.02,18.02c-5.85,4.94-12.75,7.41-20.71,7.41
		c-8.37,0-15.46-2.83-21.26-8.5c-5.8-5.67-8.7-12.79-8.7-21.37s2.9-15.7,8.7-21.37c5.8-5.67,12.88-8.5,21.26-8.5
		c5.35,0,10.41,1.24,15.17,3.71c4.76,2.47,8.44,5.84,11.04,10.1h-2.81c-5.93-7.8-13.73-11.7-23.4-11.7c-7.7,0-14.22,2.65-19.58,7.96
		c-5.36,5.3-8.03,11.91-8.03,19.81c0,7.91,2.68,14.51,8.03,19.81c5.35,5.3,11.88,7.96,19.58,7.96c7.02,0,13.16-2.12,18.41-6.36
		c5.25-4.24,8.42-9.19,9.52-14.86h-34.4v-2.11H802.08z"/>
</g>
<g>
</g>
<g>
</g>
<g>
</g>
<g>
</g>
<g>
</g>
<g>
</g>
</svg>
