<?xml version="1.0" encoding="utf-8"?>
<!-- Generator: Adobe Illustrator 28.3.0, SVG Export Plug-In . SVG Version: 6.00 Build 0)  -->
<svg version="1.1" id="katman_1" xmlns="http://www.w3.org/2000/svg" xmlns:xlink="http://www.w3.org/1999/xlink" x="0px" y="0px"
	 viewBox="0 0 4354.02 1417.32" style="enable-background:new 0 0 4354.02 1417.32;" xml:space="preserve">
<style type="text/css">
	.st0{fill:#20303A;}
	.st1{fill:#4B7484;}
	.st2{fill:#FFFFFF;}
	.st3{fill:#314A56;}
	.st4{fill:#2D4E9D;}
	.st5{clip-path:url(#SVGID_00000002353110894546365110000017396266047261560986_);}
	.st6{fill:#F6F6F6;}
	.st7{fill:url(#SVGID_00000131335171520729779030000011974751932788545409_);}
	.st8{fill:#253E4A;}
	.st9{fill:#293F4C;}
	.st10{fill:#172D3A;}
	.st11{fill:#23393E;}
	.st12{fill:#35585E;}
	.st13{fill:#212F3B;}
	.st14{clip-path:url(#SVGID_00000106852830842066624350000015575593240690745266_);}
	.st15{fill:#9EC1CC;}
</style>
<g>
	<g>
		<path class="st0" d="M2528.31,2647.41h1840.51c1.81,0,3.28-1.47,3.28-3.28s-1.47-3.28-3.28-3.28H2528.31
			c-1.81,0-3.28,1.47-3.28,3.28S2526.5,2647.41,2528.31,2647.41z"/>
	</g>
	<g>
		<path class="st1" d="M3569.59,2250.97c70.68,33.27,193.6,6.42,247.14-29.62c40.39-27.19,52.08-81.95,53.67-127.15
			c3.75-106.71-37.59-209.57-66.44-310.43c-17.65-61.71-81.36-117.11-141.6-136.29c-46.08-14.67-98.54-4.95-138.12,22.83
			c-39.58,27.78-66.17,72.44-74.81,120.01c-15.95,87.8,5.34,194.68,34.37,277.8C3503.87,2125.57,3505.16,2220.64,3569.59,2250.97z"
			/>
	</g>
	<g>
		<path class="st2" d="M3430.1,2147.11l-385.42,434.26c0,0,170.33-1.09,258.51,0l186.88-253.19L3430.1,2147.11z"/>
	</g>
	<g>
		<path class="st0" d="M3431.43,2140.68l62.29,188.08l-187.89,254.56l-1,1.35l-1.68-0.02c-87.14-1.08-256.74-0.01-258.44,0
			l-7.36,0.05L3431.43,2140.68z M3428.78,2153.54l-376.76,424.51c33.4-0.19,172.38-0.9,249.53,0.02l184.88-250.48L3428.78,2153.54z"
			/>
	</g>
	<g>
		<g>
			<path class="st3" d="M4115.17,1904.72h70.73c7.11,0,12.87-5.76,12.87-12.87v-70.73c0-7.11-5.76-12.87-12.87-12.87h-70.73
				c-7.11,0-12.87,5.76-12.87,12.87v70.73C4102.31,1898.96,4108.07,1904.72,4115.17,1904.72z"/>
		</g>
	</g>
	<g>
		<path class="st2" d="M3746.98,2101.13l-73.62-6.36l-180,18.85c-42.54,4.45-76.99,36.55-84.44,78.68l-25.17,142.4
			c-5.25,29.68,4.74,60.02,26.59,80.78l17.75,16.86l3.96,210.98h509.36l-54.87-426.79
			C3868.56,2152.79,3812.98,2106.83,3746.98,2101.13z"/>
	</g>
	<g>
		<polygon class="st0" points="3927.69,2536.54 3941.41,2643.32 3583.77,2643.32 		"/>
	</g>
	<g>
		<path class="st0" d="M3428.84,2646.6h516.3l-55.44-430.96c-18.25-64.67-75.49-112-142.44-117.78l-73.93-6.38l-0.31,0.03
			l-180,18.85c-25.58,2.68-48.81,14.97-65.42,34.63l-20.46,23.05c-1.2,1.35-1.08,3.43,0.28,4.63c1.36,1.2,3.43,1.08,4.63-0.28
			l20.51-23.11c15.57-18.41,37.27-29.9,61.15-32.4l179.69-18.82l73.31,6.33c64.17,5.54,119.04,50.85,136.62,112.8l54.36,422.85
			h-502.42l-3.89-207.76c-0.04-1.81-1.55-3.29-3.34-3.22c-1.81,0.03-3.25,1.53-3.22,3.34L3428.84,2646.6z"/>
	</g>
	<g>
		<path class="st2" d="M3673.36,2094.78l85.23,7.36c65.32,5.64,125.4,38.24,165.48,90.14c63.14,81.76,148.79,208.41,155.31,301.09
			c7.26,103.17-244.23,121.53-335.4,131.24c-23.37,2.49-45.67-10.99-53.93-32.99c-7.74-20.62-12.67-50.81-4.84-92.32
			c3.61-19.14,18.19-34.36,37.17-38.73l105.28-24.26c0,0-105.49-108.13-106.81-159.55
			C3719.52,2225.32,3673.36,2094.78,3673.36,2094.78z"/>
	</g>
	<g>
		<path class="st0" d="M3738.4,2628.18c1.96,0,3.94-0.1,5.92-0.31c5.82-0.62,12.3-1.28,19.32-1.99
			c105.83-10.71,326.03-33,319-132.75c-6.46-91.74-88.39-215.33-155.99-302.86c-40.44-52.37-101.6-85.68-167.79-91.4l-85.22-7.36
			c-1.78-0.13-3.39,1.18-3.55,2.98c-0.16,1.8,1.18,3.39,2.98,3.55l85.22,7.36c64.37,5.56,123.84,37.95,163.16,88.87
			c67.04,86.81,148.29,209.21,154.64,299.31c2.8,39.81-35.72,71.28-114.51,93.55c-66.72,18.86-146.1,26.9-198.62,32.21
			c-7.03,0.71-13.52,1.37-19.36,1.99c-22.01,2.35-42.8-10.35-50.51-30.88c-9.62-25.6-11.2-56.07-4.69-90.56
			c3.37-17.88,16.99-32.07,34.68-36.15l105.28-24.26c1.76-0.41,2.86-2.17,2.46-3.93c-0.41-1.76-2.17-2.86-3.93-2.46l-105.28,24.26
			c-20.23,4.66-35.8,20.88-39.65,41.32c-6.73,35.68-5.05,67.34,5,94.08C3695.04,2614.24,3715.67,2628.17,3738.4,2628.18z"/>
	</g>
	<g>
		<g>
			<path class="st0" d="M3368.71,2646.88h290.86c24.46,0,44.29-19.83,44.29-44.29l0,0h-335.15V2646.88z"/>
		</g>
		<g>
			<path class="st0" d="M3017.41,2646.88h495.41l-102.97-272.68c-9.36-24.77-33.07-41.17-59.55-41.17h-401.48
				c-24.13,0-40.81,24.13-32.29,46.71L3017.41,2646.88z"/>
		</g>
		<g>
			<path class="st3" d="M3180.34,2500.85c3.01,15.52,18.03,25.66,33.55,22.64c15.52-3.01,25.66-18.03,22.64-33.55
				c-3.01-15.52-18.03-25.66-33.55-22.64C3187.47,2470.31,3177.33,2485.33,3180.34,2500.85z"/>
		</g>
	</g>
	<g>
		<path class="st2" d="M3720.45,2502.76l-99.22,5.35l-110.07,58.14c-5.53,2.92-7.75,9.71-5.01,15.34l0,0
			c2.68,5.48,9.15,7.96,14.8,5.65l71.68-29.2c1.22-0.5,2.11,1.18,1.02,1.92l-74.24,50.14c-5.2,3.51-6.51,10.61-2.9,15.75l0,0
			c3.39,4.82,9.92,6.2,14.96,3.16l83.75-50.41c0.84-0.5,1.69,0.63,0.96,1.29l-32.56,29.76c-7.33,6.7-4.08,18.88,5.62,21.03l0,0
			c3.07,0.68,6.28,0.16,8.97-1.45l34.14-20.47l90.08,0.66c29.58,0.17,53.66-23.76,53.66-53.35v0
			C3776.09,2525.7,3750.78,2501.46,3720.45,2502.76z"/>
	</g>
	<g>
		<path class="st0" d="M3588.54,2633.88c-5.68-1.26-10.15-5.54-11.65-11.16c-1.5-5.62,0.23-11.56,4.53-15.48l14.29-13.06
			l-62.54,37.65c-6.48,3.9-14.98,2.11-19.34-4.09c-2.25-3.21-3.11-7.1-2.39-10.96c0.71-3.86,2.89-7.19,6.14-9.39l56.81-38.37
			l-52.2,21.27c-7.22,2.94-15.56-0.24-18.98-7.25c-3.54-7.26-0.72-15.9,6.42-19.67l110.7-58.48l99.93-5.38l0.04,0
			c15.55-0.67,30.35,4.9,41.61,15.68c11.26,10.78,17.46,25.31,17.46,40.89c0,15.19-5.93,29.45-16.7,40.16
			c-10.77,10.71-25.11,16.64-40.26,16.47l-89.16-0.65l-33.35,20c-2.44,1.46-5.19,2.22-7.98,2.22
			C3590.8,2634.25,3589.66,2634.13,3588.54,2633.88z M3722.46,2606.13c0.1,0,0.2,0,0.29,0c13.32,0,25.85-5.17,35.3-14.56
			c9.52-9.47,14.77-22.08,14.77-35.51c0-13.78-5.48-26.62-15.43-36.16c-9.95-9.53-23.06-14.47-36.78-13.87l-98.48,5.3l-109.43,57.81
			c-3.99,2.11-5.57,6.94-3.59,11c1.92,3.92,6.59,5.7,10.61,4.06l71.68-29.2c2.12-0.86,4.43-0.02,5.5,1.99
			c1.07,2.01,0.48,4.4-1.41,5.68l-74.24,50.14c-1.78,1.2-2.98,3.03-3.37,5.14c-0.39,2.11,0.08,4.24,1.31,6
			c2.38,3.39,7.04,4.38,10.59,2.24l83.75-50.41c1.81-1.09,4.13-0.63,5.39,1.06c1.26,1.69,1.04,4.04-0.52,5.46l-32.56,29.76
			c-2.52,2.31-3.5,5.65-2.62,8.96c0.88,3.3,3.4,5.71,6.73,6.46c2.25,0.5,4.59,0.12,6.57-1.07l34.93-20.94L3722.46,2606.13z"/>
	</g>
	<g>
		<path class="st2" d="M3681.46,1951.82l25.93,131.18c1.76,8.9,9.12,15.61,18.14,16.54l50.56,5.23c2.45,0.25,3.47,3.27,1.67,4.96
			l-167.05,136.55l-78.88-129.38c-2.24-3.12-0.27-7.49,3.55-7.88l28.29-2.83c7.74-0.77,13.64-7.29,13.64-15.07v-132.92
			L3681.46,1951.82z"/>
	</g>
	<g>
		<path class="st0" d="M3529.1,2118.7c-1.67-2.41-1.95-5.43-0.74-8.11c1.23-2.72,3.74-4.53,6.71-4.83l28.29-2.83
			c6.09-0.61,10.69-5.69,10.69-11.81v-136l110.07-6.75l26.49,133.99c1.49,7.53,7.62,13.13,15.26,13.92l50.56,5.23
			c2.43,0.25,4.42,1.84,5.2,4.16c0.78,2.31,0.16,4.79-1.62,6.46l-170.13,139.08L3529.1,2118.7z M3725.19,2102.8
			c-10.52-1.09-18.97-8.79-21.02-19.17l-25.37-128.36l-98.2,6.02v129.83c0,9.51-7.13,17.39-16.59,18.33l-28.29,2.83
			c-0.89,0.09-1.27,0.73-1.39,1c-0.12,0.27-0.35,0.98,0.17,1.7l77.05,126.37l163.23-133.43L3725.19,2102.8z"/>
	</g>
	<g>
		<path class="st2" d="M3688.02,1873.65c1.87,19.33,19.06,33.49,38.4,31.62c19.33-1.87,33.49-19.06,31.62-38.4
			c-1.87-19.34-19.06-33.49-38.4-31.62C3700.3,1837.12,3686.15,1854.31,3688.02,1873.65z"/>
	</g>
	<g>
		<path class="st4" d="M3684.75,1873.96L3684.75,1873.96c-2.04-21.1,13.46-39.93,34.57-41.98c21.11-2.05,39.94,13.46,41.98,34.57
			c2.04,21.1-13.46,39.93-34.57,41.98c-1.25,0.12-2.5,0.18-3.74,0.18C3703.45,1908.71,3686.68,1893.81,3684.75,1873.96z
			 M3719.95,1838.51c-17.51,1.69-30.37,17.31-28.67,34.82l0,0c1.7,17.5,17.34,30.37,34.82,28.67c17.5-1.7,30.37-17.31,28.67-34.82
			c-1.6-16.47-15.51-28.82-31.72-28.82C3722.03,1838.36,3720.99,1838.41,3719.95,1838.51z"/>
	</g>
	<g>
		<path class="st2" d="M3713.19,1782.67c0,0,57.43,227.58-105.13,257.17c-162.56,29.59-124.35-274.96-124.35-274.96
			S3584.67,1623.53,3713.19,1782.67z"/>
	</g>
	<g>
		<path class="st0" d="M3586.79,2045.13c6.99,0,14.27-0.69,21.86-2.07c66.49-12.1,106.48-59.58,115.63-137.3
			c0.21-1.8-1.07-3.43-2.87-3.64c-1.8-0.21-3.43,1.07-3.64,2.87c-8.91,75.63-46.02,119.92-110.29,131.62
			c-30.81,5.6-56.3-0.89-75.77-19.32c-67.45-63.82-44.97-250.13-44.73-252c0.23-1.8-1.05-3.44-2.84-3.66
			c-1.8-0.22-3.44,1.05-3.66,2.84c-0.98,7.79-23.13,191.48,46.73,257.58C3543.42,2037.41,3563.41,2045.13,3586.79,2045.13z"/>
	</g>
	<g>
		<path class="st0" d="M3555.11,1960.78c-1.32-1.03-2.07-2.64-2-4.25l0.66-27.8c0.04-1.78,1.5-3.2,3.28-3.2c0.03,0,0.05,0,0.08,0
			c1.81,0.04,3.24,1.54,3.2,3.35l-0.61,25.92l13.86-4.22c1.72-0.53,3.56,0.45,4.09,2.18c0.53,1.73-0.45,3.56-2.18,4.09l-15.69,4.77
			c-0.49,0.15-1,0.22-1.5,0.22C3557.14,1961.86,3556.02,1961.49,3555.11,1960.78z M3559.66,1956.75c0-0.02,0-0.03,0-0.05V1956.75z"
			/>
	</g>
	<g>
		<path class="st0" d="M3496.23,1859.94c0.56,0,1.12-0.14,1.64-0.44c15.65-9.07,29.6-0.44,30.19-0.07c1.53,0.97,3.55,0.52,4.52-1
			c0.97-1.52,0.54-3.54-0.98-4.52c-0.72-0.46-17.83-11.2-37.01-0.08c-1.57,0.91-2.1,2.91-1.19,4.48
			C3494,1859.36,3495.1,1859.94,3496.23,1859.94z"/>
	</g>
	<g>
		<path class="st0" d="M3639.25,1859.76c1.03,0,2.05-0.49,2.68-1.39c1.04-1.48,0.68-3.53-0.8-4.57c-0.7-0.49-17.37-11.9-36.98-1.57
			c-1.6,0.85-2.22,2.83-1.37,4.43c0.84,1.6,2.83,2.21,4.43,1.37c16.12-8.49,30.02,1.04,30.16,1.13
			C3637.95,1859.57,3638.6,1859.76,3639.25,1859.76z"/>
	</g>
	<g>
		<path class="st0" d="M3505.79,1885.46c0,4.7,3.18,8.5,7.11,8.5c3.93,0,7.11-3.81,7.11-8.5c0-4.7-3.18-8.5-7.11-8.5
			C3508.98,1876.96,3505.79,1880.77,3505.79,1885.46z"/>
	</g>
	<g>
		<path class="st0" d="M3608.74,1887.56c0,4.7,3.18,8.5,7.11,8.5c3.93,0,7.11-3.81,7.11-8.5c0-4.7-3.18-8.5-7.11-8.5
			C3611.93,1879.05,3608.74,1882.86,3608.74,1887.56z"/>
	</g>
	<g>
		<path class="st0" d="M3576.41,1991.99c0.05,0,0.1,0,0.15,0c9.1-0.42,16.02-3.28,20.57-8.48c6.18-7.08,5.48-15.84,5.45-16.21
			c-0.16-1.8-1.77-3.13-3.56-2.97c-1.8,0.16-3.13,1.74-2.98,3.54c0.01,0.17,0.41,6.5-3.91,11.39c-3.33,3.77-8.67,5.85-15.88,6.19
			c-1.81,0.08-3.21,1.62-3.12,3.43C3573.22,1990.62,3574.67,1991.99,3576.41,1991.99z"/>
	</g>
	<g>
		<path class="st0" d="M3803.8,2419.05c0.83,0,1.65-0.31,2.29-0.93c1.3-1.26,1.32-3.34,0.06-4.64c-11.08-11.35-0.4-23.12,0.06-23.61
			c1.23-1.33,1.16-3.4-0.17-4.63c-1.32-1.23-3.4-1.15-4.63,0.17c-5.37,5.78-12.26,20.04,0.06,32.65
			C3802.09,2418.72,3802.95,2419.05,3803.8,2419.05z"/>
	</g>
	<g>
		<g id="XMLID_68_">
			<path class="st1" d="M4109.56,2642.98h-95.52c-12.84,0-23.25-10.41-23.25-23.25v-123.47c0-3.06,2.48-5.55,5.55-5.55h130.92
				c3.06,0,5.55,2.48,5.55,5.55v123.47C4132.81,2632.57,4122.4,2642.98,4109.56,2642.98z"/>
		</g>
		<g id="XMLID_67_">
			<path class="st0" d="M3987.52,2611.88v-124.46h148.57v124.46c0,18.98-15.39,34.37-34.37,34.37h-79.83
				C4002.9,2646.26,3987.52,2630.87,3987.52,2611.88z M4129.53,2493.98h-135.46v117.9c0,15.36,12.45,27.82,27.82,27.82h79.83
				c15.36,0,27.82-12.45,27.82-27.82V2493.98z"/>
		</g>
		<g>
			<path class="st0" d="M4132.81,2570.12h14.95c13.11,0,23.78-10.67,23.78-23.78v-3.61c0-13.11-10.67-23.78-23.78-23.78h-14.95
				c-1.81,0-3.28,1.47-3.28,3.28c0,1.81,1.47,3.28,3.28,3.28h14.95c9.5,0,17.23,7.73,17.23,17.23v3.61c0,9.5-7.73,17.23-17.23,17.23
				h-14.95c-1.81,0-3.28,1.47-3.28,3.28C4129.53,2568.65,4131,2570.12,4132.81,2570.12z"/>
		</g>
		<g>
			<path class="st0" d="M4006.8,2581.37c0,2.86,3.67,4.87,6.56,1.57v-71.5c-2.89-3.29-6.56-1.29-6.56,1.57V2581.37z"/>
		</g>
	</g>
	<g id="XMLID_2_">
		<g id="XMLID_18_">
			<path class="st2" d="M2838.82,2643.32h-95.52c-12.84,0-23.25-10.41-23.25-23.25V2496.6c0-3.06,2.48-5.55,5.55-5.55h130.92
				c3.06,0,5.55,2.48,5.55,5.55v123.47C2862.07,2632.91,2851.67,2643.32,2838.82,2643.32z"/>
		</g>
		<g id="XMLID_17_">
			<path class="st0" d="M2716.78,2592.51v-89.33c0-8.49,6.91-15.4,15.41-15.4h117.77c8.49,0,15.4,6.91,15.4,15.4v89.33
				c0,29.83-24.27,54.09-54.09,54.09h-40.39C2741.04,2646.6,2716.78,2622.34,2716.78,2592.51z M2732.18,2494.33
				c-4.88,0-8.85,3.97-8.85,8.85v89.33c0,26.21,21.33,47.54,47.54,47.54h40.39c26.21,0,47.54-21.33,47.54-47.54v-89.33
				c0-4.88-3.97-8.85-8.85-8.85H2732.18z"/>
		</g>
		<g id="XMLID_7_">
			<path class="st1" d="M2812.25,2395.49c-3.73-18.41-17.38-33.74-33.73-42.98c-16.35-9.24-35.23-13.05-53.92-14.89
				c3.89,13.98-3.78,28.18-8.45,41.92c-5.35,15.74-6.78,33.28-1.18,48.94c3.21,8.98,8.92,17.14,16.39,23.1
				c7.59,6.05,16.32,7.43,25.26,10.51c4.62,1.59,8.9,4.52,13.78,4.73c7.09,0.3,13.1-5.23,16.98-11.18c3.22-4.93,5.6-10.41,9.32-15
				c3.51-4.34,7.6-7.62,10.41-12.62C2812.6,2418.28,2814.47,2406.45,2812.25,2395.49z"/>
		</g>
		<g id="XMLID_6_">
			<path class="st1" d="M2906.64,2413.8c-1.74-14.78-6.91-28.92-9.98-43.48c-3.17-15.03-4.09-30.53-2.72-45.83
				c-17.04,19.86-47.79,19.99-69.79,34.18c-12.91,8.33-22.1,21.49-26.98,35.93c-5.44,16.1-5.81,32.74,0.81,48.46
				c0.29,0.7,0.59,1.39,0.89,2.09c2,4.64,4,9.28,6,13.92c0.99,2.29,2.25,4.83,4.63,5.56c1.07,0.33,2.21,0.23,3.32,0.2
				c8-0.2,15.44,3.26,23.2,4.65c6.98,1.26,14.97,1.18,22.07,1.01c13.83-0.35,28.5-4.02,38.07-14.67
				C2906.13,2444.75,2908.37,2428.58,2906.64,2413.8z"/>
		</g>
		<g id="XMLID_5_">
			<path class="st0" d="M2774.62,2494.33c0.06,0,0.11,0,0.17,0c1.81-0.09,3.2-1.64,3.1-3.44c-2.34-44.98-7.94-91.85-32.79-129.89
				c-0.99-1.52-3.03-1.94-4.54-0.95c-1.52,0.99-1.94,3.02-0.95,4.54c24.01,36.75,29.44,82.59,31.73,126.65
				C2771.44,2492.97,2772.88,2494.33,2774.62,2494.33z"/>
		</g>
		<g id="XMLID_4_">
			<path class="st0" d="M2803.98,2494.33c1.5,0,2.86-1.04,3.2-2.57c9.69-43.87,32.73-85.31,64.89-116.68
				c1.3-1.26,1.32-3.34,0.06-4.64c-1.27-1.3-3.34-1.32-4.64-0.06c-33.06,32.26-56.76,74.86-66.71,119.96
				c-0.39,1.77,0.73,3.52,2.49,3.91C2803.51,2494.31,2803.75,2494.33,2803.98,2494.33z"/>
		</g>
	</g>
	<g>
		<path class="st0" d="M3567.75,1878.81c0-30.08,24.47-54.55,54.55-54.55c30.08,0,54.55,24.47,54.55,54.55
			c0,30.08-24.47,54.55-54.55,54.55C3592.22,1933.36,3567.75,1908.89,3567.75,1878.81z M3574.31,1878.81
			c0,26.46,21.53,47.99,47.99,47.99s47.99-21.53,47.99-47.99s-21.53-47.99-47.99-47.99S3574.31,1852.35,3574.31,1878.81z"/>
	</g>
	<g>
		<path class="st0" d="M3667.08,1857.13c0.29,0,0.58-0.04,0.88-0.12l67.67-18.77c1.74-0.48,2.77-2.29,2.28-4.03
			c-0.48-1.74-2.28-2.77-4.04-2.28l-67.67,18.77c-1.74,0.48-2.77,2.29-2.28,4.03C3664.32,1856.18,3665.64,1857.13,3667.08,1857.13z"
			/>
	</g>
	<g>
		<path class="st1" d="M3550.01,1749.84c-13.7,49.29-55.14,89.77-104.6,102.18c-3.51-39.01,5.26-78.6,21.92-114.03
			c8.01-17.04,18.06-33.5,32.29-45.79c23.05-19.9,54.82-26.82,85.22-26.63c43.68,0.27,87.19,14.04,123.12,38.99
			c30.58,21.24,51.78,49.16,66.92,82.89c2.29,5.11,6.32,9.08,9.01,13.95c2.94,5.31,3.45,11.35,2.39,17.27
			c-1.3,7.29-4.43,13.98-11.96,16.07c-7.5,2.08-15.96,1.42-23.67,2.43c-10.15,1.33-20.34,1.98-30.58,1.81
			c-40.97-0.67-81.69-13.51-115.85-36.19C3583.06,1788.74,3564.41,1770.83,3550.01,1749.84z"/>
	</g>
	<g>
		<path class="st0" d="M3458.48,1878.81c0-30.08,24.47-54.55,54.55-54.55c30.08,0,54.55,24.47,54.55,54.55
			c0,30.08-24.47,54.55-54.55,54.55C3482.95,1933.36,3458.48,1908.89,3458.48,1878.81z M3465.03,1878.81
			c0,26.46,21.53,47.99,47.99,47.99c26.46,0,47.99-21.53,47.99-47.99s-21.53-47.99-47.99-47.99
			C3486.56,1830.82,3465.03,1852.35,3465.03,1878.81z"/>
	</g>
	<g>
		<ellipse class="st3" cx="3741.79" cy="1877.86" rx="50.86" ry="65.84"/>
	</g>
	<g>
		<ellipse class="st0" cx="3752.68" cy="1878.43" rx="39.96" ry="58.67"/>
	</g>
	<g>
		<g>
			<path class="st0" d="M3751.43,1881.69c6.04,0,10.93-4.89,10.93-10.93v-83.31c0-35.01-14.12-68.17-39.75-93.37
				c-27.32-26.85-65.65-41.84-104.92-41.19l-74.67,0.88c-46.28,0.55-83.93,36.77-83.93,80.74v21.2l21.85-21.2
				c0-32.06,27.96-58.48,62.34-58.89l74.73-0.88c33.53-0.61,66.12,12.15,89.29,34.92c21.42,21.06,33.22,48.68,33.22,77.78v83.31
				C3740.5,1876.8,3745.39,1881.69,3751.43,1881.69z"/>
		</g>
	</g>
	<g>
		<path class="st0" d="M3638.81,1997.71h24.98c19.5,0,37.66-10.5,47.39-27.4l31.4-54.56c1.81-3.14,0.73-7.15-2.41-8.95
			c-3.14-1.81-7.15-0.73-8.95,2.41l-31.4,54.56c-7.4,12.85-21.2,20.83-36.03,20.83h-24.98c-3.62,0-6.56,2.94-6.56,6.56
			C3632.25,1994.78,3635.18,1997.71,3638.81,1997.71z"/>
	</g>
	<g>
		<path class="st3" d="M3625.88,2004.68h25.32c1.98,0,3.58-1.6,3.58-3.58v-19.37c0-1.98-1.6-3.58-3.58-3.58h-25.32
			c-1.98,0-3.58,1.6-3.58,3.58v19.37C3622.3,2003.08,3623.9,2004.68,3625.88,2004.68z"/>
	</g>
	<g>
		<g>
			<path class="st0" d="M2792.93,1732.12h488.16c27.07,0,49.02,21.95,49.02,49.02v206.86c0,27.07-21.95,49.02-49.02,49.02h-43.07
				v62.67c0,4.81-5.48,7.58-9.35,4.72l-91.12-67.39h-344.62c-27.07,0-49.02-21.95-49.02-49.02v-206.86
				C2743.91,1754.07,2765.86,1732.12,2792.93,1732.12z"/>
		</g>
		<g>
			<circle class="st1" cx="3205.87" cy="1882.94" r="76.5"/>
		</g>
		<g>
			<path class="st2" d="M2809.53,1831.74h286.63c2.23,0,4.04-1.81,4.04-4.04v-25.39c0-2.23-1.81-4.04-4.04-4.04h-286.63
				c-2.23,0-4.04,1.81-4.04,4.04v25.39C2805.49,1829.93,2807.3,1831.74,2809.53,1831.74z"/>
		</g>
		<g>
			<path class="st2" d="M2809.53,1899.68h286.63c2.23,0,4.04-1.81,4.04-4.04v-25.39c0-2.23-1.81-4.04-4.04-4.04h-286.63
				c-2.23,0-4.04,1.81-4.04,4.04v25.39C2805.49,1897.87,2807.3,1899.68,2809.53,1899.68z"/>
		</g>
		<g>
			<path class="st2" d="M2962.51,1967.62h133.64c2.23,0,4.04-1.81,4.04-4.04v-25.39c0-2.23-1.81-4.04-4.04-4.04h-133.64
				c-2.23,0-4.04,1.81-4.04,4.04v25.39C2958.47,1965.81,2960.28,1967.62,2962.51,1967.62z"/>
		</g>
	</g>
	<g>
		<g>
			<path class="st0" d="M3885.75,1945.78h86.74c7.11,0,12.87-5.76,12.87-12.87v-86.74c0-7.11-5.76-12.87-12.87-12.87h-86.74
				c-7.11,0-12.87,5.76-12.87,12.87v86.74C3872.88,1940.02,3878.64,1945.78,3885.75,1945.78z"/>
		</g>
		<g>
			<g>
				<path class="st2" d="M3924.49,1901.4c0-2.1-0.29-3.77-0.86-5c-0.57-1.23-1.67-2.38-3.29-3.44c-2.92-1.52-5.32-3.61-7.21-6.28
					c-1.89-2.66-2.83-5.58-2.83-8.75c0-5.17,1.73-9.28,5.19-12.32c3.46-3.04,8.21-4.56,14.25-4.56c5.63,0,10.16,1.33,13.6,3.97
					c3.44,2.65,5.12,6.61,5.04,11.89l-0.07,0.23h-12.52c-0.05-2.05-0.65-3.6-1.79-4.64c-1.14-1.04-2.56-1.56-4.26-1.56
					c-2.11,0-3.73,0.63-4.87,1.9c-1.14,1.27-1.71,2.97-1.71,5.1c0,2.05,0.49,3.87,1.47,5.44c0.98,1.57,2.31,2.89,4.01,3.96
					c3.3,2.31,5.57,4.35,6.81,6.12c1.24,1.77,1.88,4.43,1.9,7.95H3924.49z M3924.53,1906.95h12.78v10.27h-12.78V1906.95z"/>
			</g>
		</g>
	</g>
	<g>
		<g>
			<path class="st3" d="M3995.93,2163.77h70.73c7.11,0,12.87-5.76,12.87-12.87v-70.73c0-7.11-5.76-12.87-12.87-12.87h-70.73
				c-7.11,0-12.87,5.76-12.87,12.87v70.73C3983.07,2158.01,3988.83,2163.77,3995.93,2163.77z"/>
		</g>
		<g>
			<g>
				<path class="st2" d="M4024.85,2087.84h12.89v35.75h-12.89V2087.84z M4024.85,2132.46h12.89v10.76h-12.89V2132.46z"/>
			</g>
		</g>
	</g>
</g>
<g>
	<g>
		<defs>
			<polygon id="SVGID_1_" points="4117.77,1823.61 4183.41,1823.61 4183.31,1889.35 4117.67,1889.35 			"/>
		</defs>
		<clipPath id="SVGID_00000086683612063802797020000012306814245538462120_">
			<use xlink:href="#SVGID_1_"  style="overflow:visible;"/>
		</clipPath>
		<g style="clip-path:url(#SVGID_00000086683612063802797020000012306814245538462120_);">
			<g>
				<path class="st6" d="M4152.81,1828.06v40.32c0,0.2-0.16,0.37-0.37,0.37c-1.65,0.03-3.27-0.03-4.85,0.12
					c-0.16,0.01-0.31-0.07-0.37-0.21c-0.13-0.28-0.07-0.56-0.07-0.82c-0.01-5.84-0.01-11.68,0-17.52
					c0.01-5.62,0.04-11.24,0.08-16.86c0.02-3.22,1.99-5.44,5.17-5.77C4152.61,1827.67,4152.81,1827.84,4152.81,1828.06z"/>
				<path class="st6" d="M4142.28,1839.09v29.48c0,0.32-0.24,0.59-0.56,0.62c-1.1,0.11-2.2,0.23-3.3,0.34
					c-0.38,0.04-0.71-0.27-0.69-0.66c0.01-0.12,0.02-0.25,0.02-0.37c0.01-8.44,0.07-16.87,0.04-25.31
					c-0.01-2.37,1.57-4.18,3.71-4.71C4141.91,1838.39,4142.28,1838.69,4142.28,1839.09z"/>
				<path class="st6" d="M4157.73,1838.66c0-0.16,0.14-0.29,0.3-0.26c2.18,0.31,3.88,2.08,3.89,4.32
					c0.06,8.86,0.03,17.73,0.03,26.59l0,0c0,0.15-0.13,0.27-0.28,0.25c-1.22-0.13-2.43-0.26-3.71-0.4
					c-0.13-0.01-0.24-0.13-0.24-0.26V1838.66z"/>
				<path class="st6" d="M4133.52,1849.11v20.5c0,0.31-0.22,0.58-0.53,0.64c-0.83,0.16-1.68,0.32-2.56,0.48
					c-0.39,0.07-0.76-0.22-0.76-0.62c0,0,0,0,0-0.01c0.01-5.99,0.02-11.98,0.05-17.97c0.01-1.95,1.3-3.44,3.07-3.66
					C4133.18,1848.42,4133.52,1848.72,4133.52,1849.11z"/>
				<path class="st6" d="M4170.25,1869.86c0,0.55-0.5,0.97-1.04,0.87c0,0-0.01,0-0.01,0c-0.69-0.13-1.38-0.28-2.06-0.43
					c-0.41-0.09-0.7-0.45-0.7-0.86v-19.98c0-0.6,0.58-1.02,1.16-0.84c1.47,0.47,2.6,1.9,2.61,3.5c0.03,5.18,0.03,10.36,0.03,15.55
					C4170.25,1868.39,4170.25,1869.11,4170.25,1869.86z"/>
			</g>
		</g>
	</g>
	<path class="st6" d="M4150.52,1871.09c-12.14,0-22.42,3.23-26.79,4.94c-0.54,0.21-0.39,1.01,0.19,1.01h53.39
		c0.58,0,0.73-0.81,0.19-1.01C4173.07,1874.32,4162.65,1871.09,4150.52,1871.09z"/>
</g>
<linearGradient id="SVGID_00000142891437635437858500000017728527194221755834_" gradientUnits="userSpaceOnUse" x1="-370.6893" y1="536.7021" x2="2216.7151" y2="536.7021">
	<stop  offset="0" style="stop-color:#20303A"/>
	<stop  offset="0.0437" style="stop-color:#22343F"/>
	<stop  offset="0.2913" style="stop-color:#2E4754"/>
	<stop  offset="0.5021" style="stop-color:#355463"/>
	<stop  offset="0.6656" style="stop-color:#385C6C"/>
	<stop  offset="0.7619" style="stop-color:#395E6F"/>
</linearGradient>
<path style="fill:url(#SVGID_00000142891437635437858500000017728527194221755834_);" d="M1535.28,1388.81
	c120.95-6.55,255.95-83.82,300.26-194.04c52.01-129.41-57.92-220.43,0-306.38c81-120.21,304.62-9.78,407.49-128.68
	c93.69-108.29,53.01-367.27-79.66-447.32c-163.44-98.61-341.25,149.9-585.19,70.47c-163.98-53.4-148-186.65-395.23-407.49
	c-101.18-90.38-254.1-226.96-459.57-278.81C435.75-376.01,67-270.87-159.02-0.13c-264.96,317.38-273.52,790.95-68.43,1068.26
	c96.13,129.98,225.84,198.77,279.83,226.72c57.41,29.72,286.28,144.28,553.53,89.87c261.66-53.27,275.71-210.59,461.62-202.21
	C1279.86,1192.08,1325.45,1400.17,1535.28,1388.81z"/>
<g>
	<g id="XMLID_43_">
		<g id="XMLID_44_">
			<g id="XMLID_45_">
				<path class="st8" d="M3812.23,552.99l8.67-46.9c-7.49-16.75-11.44-35.42-10.63-55.14c2.65-64.33,55.5-116.28,119.87-117.75
					c70.38-1.61,127.71,55.98,125.68,126.45c-1.82,63.19-52.28,115.23-115.38,119.01c-26.78,1.6-51.73-5.53-72.57-18.6l-41.06,7.53
					C3818.18,569.18,3810.64,561.62,3812.23,552.99z"/>
			</g>
		</g>
	</g>
	<g>
		<g>
			<path class="st9" d="M3261.49,562.42c1.24-3.38,1.76-6.22,1.56-8.53c-0.19-2.31-1.28-4.8-3.26-7.46
				c-3.79-4.16-6.42-8.93-7.88-14.31c-1.47-5.38-1.27-10.62,0.59-15.71c3.04-8.31,8.23-13.88,15.58-16.73
				c7.34-2.85,15.86-2.51,25.55,1.04c9.04,3.31,15.54,8.1,19.5,14.38c3.96,6.27,4.33,13.62,1.11,22.04l-0.26,0.32l-20.09-7.35
				c1.13-3.33,1.08-6.16-0.14-8.5c-1.22-2.34-3.2-4.01-5.92-5.01c-3.38-1.24-6.36-1.17-8.93,0.19c-2.58,1.36-4.49,3.76-5.74,7.18
				c-1.21,3.3-1.49,6.5-0.85,9.59c0.64,3.1,2.02,6,4.12,8.71c3.94,5.64,6.38,10.26,7.33,13.83c0.95,3.58,0.41,8.21-1.62,13.88
				L3261.49,562.42z M3258.29,571.36l20.52,7.51l-6.04,16.49l-20.52-7.51L3258.29,571.36z"/>
		</g>
	</g>
	<g>
		<path class="st8" d="M2484.59,1361.55h1758.93c1.73,0,3.13-1.4,3.13-3.13c0-1.73-1.4-3.13-3.13-3.13H2484.59
			c-1.73,0-3.13,1.4-3.13,3.13C2481.46,1360.14,2482.86,1361.55,2484.59,1361.55z"/>
	</g>
	<g>
		<path class="st2" d="M3057.32,853.93l-9.35-21.99c-7.27-17.09-11.54-35.3-12.65-53.84l-3.41-57.48c0,0-1.4-24.2,7.33-27.73
			c8.73-3.53,61.45-20.6,61.45-20.6l1.19-79.02c0.09-5.7,4.47-10.41,10.16-10.9h0c5.96-0.52,11.26,3.78,11.99,9.72L3140,722.83
			c0.55,4.51,6.52,5.73,8.8,1.8l13.27-22.88c3.71-6.39,11.63-8.98,18.39-6.01l0.18,0.08c2.48,1.09,3.82,3.74,3.23,6.33l-13.41,59
			c-1.11,4.87-3.33,9.42-6.48,13.29l-3.42,4.19c-8.11,9.95-12.7,22.3-13.04,35.13l-0.61,23.39L3057.32,853.93z"/>
	</g>
	<g>
		<path class="st8" d="M3045.09,833.16c-7.43-17.47-11.76-35.93-12.89-54.88l-3.41-57.48c-0.25-4.41-1-26.65,9.28-30.82
			c7.83-3.17,49.44-16.7,59.53-19.98l1.16-76.78c0.11-7.34,5.71-13.35,13.02-13.98c7.69-0.66,14.43,4.81,15.37,12.47l15.97,130.73
			c0.13,1.03,0.93,1.31,1.27,1.38c0.34,0.07,1.19,0.13,1.71-0.77l13.27-22.88c4.51-7.78,14.13-10.92,22.54-7.23
			c3.83,1.68,5.94,5.84,5.02,9.9l-13.41,59c-1.21,5.31-3.67,10.35-7.11,14.57l-3.42,4.19c-7.63,9.36-12.01,21.16-12.33,33.24
			l-0.68,25.92l-94.54,17.7L3045.09,833.16z M3144.39,813.69c0.35-13.46,5.23-26.61,13.74-37.03l3.42-4.19
			c2.84-3.48,4.86-7.63,5.86-12l13.41-59c0.26-1.15-0.33-2.28-1.6-2.85c-5.32-2.33-11.51-0.3-14.43,4.71l-13.27,22.88
			c-1.73,2.97-5.02,4.45-8.39,3.76c-3.37-0.69-5.82-3.34-6.23-6.76l-15.97-130.73c-0.52-4.29-4.32-7.36-8.61-6.98
			c-4.1,0.36-7.23,3.72-7.29,7.83l-1.22,81.26l-2.13,0.69c-0.53,0.17-52.72,17.07-61.24,20.52c-4.52,1.83-5.88,15.79-5.38,24.64
			l3.41,57.48c1.08,18.23,5.26,36,12.4,52.8l8.37,19.67l84.62-15.84L3144.39,813.69z"/>
	</g>
	<g>
		<path class="st8" d="M3057.77,760.36c1.46,0,2.95-0.28,4.41-0.85c3.4-1.31,6.21-4.08,7.73-7.61c13.97-32.48-13.52-64.55-14.7-65.9
			c-1.14-1.3-3.11-1.43-4.42-0.3c-1.3,1.14-1.44,3.11-0.31,4.42c0.26,0.3,26.06,30.47,13.66,59.3c-0.85,1.99-2.4,3.53-4.23,4.24
			c-1.57,0.61-3.01,0.57-4.43-0.1c-2.41-1.15-5.99-4.75-9.36-15.32c-0.53-1.65-2.29-2.57-3.94-2.03c-1.65,0.52-2.56,2.29-2.03,3.93
			c3.3,10.34,7.42,16.58,12.62,19.07C3054.39,759.98,3056.07,760.36,3057.77,760.36z"/>
	</g>
	<g>
		<path class="st8" d="M3078.2,761.31c2.71,0,5.02-0.92,6.68-1.86c3.39-1.92,5.99-5.17,7.32-9.14c14.89-44.26-15-71.63-15.31-71.9
			c-1.29-1.15-3.27-1.04-4.42,0.25c-1.15,1.29-1.04,3.27,0.25,4.42c1.12,1.01,27.08,25,13.55,65.23c-0.84,2.51-2.43,4.53-4.48,5.68
			c-1.5,0.85-6.06,3.44-12.2-5.16c-1.01-1.41-2.96-1.73-4.37-0.73c-1.41,1.01-1.73,2.96-0.73,4.37
			C3069.36,759.32,3074.21,761.31,3078.2,761.31z"/>
	</g>
	<g>
		<path class="st8" d="M3100.31,760.22c1.32,0,2.69-0.26,4.08-0.78c3.93-1.47,7.06-4.71,8.59-8.89c14.96-40.8-8.63-78.38-9.64-79.96
			c-0.93-1.46-2.87-1.88-4.32-0.95c-1.46,0.93-1.88,2.87-0.95,4.33c0.23,0.36,22.9,36.59,9.03,74.42c-0.9,2.46-2.69,4.34-4.91,5.18
			c-1.36,0.51-2.49,0.5-3.48-0.01c-2.03-1.06-3.85-4.38-5.12-9.35c-0.43-1.68-2.14-2.69-3.81-2.26c-1.68,0.43-2.69,2.14-2.26,3.81
			c1.79,7.01,4.51,11.37,8.29,13.35C3097.21,759.85,3098.73,760.22,3100.31,760.22z"/>
	</g>
	<g>
		<ellipse class="st8" cx="3622.18" cy="768.24" rx="100.52" ry="21.6"/>
	</g>
	<g>
		
			<ellipse transform="matrix(0.5613 -0.8276 0.8276 0.5613 1116.0356 3355.2014)" class="st2" cx="3723.01" cy="624.84" rx="29.12" ry="29.12"/>
	</g>
	<g>
		<path class="st8" d="M3719.06,656.85c-8.55-1.05-16.18-5.37-21.48-12.17c-5.3-6.79-7.64-15.24-6.58-23.79
			c2.18-17.65,18.31-30.25,35.96-28.06c8.55,1.05,16.18,5.37,21.48,12.17c5.3,6.79,7.64,15.24,6.58,23.79
			c-1.05,8.55-5.38,16.18-12.17,21.48c-5.73,4.47-12.63,6.83-19.78,6.83C3721.74,657.1,3720.4,657.01,3719.06,656.85z
			 M3697.21,621.65c-0.85,6.89,1.03,13.7,5.31,19.17c4.27,5.47,10.42,8.96,17.31,9.81c6.9,0.84,13.7-1.03,19.17-5.31
			c5.47-4.27,8.95-10.42,9.8-17.31c0.85-6.89-1.03-13.7-5.31-19.17c-4.27-5.47-10.42-8.96-17.31-9.81c-1.08-0.13-2.14-0.2-3.2-0.2
			C3710.06,598.84,3698.83,608.51,3697.21,621.65z"/>
	</g>
	<g>
		<path class="st2" d="M3710.24,656.96v164.75c0,9.02-4.24,17.38-11.19,22.07l-116.06,78.28l-33.06-69.5
			c-4.92-10.33-7.48-21.84-7.48-33.52v-65.4L3710.24,656.96z"/>
	</g>
	<g>
		<path class="st8" d="M3581.72,926.69l119.08-80.32c7.87-5.31,12.58-14.53,12.58-24.67V656.97h-6.27v164.75
			c0,7.93-3.76,15.39-9.81,19.47l-113.04,76.24l-31.5-66.22c-4.7-9.88-7.18-21-7.18-32.17v-65.4h-6.27v65.4
			c0,12.1,2.69,24.16,7.79,34.87L3581.72,926.69z"/>
	</g>
	<g>
		<path class="st2" d="M3554.96,767.07L3554.96,767.07c72.92,8.99,140.69-39.01,156.4-110.78l32.26-147.39
			c0,0-242.42-95.48-264.33-32.61c-17.47,50.14-14.48,138.34-9.02,202.67C3474.15,724.68,3509.43,761.46,3554.96,767.07z"/>
	</g>
	<g>
		<path class="st8" d="M3572.96,771.32c30.25,0,59.57-9.22,84.08-26.7c30.16-21.5,50.88-54.2,58.34-92.08
			c0.33-1.7-0.77-3.35-2.47-3.68c-1.71-0.33-3.35,0.77-3.68,2.47c-13.27,67.35-70.28,113.72-136.35,113.72
			c-5.79,0-11.64-0.35-17.54-1.08c-43.75-5.4-78.22-41.26-81.95-85.26c-3.06-36.14-4.14-88.43-2.61-127.16
			c0.07-1.73-1.28-3.18-3.01-3.25c-1.73-0.09-3.19,1.28-3.25,3.01c-1.53,38.96-0.45,91.57,2.63,127.94
			c3.98,46.94,40.75,85.19,87.42,90.95C3560.72,770.94,3566.86,771.32,3572.96,771.32z"/>
	</g>
	<g>
		<path class="st1" d="M3638.39,545.5c6.07-3.05,11.95-6.74,18.46-9.41c1.43-0.58,3.35-1.18,4.77-0.25c0.76,0.5,1.08,1.26,1.36,2.08
			c1.63,4.75,1.74,10.49,2.79,15.43c5.56,26.21,16.19,51.17,33.23,72c2.61,3.19,6.18,6.6,10.27,5.86c2.57-0.46,4.5-2.47,6.24-4.37
			c27.48-30.01,58.43-83.49,44.26-125.66c-3.92-11.67-13.08-22.1-25.06-24.97c-11.97-2.87-26.2,3.61-29.75,15.39
			c8.58-28.52-34.5-60.18-58.57-63.25c-12.92-1.65-26.9-1.1-37.75,6.09c3.92-3.04-26.78-34.34-30.92-37.65
			c-19.65-15.74-41.56-26.21-67.18-27.15c-33.11-1.21-66.76,14.52-85.74,41.68c-13.07,18.71-18.44,41.97-16.9,64.59
			c1.8,26.49,10.41,48.82,30.73,66.13c34.7,29.57,91.23,23.07,128.24,1.6c1.2-0.69,13.98-9.25,13.65-9.64
			c8.7,10.23,22.71,16.51,36.38,17.04C3624.99,551.37,3631.8,548.81,3638.39,545.5z"/>
	</g>
	<g>
		<path class="st8" d="M3526.9,694.33c0.28,0,0.56-0.02,0.85-0.07l15.44-2.69c1.7-0.3,2.85-1.92,2.55-3.62
			c-0.3-1.71-1.92-2.86-3.62-2.55l-13.43,2.34l8.23-33.02c0.42-1.68-0.6-3.38-2.28-3.8c-1.68-0.42-3.38,0.6-3.8,2.28l-8.81,35.37
			c-0.26,1.58,0.26,3.19,1.39,4.32C3524.35,693.83,3525.61,694.33,3526.9,694.33z"/>
	</g>
	<g>
		<path class="st8" d="M3557.87,720.68c5.14,0,9.41-1.43,12.74-4.28c6.57-5.62,6.71-14.61,6.71-14.99c0.01-1.73-1.38-3.14-3.11-3.16
			c-0.01,0-0.02,0-0.02,0c-1.72,0-3.11,1.38-3.13,3.1c0,0.09-0.16,6.59-4.55,10.31c-2.87,2.43-7.07,3.25-12.5,2.44
			c-1.71-0.27-3.31,0.92-3.56,2.63c-0.26,1.71,0.92,3.31,2.63,3.57C3554.74,720.55,3556.34,720.68,3557.87,720.68z"/>
	</g>
	<g>
		<path class="st8" d="M3507.93,598.87c0.9,0,1.79-0.38,2.41-1.13c1.11-1.33,0.93-3.3-0.4-4.41c-0.63-0.52-15.6-12.71-35.1-4.41
			c-1.59,0.68-2.33,2.52-1.66,4.11c0.68,1.59,2.52,2.34,4.11,1.65c16.01-6.82,28.51,3.35,28.63,3.46
			C3506.52,598.63,3507.23,598.87,3507.93,598.87z"/>
	</g>
	<g>
		<path class="st8" d="M3574.09,604.49c0.59,0,1.19-0.17,1.72-0.52c14.42-9.52,28.22-2.07,28.8-1.75c1.51,0.84,3.42,0.3,4.26-1.21
			c0.84-1.51,0.31-3.41-1.19-4.25c-0.71-0.4-17.63-9.69-35.32,1.99c-1.44,0.95-1.84,2.9-0.89,4.34
			C3572.07,603.99,3573.07,604.49,3574.09,604.49z"/>
	</g>
	<g>
		<path class="st8" d="M3481.78,620.24c-0.55,4.45,2.03,8.44,5.75,8.9c3.73,0.46,7.19-2.78,7.74-7.23c0.55-4.45-2.03-8.44-5.75-8.9
			C3485.79,612.55,3482.33,615.78,3481.78,620.24z"/>
	</g>
	<g>
		<path class="st8" d="M3578.13,625.23c-0.55,4.45,2.03,8.44,5.75,8.9c3.73,0.46,7.19-2.78,7.74-7.23s-2.03-8.44-5.75-8.9
			C3582.15,617.53,3578.68,620.77,3578.13,625.23z"/>
	</g>
	<g>
		<path class="st2" d="M3196.42,864.09l63.01,258.36l120.76-209.86c29.57-51.98,84.83-84.01,144.63-83.84v-58.43l0.46,0
			c4.73,10.95,46.22,19.51,96.71,19.51c49.74,0,90.73-8.31,96.46-19.02l0.78,0v58.51c38.69,0.11,76.24,13,106.85,36.67
			c101,78.12,315.22,266.11,248.14,410.27c-22.73,48.85-72.4,79.55-126.27,80.76l-802.48,1.39c0,0-121.54-126.14-122.6-465.13
			c-0.06-20.52,14.81-38.06,35.05-41.41l92.13-15.25C3170.13,833.31,3189.69,844.89,3196.42,864.09z"/>
	</g>
	<g>
		<path class="st8" d="M3143.22,1360.59c-1.26-1.31-31.15-32.81-61.54-106.42c-27.95-67.69-61.39-185.25-61.94-360.87
			c-0.07-22.16,15.77-40.88,37.67-44.51l92.13-15.25c21.62-3.57,42.58,8.84,49.84,29.52l61.24,251.04l116.85-203.06
			c29.56-51.96,84.6-84.47,144.22-85.4v-58.46l5.66,0.02l0.81,1.88c3.68,8.51,42.26,17.62,93.84,17.62
			c52.13,0,89.23-9.02,93.7-17.37l0.89-1.66l5.78,0.01v58.54c38.09,0.79,75.48,13.97,105.63,37.28
			c54.24,41.95,130.84,107.4,187.66,180.93c70.36,91.04,91.02,169.49,61.4,233.14c-22.76,48.91-73.41,81.32-129.1,82.57
			l-802.48,1.39l-1.33,0L3143.22,1360.59z M3622,792.97c-37.04,0-78.59-4.85-94.04-15.37v54.29l-3.14-0.01c-0.16,0-0.32,0-0.48,0
			c-58.38,0-112.54,31.49-141.43,82.27l-124.67,216.64l-64.83-265.81c-6.29-17.72-24.29-28.33-42.85-25.27l-92.13,15.25
			c-18.85,3.12-32.49,19.23-32.43,38.31c0.55,174.32,33.63,290.93,61.28,358.06c27.08,65.74,54.38,98.13,59.57,103.95l801.03-1.39
			c53.26-1.2,101.74-32.18,123.5-78.95c66.49-142.88-150.74-331.86-247.21-406.48c-29.88-23.11-67.15-35.9-104.94-36.01l-3.12-0.01
			v-54.9C3700.67,788.1,3658.82,792.97,3622,792.97z"/>
	</g>
	<g>
		<path class="st8" d="M3621.31,858.67c56.36,0,87.42-21.49,88.8-22.46c1.41-1,1.75-2.95,0.75-4.36c-1-1.41-2.95-1.75-4.36-0.75
			c-0.34,0.24-35.04,24.14-96.35,21.03c-1.71-0.04-3.2,1.24-3.29,2.97c-0.09,1.73,1.24,3.2,2.97,3.29
			C3613.76,858.58,3617.59,858.67,3621.31,858.67z"/>
	</g>
	<g>
		<path class="st8" d="M3670.7,875.98c0.1,0,0.2,0,0.3-0.01c34.23-3.26,57.61-23.9,58.59-24.78c1.29-1.15,1.39-3.13,0.24-4.42
			s-3.13-1.39-4.42-0.25c-0.23,0.2-22.89,20.16-55,23.21c-1.72,0.16-2.99,1.69-2.82,3.42
			C3667.74,874.77,3669.1,875.98,3670.7,875.98z"/>
	</g>
	<g>
		<path class="st8" d="M3789.35,1155.71c0.04,0,0.08,0,0.12,0c1.73-0.07,3.08-1.52,3.01-3.25c-0.98-25.43,13.58-35.24,14.2-35.64
			c1.44-0.94,1.86-2.88,0.93-4.33c-0.94-1.45-2.86-1.88-4.31-0.94c-0.74,0.47-18.19,11.96-17.07,41.15
			C3786.28,1154.39,3787.67,1155.71,3789.35,1155.71z"/>
	</g>
	<g>
		<path class="st10" d="M3197.31,1358.41h345.64c11.55,0,20.91-9.36,20.91-20.91v-27.52h-366.55V1358.41z"/>
	</g>
	<g>
		<g>
			<path class="st0" d="M2819.35,1358.41h541.83l-112.62-298.23c-10.23-27.1-36.17-45.03-65.13-45.03h-439.1
				c-26.39,0-44.64,26.39-35.31,51.08L2819.35,1358.41z"/>
		</g>
		<g>
			
				<ellipse transform="matrix(0.4385 -0.8987 0.8987 0.4385 628.3519 3391.2415)" class="st3" cx="3028.29" cy="1192.73" rx="31.3" ry="31.3"/>
		</g>
	</g>
	<g>
		<path class="st8" d="M3824.91,1361.56c51.38,0,97.31-0.83,123.12-1.41c1.73-0.04,3.1-1.47,3.06-3.2
			c-0.04-1.71-1.43-3.06-3.13-3.06c-0.02,0-0.05,0-0.07,0c-156.76,3.52-337.44,1.24-374.4-15.7
			c-49.11-22.51-35.35-110.11-32.09-127.44c1.59-8.46,8.7-14.71,17.29-15.18l274.04-26.8c1.72-0.17,2.98-1.7,2.81-3.42
			c-0.17-1.72-1.69-3-3.42-2.81l-273.91,26.79c-11.35,0.62-20.85,8.96-22.97,20.27c-4.79,25.48-16.36,110.46,35.64,134.29
			C3602.48,1358.37,3724.15,1361.56,3824.91,1361.56z"/>
	</g>
	<g>
		<path class="st2" d="M3556.81,1226.59l-94.82,5.11l-105.19,55.56c-5.29,2.79-7.41,9.28-4.78,14.66l0,0
			c2.56,5.24,8.74,7.6,14.14,5.4l68.5-27.91c1.16-0.47,2.02,1.13,0.98,1.83l-70.95,47.92c-4.97,3.36-6.22,10.14-2.77,15.05l0,0
			c3.24,4.6,9.48,5.92,14.3,3.02l80.04-48.18c0.8-0.48,1.61,0.6,0.92,1.24l-31.12,28.44c-7,6.4-3.9,18.04,5.37,20.1l0,0
			c2.93,0.65,6,0.15,8.57-1.39l32.62-19.56l86.09,0.63c28.27,0.16,51.28-22.71,51.28-50.98l0,0
			C3609.98,1248.51,3585.8,1225.34,3556.81,1226.59z"/>
	</g>
	<g>
		<path class="st8" d="M3430.74,1351.89c-5.43-1.21-9.7-5.3-11.13-10.67c-1.43-5.37,0.22-11.04,4.33-14.8l13.65-12.48l-59.77,35.98
			c-6.2,3.73-14.32,2.02-18.48-3.91c-2.16-3.07-2.97-6.79-2.29-10.47c0.68-3.69,2.76-6.87,5.87-8.97l54.29-36.67l-49.89,20.33
			c-6.9,2.81-14.87-0.23-18.14-6.93c-3.39-6.94-0.69-15.19,6.14-18.8l105.19-55.57l0.61-0.32l95.51-5.14l0.03,0
			c14.87-0.64,29.01,4.68,39.76,14.99c10.76,10.3,16.68,24.18,16.68,39.08c0,14.51-5.67,28.14-15.96,38.38
			c-10.22,10.16-23.75,15.74-38.16,15.74c-0.1,0-0.21,0-0.32,0l-85.21-0.63l-31.87,19.11c-2.33,1.4-4.96,2.12-7.62,2.12
			C3432.9,1352.25,3431.82,1352.13,3430.74,1351.89z M3558.73,1325.38c0.09,0,0.19,0,0.28,0c12.73,0,24.7-4.94,33.73-13.92
			c9.1-9.05,14.11-21.1,14.11-33.93c0-13.17-5.24-25.44-14.75-34.56c-9.51-9.11-22-13.81-35.15-13.25l-94.11,5.07l-104.58,55.24
			c-3.82,2.02-5.32,6.63-3.43,10.51c1.83,3.74,6.28,5.45,10.14,3.88l68.5-27.91c1.99-0.82,4.25,0.01,5.26,1.9
			c1.01,1.89,0.43,4.23-1.35,5.43l-70.95,47.92c-1.7,1.15-2.84,2.89-3.22,4.91c-0.37,2.02,0.07,4.06,1.26,5.74
			c2.28,3.24,6.73,4.19,10.12,2.14l80.04-48.18c1.73-1.04,3.94-0.61,5.15,1.01c1.21,1.62,0.99,3.86-0.49,5.22l-31.12,28.44
			c-2.41,2.2-3.35,5.4-2.5,8.56c0.84,3.16,3.25,5.46,6.44,6.17c2.15,0.48,4.39,0.11,6.28-1.02l33.38-20.02L3558.73,1325.38z"/>
	</g>
	<g>
		<path class="st8" d="M3637.3,1269.06c0.04,0,0.09,0,0.13,0c1.73-0.07,3.07-1.53,3-3.26c-0.92-21.84-13.79-41.19-33.59-50.5
			c-1.56-0.73-3.43-0.06-4.17,1.5c-0.74,1.57-0.06,3.43,1.5,4.17c17.68,8.31,29.17,25.59,29.99,45.09
			C3634.24,1267.75,3635.63,1269.06,3637.3,1269.06z"/>
	</g>
	<g>
		<path class="st8" d="M3097.79,800.3c0.04,0,0.07,0,0.11,0c1.73-0.06,3.08-1.51,3.03-3.23c-0.97-29.01,28.37-36.62,29.61-36.93
			c1.68-0.42,2.7-2.11,2.29-3.79c-0.41-1.68-2.1-2.71-3.78-2.29c-0.35,0.09-35.52,9.08-34.38,43.22
			C3094.71,798.96,3096.11,800.3,3097.79,800.3z"/>
	</g>
	<g id="XMLID_28_">
		<g id="XMLID_84_">
			<path class="st8" d="M4106.45,1076.03L4106.45,1076.03c5.81,0,10.53,4.87,10.53,10.88l-20.54,107.44h-21.05l20.54-107.44
				C4095.92,1080.9,4100.63,1076.03,4106.45,1076.03z"/>
		</g>
		<g id="XMLID_83_">
			<path class="st11" d="M3993.48,1076.03L3993.48,1076.03c-5.81,0-10.53,4.87-10.53,10.88l20.54,107.44h21.05l-20.54-107.44
				C4004.01,1080.9,3999.29,1076.03,3993.48,1076.03z"/>
		</g>
		<g id="XMLID_82_">
			<path class="st11" d="M4062.62,1076.03h14.78c1.73,0,3.14,1.4,3.14,3.14v115.19h-21.05v-115.19
				C4059.48,1077.43,4060.89,1076.03,4062.62,1076.03z"/>
		</g>
		<g id="XMLID_74_">
			<path class="st10" d="M4021.54,1076.03h14.78c1.73,0,3.14,1.4,3.14,3.14v115.19h-21.05v-115.19
				C4018.4,1077.43,4019.81,1076.03,4021.54,1076.03z"/>
		</g>
		<g id="XMLID_73_">
			<path class="st8" d="M4043.37,1064.41L4043.37,1064.41c5.81,0,10.53,4.87,10.53,10.88l10.27,119.06h-21.05l-10.27-119.06
				C4032.85,1069.28,4037.56,1064.41,4043.37,1064.41z"/>
		</g>
		<g id="XMLID_71_">
			<path class="st2" d="M3993.58,1359.3h115.36c7.47,0,13.53-6.06,13.53-13.53v-189.36c0-1.24-1.01-2.25-2.25-2.25H3982.3
				c-1.24,0-2.25,1.01-2.25,2.25v189.36C3980.06,1353.25,3986.11,1359.3,3993.58,1359.3z"/>
		</g>
		<g id="XMLID_30_">
			<path class="st8" d="M3976.92,1331.05v-172.18c0-4.32,3.51-7.83,7.83-7.83h133.03c4.32,0,7.83,3.51,7.83,7.83v172.18
				c0,17.31-14.08,31.39-31.39,31.39h-85.91C3991,1362.44,3976.92,1348.36,3976.92,1331.05z M3984.75,1157.3
				c-0.86,0-1.56,0.7-1.56,1.56v172.18c0,13.85,11.27,25.12,25.12,25.12h85.91c13.85,0,25.12-11.27,25.12-25.12v-172.18
				c0-0.86-0.7-1.56-1.56-1.56H3984.75z"/>
		</g>
	</g>
	<g>
		<path class="st8" d="M3539.69,619.79c0-30.67,24.96-55.63,55.63-55.63s55.63,24.95,55.63,55.63s-24.96,55.63-55.63,55.63
			S3539.69,650.47,3539.69,619.79z M3545.96,619.79c0,27.22,22.14,49.36,49.36,49.36s49.36-22.14,49.36-49.36
			c0-27.22-22.14-49.36-49.36-49.36S3545.96,592.57,3545.96,619.79z"/>
	</g>
	<g>
		<path class="st8" d="M3425.74,619.79c0-30.67,24.96-55.63,55.63-55.63s55.63,24.95,55.63,55.63s-24.96,55.63-55.63,55.63
			S3425.74,650.47,3425.74,619.79z M3432.01,619.79c0,27.22,22.14,49.36,49.36,49.36s49.36-22.14,49.36-49.36
			c0-27.22-22.14-49.36-49.36-49.36S3432.01,592.57,3432.01,619.79z"/>
	</g>
	<g>
		<path class="st8" d="M3647.81,614.65c0.14,0,0.29-0.01,0.43-0.03l89.02-12.31c1.71-0.24,2.91-1.82,2.67-3.53
			c-0.24-1.72-1.82-2.89-3.53-2.68l-89.02,12.3c-1.71,0.24-2.91,1.82-2.67,3.53C3644.93,613.51,3646.27,614.65,3647.81,614.65z"/>
	</g>
	<g id="XMLID_1000_">
		<g id="XMLID_998_">
			<path class="st12" d="M2749.75,1078.87c0,0,123.16-29.47,127.66-136.45c0,0-23.37,29.67-56.64,36.86
				C2820.77,979.28,2746.15,1014.84,2749.75,1078.87z"/>
		</g>
		<g id="XMLID_997_">
			<path class="st12" d="M2610.81,1040.28c0,0-15.37,71.49,83.79,83.79c0,0,14.86-22.11-26.53-48.16
				c-6.54-4.11-13.98-6.44-21.6-7.67C2636.62,1066.64,2620.81,1060.77,2610.81,1040.28z"/>
		</g>
		<g id="XMLID_994_">
			<path class="st12" d="M2689.59,908.18c0,0,106.65,106.42,31.28,197.68c0,0-22.97-11.64-37.03-50.58
				c-9.27-25.69-9.4-53.69-2.18-80.03C2685.76,960.31,2689.8,937.92,2689.59,908.18z"/>
		</g>
		<g id="XMLID_992_">
			<path class="st12" d="M2801.42,1066.72c0,0,41.33-20.24,72.6,35.99c0,0-56.1-25.2-58.48,6.84c0,0-13.33,40.26-47.82,46.8
				C2767.72,1156.35,2747.69,1081.65,2801.42,1066.72z"/>
		</g>
		<g id="XMLID_981_">
			<path class="st13" d="M2755.19,1237.42c1.66,0,3.04-1.3,3.13-2.97c1.37-26.59-8.82-51.59-18.68-75.77
				c-7.07-17.33-14.37-35.25-17.32-53.56c-1.64-10.19-1.97-20.79-2.29-31.05l-0.12-3.65c-1.35-41.44-5.21-83.23-11.46-124.21
				c-0.26-1.71-1.86-2.88-3.57-2.62c-1.71,0.26-2.89,1.86-2.62,3.57c6.21,40.74,10.05,82.28,11.39,123.47l0.11,3.64
				c0.32,10.46,0.66,21.27,2.36,31.85c3.06,19.01,10.5,37.27,17.7,54.93c10.04,24.62,19.52,47.88,18.22,73.08
				c-0.09,1.73,1.24,3.2,2.97,3.29C2755.08,1237.42,2755.13,1237.42,2755.19,1237.42z"/>
		</g>
		<g id="XMLID_988_">
			<path class="st13" d="M2732.19,1221.04c1.53,0,2.87-1.13,3.1-2.69c5.15-36.11-3.47-68.27-23.66-88.25
				c-9.62-9.51-21.68-16.17-33.35-22.61c-14.9-8.22-28.97-15.98-38.08-29.1c-0.98-1.42-2.94-1.77-4.36-0.79
				c-1.42,0.99-1.77,2.94-0.79,4.36c9.95,14.32,25.33,22.81,40.2,31.01c11.29,6.23,22.97,12.67,31.97,21.57
				c18.77,18.57,26.74,48.79,21.87,82.91c-0.24,1.71,0.95,3.3,2.66,3.54C2731.89,1221.03,2732.04,1221.04,2732.19,1221.04z"/>
		</g>
		<g id="XMLID_989_">
			<path class="st13" d="M2746.83,1197.47c1.15,0,2.26-0.63,2.81-1.73c8.18-16.39,7.52-35.63,6.03-50.55
				c-0.37-3.69-0.81-7.38-1.24-11.07c-1.49-12.5-3.02-25.43-1.56-37.91c2.27-19.44,12.06-37.93,26.86-50.75
				c9.67-8.37,21.46-14.42,32.86-20.28c4.33-2.22,8.8-4.52,13.13-6.92c20.98-11.66,33.43-24.03,39.16-38.93
				c0.62-1.62-0.18-3.43-1.8-4.05c-1.61-0.62-3.43,0.18-4.05,1.8c-5.18,13.45-16.73,24.79-36.36,35.7
				c-4.24,2.36-8.67,4.63-12.95,6.83c-11.73,6.02-23.86,12.25-34.1,21.11c-15.97,13.82-26.53,33.78-28.98,54.75
				c-1.55,13.21,0.03,26.51,1.56,39.37c0.43,3.65,0.87,7.31,1.23,10.95c1.4,14.09,2.06,32.18-5.4,47.13
				c-0.77,1.55-0.14,3.43,1.41,4.2C2745.89,1197.36,2746.36,1197.47,2746.83,1197.47z"/>
		</g>
		<g id="XMLID_990_">
			<path class="st13" d="M2734.77,1230.59c1.56,0,2.91-1.17,3.11-2.76c2.06-16.97,11.48-32.73,19.79-46.64l48.21-80.7
				c2.04-3.42,4.16-6.96,7.17-9.25c4.07-3.1,9.65-3.79,14.06-4.05c8.53-0.5,17.04,0.35,25.29,2.53c1.68,0.44,3.39-0.56,3.83-2.23
				c0.44-1.67-0.56-3.39-2.23-3.83c-8.9-2.35-18.07-3.27-27.26-2.72c-5.29,0.31-12.06,1.2-17.48,5.32
				c-3.97,3.02-6.51,7.27-8.75,11.02l-48.21,80.7c-8.63,14.44-18.41,30.81-20.63,49.1c-0.21,1.72,1.02,3.28,2.73,3.49
				C2734.52,1230.58,2734.64,1230.59,2734.77,1230.59z"/>
		</g>
		<g id="XMLID_972_">
			<path class="st2" d="M2689.84,1359.3h82.6c9.64,0,17.81-7.08,19.18-16.62l21.88-152.06h-159.88l16.95,151.46
				C2671.68,1351.89,2679.97,1359.3,2689.84,1359.3z"/>
		</g>
		<g id="XMLID_1001_">
			<path class="st8" d="M2667.47,1342.43l-17.34-154.94h167l-22.4,155.64c-1.58,11.01-11.16,19.31-22.29,19.31h-82.6
				C2678.36,1362.44,2668.74,1353.83,2667.47,1342.43z M2657.13,1193.75l16.56,147.97c0.92,8.23,7.86,14.44,16.15,14.44h82.6
				c8.03,0,14.94-5.99,16.08-13.93l21.36-148.48H2657.13z"/>
		</g>
		<g id="XMLID_888_">
			<path class="st2" d="M2645.83,1208.27h175.48c1.45,0,2.63-1.18,2.63-2.63v-19.3c0-1.45-1.18-2.63-2.63-2.63h-175.48
				c-1.45,0-2.63,1.18-2.63,2.63v19.3C2643.2,1207.1,2644.38,1208.27,2645.83,1208.27z"/>
		</g>
		<g id="XMLID_95_">
			<path class="st8" d="M2648.28,1211.41h108.31c1.73,0,3.13-1.4,3.13-3.13c0-1.73-1.4-3.13-3.13-3.13h-108.31
				c-1.07,0-1.95-0.87-1.95-1.95v-14.41c0-1.07,0.87-1.95,1.95-1.95h170.59c1.07,0,1.95,0.87,1.95,1.95v14.41
				c0,1.07-0.87,1.95-1.95,1.95h-24.89c-1.73,0-3.13,1.4-3.13,3.13c0,1.73,1.4,3.13,3.13,3.13h24.89c4.53,0,8.21-3.68,8.21-8.21
				v-14.41c0-4.53-3.68-8.21-8.21-8.21h-170.59c-4.53,0-8.21,3.68-8.21,8.21v14.41C2640.06,1207.72,2643.75,1211.41,2648.28,1211.41
				z"/>
		</g>
	</g>
	<g>
		<g>
			<path class="st9" d="M3097.27,392.44h34.95v96.93h-34.95V392.44z M3097.27,513.39h34.95v29.18h-34.95V513.39z"/>
		</g>
	</g>
	<g>
		<g>
			<path class="st9" d="M3288.04,701.34l19.49,6.89l-19.11,54.04l-19.49-6.89L3288.04,701.34z M3264.19,768.78l19.49,6.89
				l-5.75,16.27l-19.49-6.89L3264.19,768.78z"/>
		</g>
	</g>
	<g>
		<g>
			<path class="st9" d="M2869.7,753.23l15.84-13.79l38.24,43.93l-15.84,13.79L2869.7,753.23z M2917.42,808.05l15.84-13.79
				l11.51,13.23l-15.84,13.79L2917.42,808.05z"/>
		</g>
	</g>
	<g>
		<path class="st8" d="M3465.78,1220.37c1.72,0,3.12-1.39,3.13-3.11l0.5-84.2c0.01-1.73-1.38-3.14-3.11-3.15c-0.01,0-0.01,0-0.02,0
			c-1.72,0-3.12,1.39-3.13,3.11l-0.5,84.2c-0.01,1.73,1.38,3.14,3.11,3.15C3465.77,1220.37,3465.77,1220.37,3465.78,1220.37z"/>
	</g>
</g>
<g>
	<defs>
		<polygon id="SVGID_00000153670130921473880050000000645653490871579312_" points="2771.52,520.97 2938.84,396.43 3063.31,564.17 
			2895.99,688.71 		"/>
	</defs>
	<clipPath id="SVGID_00000163770132239213649780000012832967006368509621_">
		<use xlink:href="#SVGID_00000153670130921473880050000000645653490871579312_"  style="overflow:visible;"/>
	</clipPath>
	<g style="clip-path:url(#SVGID_00000163770132239213649780000012832967006368509621_);">
		<path class="st9" d="M2869.27,465.82l76.5,102.78c0.39,0.52,0.28,1.25-0.23,1.65c-4.14,3.2-8.38,6.14-12.13,9.5
			c-0.37,0.33-0.91,0.41-1.34,0.17c-0.87-0.48-1.23-1.31-1.73-1.97c-11.1-14.88-22.2-29.75-33.25-44.66
			c-10.63-14.35-21.23-28.73-31.8-43.13c-6.06-8.26-5.23-17.64,2.22-24.51C2868.03,465.18,2868.85,465.26,2869.27,465.82z"/>
		<path class="st9" d="M2863.37,513.9l55.94,75.16c0.61,0.81,0.5,1.95-0.25,2.64c-2.6,2.38-5.18,4.75-7.76,7.12
			c-0.9,0.83-2.33,0.65-2.99-0.37c-0.22-0.33-0.41-0.68-0.64-0.98c-15.97-21.53-31.82-43.16-47.93-64.59
			c-4.52-6.02-3.93-13.63,0.52-19.05C2861.07,512.83,2862.6,512.88,2863.37,513.9z"/>
		<path class="st9" d="M2901.94,483.5c-0.31-0.41-0.18-1,0.28-1.25c6.15-3.33,13.84-2.06,18.12,3.62
			c16.96,22.49,33.71,45.14,50.53,67.74l0,0c0.28,0.38,0.17,0.93-0.24,1.17c-3.36,1.98-6.7,3.95-10.21,6.01
			c-0.37,0.22-0.85,0.12-1.11-0.22L2901.94,483.5z"/>
		<path class="st9" d="M2860.03,556.06l38.89,52.25c0.59,0.79,0.53,1.89-0.14,2.62c-1.82,1.97-3.69,4-5.61,6.07
			c-0.86,0.93-2.36,0.87-3.12-0.15c0-0.01-0.01-0.01-0.01-0.02c-11.33-15.29-22.68-30.57-33.96-45.9c-3.68-5-3.2-11.25,0.88-15.14
			C2857.85,554.95,2859.29,555.07,2860.03,556.06z"/>
		<path class="st9" d="M2993.05,539.27c1.04,1.4,0.57,3.42-1,4.18c-0.01,0-0.02,0.01-0.03,0.01c-2.01,0.97-4.04,1.89-6.06,2.82
			c-1.2,0.55-2.63,0.19-3.42-0.87l-37.91-50.94c-1.14-1.53-0.45-3.71,1.36-4.33c4.63-1.59,10.23-0.11,13.3,3.96
			c9.91,13.15,19.73,26.37,29.58,39.56C2990.25,535.51,2991.63,537.35,2993.05,539.27z"/>
	</g>
</g>
<path class="st9" d="M2945.07,579.85c-30.94,23.03-51.01,50.78-58.92,63.4c-0.98,1.56,0.93,3.32,2.41,2.22l136.1-101.3
	c1.48-1.1,0.34-3.44-1.44-2.94C3008.69,545.31,2976.01,556.82,2945.07,579.85z"/>
<path class="st15" d="M3933.75,373.64c-45.4-0.4-82.36,36.56-81.96,81.96c0.39,44.09,36.42,80.12,80.5,80.5
	c45.4,0.4,82.36-36.56,81.96-81.96C4013.86,410.05,3977.84,374.02,3933.75,373.64z M3931.63,380.71
	c42.11-0.77,76.31,33.44,75.55,75.55c-0.72,39.67-33.1,72.05-72.77,72.77c-42.11,0.77-76.31-33.44-75.55-75.55
	C3859.58,413.81,3891.96,381.43,3931.63,380.71z M3933.02,405.42c-5.85,0-10.6,4.74-10.6,10.6c0,5.85,4.74,10.6,10.6,10.6
	s10.6-4.74,10.6-10.6C3943.61,410.17,3938.87,405.42,3933.02,405.42z M3918.89,440.74v7.06h3.53h3.53v45.92h-3.53h-3.53v7.06h3.53
	h3.53h14.13h3.53h3.53v-7.06h-3.53h-3.53v-52.98h-3.53h-14.13H3918.89z"/>
<g>
</g>
<g>
</g>
<g>
</g>
<g>
</g>
<g>
</g>
<g>
</g>
</svg>
