<?xml version="1.0" encoding="utf-8"?>
<!-- Generator: Adobe Illustrator 28.3.0, SVG Export Plug-In . SVG Version: 6.00 Build 0)  -->
<svg version="1.1" id="katman_1" xmlns="http://www.w3.org/2000/svg" xmlns:xlink="http://www.w3.org/1999/xlink" x="0px" y="0px"
	 viewBox="0 0 4354.02 1417.32" style="enable-background:new 0 0 4354.02 1417.32;" xml:space="preserve">
<style type="text/css">
	.st0{fill:#20303A;}
	.st1{fill:#4B7484;}
	.st2{fill:#FFFFFF;}
	.st3{fill:#314A56;}
	.st4{fill:#2D4E9D;}
	.st5{clip-path:url(#SVGID_00000142897008515573235220000008104345810190941119_);}
	.st6{fill:#F6F6F6;}
	.st7{fill:url(#SVGID_00000176040240327803424550000002061522034221782917_);}
</style>
<g>
	<g>
		<path class="st0" d="M2456.86,1372.85h1840.51c1.81,0,3.28-1.47,3.28-3.28c0-1.81-1.47-3.28-3.28-3.28H2456.86
			c-1.81,0-3.28,1.47-3.28,3.28C2453.59,1371.39,2455.05,1372.85,2456.86,1372.85z"/>
	</g>
	<g>
		<path class="st1" d="M3498.14,976.41c70.68,33.27,193.6,6.42,247.14-29.62c40.39-27.19,52.08-81.95,53.67-127.15
			c3.75-106.71-37.59-209.57-66.44-310.43c-17.65-61.71-81.36-117.11-141.6-136.29c-46.08-14.67-98.54-4.95-138.12,22.83
			c-39.58,27.78-66.17,72.44-74.81,120.01c-15.95,87.8,5.34,194.68,34.37,277.8C3432.42,851.02,3433.71,946.08,3498.14,976.41z"/>
	</g>
	<g>
		<path class="st2" d="M3358.65,872.55l-385.42,434.26c0,0,170.33-1.09,258.51,0l186.88-253.19L3358.65,872.55z"/>
	</g>
	<g>
		<path class="st0" d="M3359.98,866.12l62.29,188.08l-187.89,254.56l-1,1.35l-1.68-0.02c-87.14-1.08-256.74-0.01-258.44,0
			l-7.36,0.05L3359.98,866.12z M3357.33,878.98l-376.76,424.51c33.4-0.19,172.38-0.9,249.53,0.02l184.88-250.48L3357.33,878.98z"/>
	</g>
	<g>
		<g>
			<path class="st3" d="M4043.72,630.16h70.73c7.11,0,12.87-5.76,12.87-12.87v-70.73c0-7.11-5.76-12.87-12.87-12.87h-70.73
				c-7.11,0-12.87,5.76-12.87,12.87v70.73C4030.86,624.4,4036.62,630.16,4043.72,630.16z"/>
		</g>
	</g>
	<g>
		<path class="st2" d="M3675.53,826.58l-73.62-6.36l-180,18.85c-42.54,4.46-76.99,36.55-84.44,78.68l-25.17,142.4
			c-5.25,29.68,4.74,60.02,26.59,80.78l17.75,16.86l3.96,210.98h509.36l-54.87-426.79C3797.11,878.23,3741.53,832.28,3675.53,826.58
			z"/>
	</g>
	<g>
		<polygon class="st0" points="3856.23,1261.98 3869.96,1368.77 3512.32,1368.77 		"/>
	</g>
	<g>
		<path class="st0" d="M3357.39,1372.05h516.3l-55.44-430.96c-18.25-64.67-75.49-112-142.44-117.78l-73.93-6.38l-0.31,0.03
			l-180,18.85c-25.58,2.68-48.81,14.97-65.42,34.63l-20.46,23.05c-1.2,1.35-1.08,3.43,0.28,4.63c1.36,1.2,3.43,1.08,4.63-0.28
			l20.51-23.11c15.57-18.41,37.27-29.9,61.15-32.4l179.69-18.82l73.31,6.33c64.17,5.54,119.04,50.85,136.62,112.8l54.36,422.85
			h-502.42l-3.9-207.76c-0.04-1.81-1.55-3.29-3.34-3.22c-1.81,0.03-3.25,1.53-3.22,3.34L3357.39,1372.05z"/>
	</g>
	<g>
		<path class="st2" d="M3601.91,820.22l85.23,7.36c65.32,5.64,125.4,38.24,165.48,90.14c63.14,81.76,148.79,208.41,155.31,301.09
			c7.26,103.17-244.23,121.53-335.4,131.24c-23.37,2.49-45.67-10.99-53.93-32.99c-7.74-20.62-12.67-50.81-4.84-92.32
			c3.61-19.14,18.19-34.36,37.17-38.73l105.28-24.26c0,0-105.49-108.13-106.81-159.55C3648.07,950.77,3601.91,820.22,3601.91,820.22
			z"/>
	</g>
	<g>
		<path class="st0" d="M3666.95,1353.62c1.96,0,3.94-0.1,5.92-0.31c5.82-0.62,12.3-1.28,19.32-1.99
			c105.83-10.71,326.03-33,319-132.75c-6.46-91.74-88.39-215.33-155.99-302.86c-40.44-52.37-101.6-85.68-167.79-91.4l-85.22-7.36
			c-1.78-0.13-3.39,1.18-3.55,2.98c-0.16,1.8,1.18,3.39,2.98,3.55l85.22,7.36c64.37,5.56,123.84,37.95,163.16,88.87
			c67.04,86.81,148.29,209.21,154.64,299.31c2.8,39.81-35.72,71.28-114.51,93.55c-66.72,18.86-146.1,26.9-198.62,32.21
			c-7.03,0.71-13.52,1.37-19.36,1.99c-22.01,2.35-42.8-10.35-50.51-30.88c-9.62-25.6-11.2-56.07-4.69-90.56
			c3.37-17.88,16.99-32.07,34.68-36.15l105.28-24.26c1.76-0.41,2.86-2.17,2.46-3.93c-0.41-1.76-2.17-2.86-3.93-2.46l-105.28,24.26
			c-20.23,4.66-35.8,20.88-39.65,41.32c-6.73,35.68-5.05,67.34,5,94.08C3623.59,1339.69,3644.22,1353.62,3666.95,1353.62z"/>
	</g>
	<g>
		<g>
			<path class="st0" d="M3297.26,1372.33h290.86c24.46,0,44.29-19.83,44.29-44.29l0,0h-335.15V1372.33z"/>
		</g>
		<g>
			<path class="st0" d="M2945.96,1372.33h495.41l-102.97-272.68c-9.36-24.77-33.07-41.17-59.55-41.17h-401.48
				c-24.13,0-40.81,24.13-32.29,46.71L2945.96,1372.33z"/>
		</g>
		<g>
			<path class="st3" d="M3108.89,1226.29c3.01,15.52,18.03,25.66,33.55,22.64c15.52-3.01,25.66-18.03,22.64-33.55
				c-3.01-15.52-18.03-25.66-33.55-22.64C3116.02,1195.76,3105.88,1210.78,3108.89,1226.29z"/>
		</g>
	</g>
	<g>
		<path class="st2" d="M3649,1228.21l-99.22,5.35l-110.07,58.14c-5.53,2.92-7.75,9.71-5.01,15.34l0,0c2.68,5.48,9.15,7.96,14.8,5.65
			l71.68-29.2c1.22-0.5,2.11,1.18,1.02,1.92l-74.24,50.14c-5.2,3.51-6.51,10.61-2.9,15.75l0,0c3.39,4.82,9.92,6.2,14.96,3.16
			l83.75-50.41c0.84-0.5,1.69,0.63,0.96,1.29l-32.56,29.76c-7.33,6.7-4.08,18.88,5.62,21.03l0,0c3.07,0.68,6.28,0.16,8.97-1.45
			l34.14-20.47l90.08,0.66c29.58,0.17,53.66-23.76,53.66-53.35v0C3704.64,1251.14,3679.33,1226.9,3649,1228.21z"/>
	</g>
	<g>
		<path class="st0" d="M3517.09,1359.32c-5.68-1.26-10.15-5.54-11.65-11.16c-1.5-5.62,0.23-11.56,4.53-15.48l14.29-13.06
			l-62.54,37.65c-6.48,3.9-14.98,2.11-19.34-4.09c-2.25-3.21-3.11-7.1-2.39-10.96c0.71-3.86,2.89-7.19,6.14-9.39l56.81-38.37
			l-52.2,21.27c-7.22,2.94-15.56-0.24-18.98-7.25c-3.54-7.26-0.72-15.9,6.42-19.67l110.7-58.48l99.93-5.38l0.04,0
			c15.55-0.67,30.35,4.9,41.61,15.68c11.26,10.78,17.46,25.31,17.46,40.89c0,15.19-5.93,29.45-16.7,40.16
			c-10.77,10.71-25.11,16.64-40.26,16.47l-89.16-0.65l-33.35,20c-2.44,1.46-5.19,2.22-7.98,2.22
			C3519.35,1359.7,3518.21,1359.57,3517.09,1359.32z M3651.01,1331.58c0.1,0,0.2,0,0.29,0c13.32,0,25.85-5.17,35.3-14.56
			c9.52-9.47,14.77-22.08,14.77-35.51c0-13.78-5.48-26.62-15.43-36.16c-9.95-9.53-23.06-14.47-36.78-13.87l-98.48,5.3l-109.43,57.81
			c-3.99,2.11-5.57,6.94-3.59,11c1.92,3.92,6.59,5.7,10.61,4.06l71.68-29.2c2.12-0.86,4.43-0.02,5.5,1.99
			c1.07,2.01,0.48,4.4-1.41,5.68l-74.24,50.14c-1.78,1.2-2.98,3.03-3.37,5.14c-0.39,2.11,0.08,4.24,1.31,6
			c2.38,3.39,7.04,4.38,10.59,2.24l83.75-50.41c1.81-1.09,4.13-0.63,5.39,1.06c1.26,1.69,1.04,4.04-0.52,5.46l-32.56,29.76
			c-2.52,2.31-3.5,5.65-2.62,8.96c0.88,3.3,3.4,5.71,6.73,6.45c2.25,0.5,4.59,0.12,6.57-1.07l34.93-20.94L3651.01,1331.58z"/>
	</g>
	<g>
		<path class="st2" d="M3610.01,677.27l25.93,131.18c1.76,8.9,9.12,15.61,18.14,16.54l50.56,5.23c2.45,0.25,3.47,3.27,1.67,4.96
			l-167.05,136.55l-78.88-129.38c-2.24-3.12-0.27-7.49,3.55-7.88l28.29-2.83c7.74-0.77,13.64-7.29,13.64-15.07V683.65
			L3610.01,677.27z"/>
	</g>
	<g>
		<path class="st0" d="M3457.65,844.15c-1.67-2.41-1.95-5.43-0.74-8.11c1.23-2.72,3.74-4.53,6.71-4.83l28.29-2.83
			c6.09-0.61,10.69-5.69,10.69-11.81v-136l110.07-6.75l26.49,133.99c1.49,7.53,7.62,13.13,15.26,13.92l50.56,5.23
			c2.43,0.25,4.42,1.84,5.2,4.16c0.78,2.31,0.16,4.79-1.62,6.46l-170.13,139.08L3457.65,844.15z M3653.74,828.25
			c-10.52-1.09-18.97-8.79-21.02-19.17l-25.37-128.36l-98.2,6.02v129.83c0,9.51-7.13,17.39-16.59,18.33l-28.29,2.83
			c-0.89,0.09-1.27,0.73-1.39,1c-0.12,0.27-0.35,0.98,0.17,1.7l77.05,126.37l163.23-133.43L3653.74,828.25z"/>
	</g>
	<g>
		<path class="st2" d="M3616.57,599.1c1.87,19.33,19.06,33.49,38.4,31.62c19.34-1.87,33.49-19.06,31.62-38.4
			c-1.87-19.34-19.06-33.49-38.4-31.62C3628.85,562.57,3614.7,579.76,3616.57,599.1z"/>
	</g>
	<g>
		<path class="st4" d="M3613.3,599.41L3613.3,599.41c-2.04-21.1,13.46-39.93,34.57-41.98c21.11-2.05,39.94,13.46,41.98,34.57
			c2.04,21.1-13.46,39.93-34.57,41.98c-1.25,0.12-2.5,0.18-3.73,0.18C3632,634.16,3615.23,619.26,3613.3,599.41z M3648.5,563.96
			c-17.5,1.69-30.37,17.31-28.67,34.82l0,0c1.7,17.5,17.34,30.37,34.82,28.67c17.5-1.7,30.37-17.31,28.67-34.82
			c-1.6-16.47-15.51-28.82-31.72-28.82C3650.58,563.81,3649.54,563.86,3648.5,563.96z"/>
	</g>
	<g>
		<path class="st2" d="M3641.74,508.12c0,0,57.43,227.58-105.13,257.17c-162.56,29.59-124.35-274.96-124.35-274.96
			S3513.22,348.98,3641.74,508.12z"/>
	</g>
	<g>
		<path class="st0" d="M3515.34,770.58c6.99,0,14.27-0.69,21.86-2.07c66.49-12.1,106.48-59.58,115.63-137.3
			c0.21-1.8-1.07-3.43-2.87-3.64c-1.8-0.21-3.43,1.07-3.64,2.87c-8.91,75.63-46.02,119.92-110.29,131.62
			c-30.81,5.6-56.3-0.89-75.77-19.32c-67.45-63.82-44.97-250.13-44.73-252c0.23-1.8-1.05-3.44-2.84-3.66
			c-1.8-0.22-3.44,1.05-3.66,2.84c-0.98,7.79-23.13,191.48,46.73,257.58C3471.97,762.86,3491.96,770.58,3515.34,770.58z"/>
	</g>
	<g>
		<path class="st0" d="M3483.66,686.23c-1.32-1.03-2.07-2.64-2-4.25l0.66-27.8c0.04-1.78,1.5-3.2,3.28-3.2c0.03,0,0.05,0,0.08,0
			c1.81,0.04,3.24,1.54,3.2,3.35l-0.61,25.92l13.86-4.22c1.72-0.53,3.56,0.45,4.09,2.18c0.53,1.73-0.45,3.56-2.18,4.09l-15.69,4.77
			c-0.49,0.15-1,0.22-1.5,0.22C3485.69,687.31,3484.57,686.94,3483.66,686.23z M3488.21,682.2c0-0.02,0-0.03,0-0.05V682.2z"/>
	</g>
	<g>
		<path class="st0" d="M3424.78,585.39c0.56,0,1.12-0.14,1.64-0.44c15.65-9.07,29.6-0.44,30.19-0.07c1.53,0.97,3.55,0.52,4.52-1
			c0.97-1.52,0.54-3.54-0.98-4.52c-0.72-0.46-17.83-11.2-37.01-0.08c-1.57,0.91-2.1,2.91-1.19,4.48
			C3422.55,584.8,3423.65,585.39,3424.78,585.39z"/>
	</g>
	<g>
		<path class="st0" d="M3567.8,585.21c1.03,0,2.05-0.49,2.68-1.39c1.04-1.48,0.68-3.53-0.8-4.57c-0.7-0.49-17.37-11.9-36.98-1.57
			c-1.6,0.85-2.22,2.83-1.37,4.43c0.84,1.6,2.83,2.21,4.43,1.37c16.12-8.49,30.02,1.04,30.16,1.13
			C3566.49,585.01,3567.15,585.21,3567.8,585.21z"/>
	</g>
	<g>
		<path class="st0" d="M3434.34,610.91c0,4.7,3.18,8.5,7.11,8.5c3.93,0,7.11-3.81,7.11-8.5c0-4.7-3.18-8.5-7.11-8.5
			C3437.53,602.4,3434.34,606.21,3434.34,610.91z"/>
	</g>
	<g>
		<path class="st0" d="M3537.29,613c0,4.7,3.18,8.5,7.11,8.5c3.93,0,7.11-3.81,7.11-8.5c0-4.7-3.18-8.5-7.11-8.5
			C3540.48,604.5,3537.29,608.31,3537.29,613z"/>
	</g>
	<g>
		<path class="st0" d="M3504.96,717.43c0.05,0,0.1,0,0.15,0c9.1-0.42,16.02-3.28,20.57-8.48c6.18-7.08,5.48-15.84,5.45-16.21
			c-0.16-1.8-1.77-3.13-3.56-2.98c-1.8,0.16-3.13,1.74-2.98,3.54c0.01,0.17,0.41,6.5-3.91,11.39c-3.33,3.77-8.67,5.85-15.88,6.19
			c-1.81,0.08-3.21,1.62-3.12,3.43C3501.77,716.06,3503.22,717.43,3504.96,717.43z"/>
	</g>
	<g>
		<path class="st0" d="M3732.35,1144.5c0.83,0,1.65-0.31,2.29-0.93c1.3-1.26,1.32-3.34,0.06-4.64c-11.08-11.35-0.4-23.12,0.06-23.61
			c1.23-1.33,1.16-3.4-0.17-4.63c-1.32-1.23-3.4-1.15-4.63,0.17c-5.37,5.78-12.26,20.04,0.06,32.65
			C3730.64,1144.17,3731.5,1144.5,3732.35,1144.5z"/>
	</g>
	<g>
		<g id="XMLID_68_">
			<path class="st1" d="M4038.11,1368.42h-95.52c-12.84,0-23.25-10.41-23.25-23.25V1221.7c0-3.06,2.48-5.55,5.55-5.55h130.92
				c3.06,0,5.55,2.48,5.55,5.55v123.47C4061.36,1358.01,4050.95,1368.42,4038.11,1368.42z"/>
		</g>
		<g id="XMLID_67_">
			<path class="st0" d="M3916.06,1337.33v-124.46h148.57v124.46c0,18.98-15.39,34.37-34.37,34.37h-79.83
				C3931.45,1371.7,3916.06,1356.31,3916.06,1337.33z M4058.08,1219.43h-135.46v117.9c0,15.36,12.45,27.82,27.82,27.82h79.83
				c15.36,0,27.82-12.45,27.82-27.82V1219.43z"/>
		</g>
		<g>
			<path class="st0" d="M4061.36,1295.57h14.95c13.11,0,23.78-10.67,23.78-23.78v-3.61c0-13.11-10.67-23.78-23.78-23.78h-14.95
				c-1.81,0-3.28,1.47-3.28,3.28c0,1.81,1.47,3.28,3.28,3.28h14.95c9.5,0,17.23,7.73,17.23,17.23v3.61c0,9.5-7.73,17.23-17.23,17.23
				h-14.95c-1.81,0-3.28,1.47-3.28,3.28C4058.08,1294.1,4059.55,1295.57,4061.36,1295.57z"/>
		</g>
		<g>
			<path class="st0" d="M3935.35,1306.81c0,2.86,3.67,4.87,6.56,1.57v-71.5c-2.89-3.29-6.56-1.29-6.56,1.57V1306.81z"/>
		</g>
	</g>
	<g id="XMLID_2_">
		<g id="XMLID_18_">
			<path class="st2" d="M2767.37,1368.77h-95.52c-12.84,0-23.25-10.41-23.25-23.25v-123.47c0-3.06,2.48-5.55,5.55-5.55h130.92
				c3.06,0,5.55,2.48,5.55,5.55v123.47C2790.62,1358.36,2780.21,1368.77,2767.37,1368.77z"/>
		</g>
		<g id="XMLID_17_">
			<path class="st0" d="M2645.33,1317.96v-89.33c0-8.49,6.91-15.4,15.41-15.4h117.77c8.49,0,15.4,6.91,15.4,15.4v89.33
				c0,29.83-24.27,54.09-54.09,54.09h-40.39C2669.59,1372.05,2645.33,1347.78,2645.33,1317.96z M2660.73,1219.78
				c-4.88,0-8.85,3.97-8.85,8.85v89.33c0,26.21,21.32,47.54,47.54,47.54h40.39c26.21,0,47.54-21.33,47.54-47.54v-89.33
				c0-4.88-3.97-8.85-8.85-8.85H2660.73z"/>
		</g>
		<g id="XMLID_7_">
			<path class="st1" d="M2740.8,1120.94c-3.73-18.41-17.38-33.74-33.73-42.98c-16.35-9.24-35.23-13.05-53.92-14.89
				c3.89,13.98-3.78,28.18-8.45,41.92c-5.35,15.74-6.78,33.28-1.18,48.94c3.21,8.98,8.92,17.14,16.39,23.1
				c7.59,6.05,16.32,7.43,25.26,10.51c4.62,1.59,8.9,4.52,13.78,4.73c7.09,0.3,13.1-5.23,16.98-11.18c3.22-4.93,5.6-10.41,9.32-15
				c3.51-4.34,7.6-7.62,10.41-12.62C2741.15,1143.73,2743.02,1131.9,2740.8,1120.94z"/>
		</g>
		<g id="XMLID_6_">
			<path class="st1" d="M2835.19,1139.24c-1.74-14.78-6.91-28.92-9.98-43.48c-3.17-15.03-4.09-30.53-2.72-45.83
				c-17.04,19.86-47.79,19.99-69.79,34.18c-12.91,8.33-22.1,21.49-26.98,35.93c-5.44,16.1-5.81,32.74,0.81,48.46
				c0.29,0.7,0.59,1.39,0.89,2.09c2,4.64,4,9.28,6,13.92c0.99,2.29,2.25,4.83,4.63,5.56c1.07,0.33,2.21,0.23,3.32,0.2
				c8-0.2,15.44,3.26,23.2,4.65c6.98,1.26,14.97,1.18,22.07,1.01c13.83-0.35,28.5-4.02,38.07-14.67
				C2834.68,1170.2,2836.92,1154.02,2835.19,1139.24z"/>
		</g>
		<g id="XMLID_5_">
			<path class="st0" d="M2703.17,1219.78c0.06,0,0.12,0,0.17,0c1.81-0.09,3.2-1.64,3.1-3.44c-2.34-44.98-7.94-91.85-32.79-129.89
				c-0.99-1.52-3.03-1.94-4.54-0.95c-1.52,0.99-1.94,3.02-0.95,4.54c24.01,36.75,29.44,82.59,31.73,126.65
				C2699.99,1218.42,2701.43,1219.78,2703.17,1219.78z"/>
		</g>
		<g id="XMLID_4_">
			<path class="st0" d="M2732.53,1219.78c1.5,0,2.86-1.04,3.2-2.57c9.69-43.87,32.73-85.31,64.89-116.68
				c1.3-1.26,1.32-3.34,0.06-4.64c-1.27-1.3-3.34-1.32-4.64-0.06c-33.06,32.26-56.76,74.86-66.71,119.96
				c-0.39,1.77,0.73,3.52,2.49,3.91C2732.06,1219.75,2732.3,1219.78,2732.53,1219.78z"/>
		</g>
	</g>
	<g>
		<path class="st0" d="M3496.3,604.26c0-30.08,24.47-54.55,54.55-54.55c30.08,0,54.55,24.47,54.55,54.55
			c0,30.08-24.47,54.55-54.55,54.55C3520.77,658.81,3496.3,634.34,3496.3,604.26z M3502.86,604.26c0,26.46,21.53,47.99,47.99,47.99
			s47.99-21.53,47.99-47.99c0-26.46-21.53-47.99-47.99-47.99S3502.86,577.8,3502.86,604.26z"/>
	</g>
	<g>
		<path class="st0" d="M3595.62,582.58c0.29,0,0.58-0.04,0.88-0.12l67.67-18.77c1.74-0.48,2.77-2.29,2.28-4.03
			c-0.48-1.74-2.28-2.77-4.04-2.28l-67.67,18.77c-1.74,0.48-2.77,2.29-2.28,4.03C3592.87,581.63,3594.19,582.58,3595.62,582.58z"/>
	</g>
	<g>
		<path class="st1" d="M3478.56,475.29c-13.7,49.29-55.14,89.77-104.6,102.18c-3.51-39.01,5.26-78.6,21.92-114.03
			c8.01-17.04,18.06-33.5,32.29-45.79c23.05-19.9,54.82-26.82,85.22-26.63c43.68,0.27,87.19,14.04,123.12,38.99
			c30.58,21.24,51.78,49.16,66.92,82.89c2.29,5.11,6.32,9.08,9.01,13.95c2.94,5.31,3.45,11.35,2.39,17.27
			c-1.3,7.29-4.43,13.98-11.96,16.07c-7.5,2.08-15.96,1.42-23.67,2.43c-10.15,1.33-20.34,1.98-30.58,1.81
			c-40.97-0.67-81.69-13.51-115.85-36.19C3511.61,514.19,3492.96,496.28,3478.56,475.29z"/>
	</g>
	<g>
		<path class="st0" d="M3387.03,604.26c0-30.08,24.47-54.55,54.55-54.55c30.08,0,54.55,24.47,54.55,54.55
			c0,30.08-24.47,54.55-54.55,54.55C3411.5,658.81,3387.03,634.34,3387.03,604.26z M3393.58,604.26c0,26.46,21.53,47.99,47.99,47.99
			s47.99-21.53,47.99-47.99c0-26.46-21.53-47.99-47.99-47.99S3393.58,577.8,3393.58,604.26z"/>
	</g>
	<g>
		<ellipse class="st3" cx="3670.34" cy="603.31" rx="50.86" ry="65.84"/>
	</g>
	<g>
		<ellipse class="st0" cx="3681.23" cy="603.88" rx="39.96" ry="58.67"/>
	</g>
	<g>
		<g>
			<path class="st0" d="M3679.98,607.14c6.04,0,10.93-4.89,10.93-10.93V512.9c0-35.01-14.12-68.17-39.75-93.37
				c-27.32-26.85-65.65-41.84-104.92-41.19l-74.67,0.88c-46.28,0.55-83.93,36.77-83.93,80.74v21.2l21.85-21.2
				c0-32.06,27.96-58.48,62.34-58.89l74.73-0.88c33.53-0.61,66.12,12.15,89.29,34.92c21.42,21.06,33.22,48.68,33.22,77.78v83.31
				C3669.05,602.24,3673.94,607.14,3679.98,607.14z"/>
		</g>
	</g>
	<g>
		<path class="st0" d="M3567.35,723.16h24.98c19.5,0,37.66-10.5,47.39-27.4l31.41-54.56c1.81-3.14,0.73-7.15-2.41-8.95
			c-3.14-1.81-7.15-0.73-8.95,2.41l-31.41,54.56c-7.4,12.85-21.2,20.83-36.03,20.83h-24.98c-3.62,0-6.56,2.94-6.56,6.56
			C3560.8,720.23,3563.73,723.16,3567.35,723.16z"/>
	</g>
	<g>
		<path class="st3" d="M3554.43,730.13h25.32c1.98,0,3.58-1.6,3.58-3.58v-19.37c0-1.98-1.6-3.58-3.58-3.58h-25.32
			c-1.98,0-3.58,1.6-3.58,3.58v19.37C3550.85,728.52,3552.45,730.13,3554.43,730.13z"/>
	</g>
	<g>
		<g>
			<path class="st0" d="M2721.48,457.57h488.16c27.07,0,49.02,21.95,49.02,49.02v206.86c0,27.07-21.95,49.02-49.02,49.02h-43.07
				v62.67c0,4.81-5.48,7.58-9.35,4.72l-91.12-67.39h-344.62c-27.07,0-49.02-21.95-49.02-49.02V506.59
				C2672.46,479.52,2694.41,457.57,2721.48,457.57z"/>
		</g>
		<g>
			<circle class="st1" cx="3134.42" cy="608.39" r="76.5"/>
		</g>
		<g>
			<path class="st2" d="M2738.08,557.19h286.63c2.23,0,4.04-1.81,4.04-4.04v-25.39c0-2.23-1.81-4.04-4.04-4.04h-286.63
				c-2.23,0-4.04,1.81-4.04,4.04v25.39C2734.04,555.38,2735.85,557.19,2738.08,557.19z"/>
		</g>
		<g>
			<path class="st2" d="M2738.08,625.13h286.63c2.23,0,4.04-1.81,4.04-4.04v-25.39c0-2.23-1.81-4.04-4.04-4.04h-286.63
				c-2.23,0-4.04,1.81-4.04,4.04v25.39C2734.04,623.32,2735.85,625.13,2738.08,625.13z"/>
		</g>
		<g>
			<path class="st2" d="M2891.06,693.07h133.64c2.23,0,4.04-1.81,4.04-4.04v-25.39c0-2.23-1.81-4.04-4.04-4.04h-133.64
				c-2.23,0-4.04,1.81-4.04,4.04v25.39C2887.02,691.26,2888.83,693.07,2891.06,693.07z"/>
		</g>
	</g>
	<g>
		<g>
			<path class="st0" d="M3814.3,671.23h86.74c7.11,0,12.87-5.76,12.87-12.87v-86.74c0-7.11-5.76-12.87-12.87-12.87h-86.74
				c-7.11,0-12.87,5.76-12.87,12.87v86.74C3801.43,665.47,3807.19,671.23,3814.3,671.23z"/>
		</g>
		<g>
			<g>
				<path class="st2" d="M3853.04,626.84c0-2.1-0.29-3.77-0.86-5c-0.57-1.23-1.67-2.38-3.29-3.44c-2.92-1.52-5.32-3.61-7.21-6.28
					c-1.89-2.66-2.83-5.58-2.83-8.75c0-5.17,1.73-9.28,5.19-12.32c3.46-3.04,8.21-4.56,14.25-4.56c5.63,0,10.16,1.33,13.6,3.97
					c3.44,2.65,5.12,6.61,5.04,11.89l-0.07,0.23h-12.52c-0.05-2.05-0.65-3.6-1.79-4.64c-1.14-1.04-2.56-1.56-4.26-1.56
					c-2.11,0-3.73,0.63-4.87,1.9c-1.14,1.27-1.71,2.97-1.71,5.1c0,2.05,0.49,3.87,1.47,5.44c0.98,1.57,2.31,2.89,4.01,3.96
					c3.3,2.31,5.57,4.35,6.81,6.12c1.24,1.77,1.88,4.43,1.9,7.95H3853.04z M3853.08,632.4h12.78v10.27h-12.78V632.4z"/>
			</g>
		</g>
	</g>
	<g>
		<g>
			<path class="st3" d="M3924.48,889.21h70.73c7.11,0,12.87-5.76,12.87-12.87v-70.73c0-7.11-5.76-12.87-12.87-12.87h-70.73
				c-7.11,0-12.87,5.76-12.87,12.87v70.73C3911.61,883.45,3917.38,889.21,3924.48,889.21z"/>
		</g>
		<g>
			<g>
				<path class="st2" d="M3953.4,813.29h12.89v35.75h-12.89V813.29z M3953.4,857.91h12.89v10.76h-12.89V857.91z"/>
			</g>
		</g>
	</g>
</g>
<g>
	<g>
		<defs>
			<polygon id="SVGID_1_" points="4046.32,549.06 4111.96,549.06 4111.86,614.8 4046.22,614.8 			"/>
		</defs>
		<clipPath id="SVGID_00000149356497098890317660000010145121835845597327_">
			<use xlink:href="#SVGID_1_"  style="overflow:visible;"/>
		</clipPath>
		<g style="clip-path:url(#SVGID_00000149356497098890317660000010145121835845597327_);">
			<g>
				<path class="st6" d="M4081.35,553.51v40.32c0,0.2-0.16,0.37-0.37,0.37c-1.65,0.03-3.27-0.03-4.85,0.12
					c-0.16,0.01-0.31-0.07-0.37-0.21c-0.13-0.28-0.07-0.56-0.07-0.82c-0.01-5.84-0.01-11.68,0-17.52
					c0.01-5.62,0.04-11.24,0.08-16.86c0.02-3.22,1.99-5.44,5.17-5.77C4081.16,553.11,4081.35,553.29,4081.35,553.51z"/>
				<path class="st6" d="M4070.83,564.54v29.48c0,0.32-0.24,0.59-0.56,0.62c-1.1,0.11-2.2,0.23-3.3,0.34
					c-0.38,0.04-0.71-0.27-0.69-0.66c0.01-0.12,0.02-0.25,0.02-0.37c0.01-8.44,0.07-16.87,0.04-25.31
					c-0.01-2.37,1.57-4.18,3.71-4.71C4070.45,563.83,4070.83,564.13,4070.83,564.54z"/>
				<path class="st6" d="M4086.28,564.11c0-0.16,0.14-0.29,0.3-0.26c2.18,0.31,3.88,2.08,3.89,4.32c0.06,8.86,0.03,17.73,0.03,26.59
					l0,0c0,0.15-0.13,0.27-0.28,0.25c-1.22-0.13-2.43-0.26-3.71-0.4c-0.14-0.01-0.24-0.13-0.24-0.26V564.11z"/>
				<path class="st6" d="M4062.07,574.55v20.5c0,0.31-0.22,0.58-0.53,0.64c-0.83,0.16-1.68,0.32-2.56,0.48
					c-0.39,0.07-0.76-0.22-0.76-0.62c0,0,0,0,0-0.01c0.01-5.99,0.02-11.98,0.05-17.97c0.01-1.95,1.3-3.44,3.07-3.66
					C4061.73,573.86,4062.07,574.16,4062.07,574.55z"/>
				<path class="st6" d="M4098.8,595.31c0,0.55-0.5,0.97-1.04,0.87c0,0-0.01,0-0.01,0c-0.69-0.13-1.38-0.28-2.06-0.43
					c-0.41-0.09-0.7-0.45-0.7-0.86V574.9c0-0.6,0.58-1.02,1.16-0.84c1.47,0.47,2.6,1.9,2.61,3.5c0.03,5.18,0.03,10.36,0.03,15.55
					C4098.8,593.83,4098.8,594.56,4098.8,595.31z"/>
			</g>
		</g>
	</g>
	<path class="st6" d="M4079.07,596.54c-12.14,0-22.42,3.23-26.79,4.94c-0.54,0.21-0.39,1.01,0.19,1.01h53.39
		c0.58,0,0.73-0.81,0.19-1.01C4101.62,599.77,4091.2,596.54,4079.07,596.54z"/>
</g>
<linearGradient id="SVGID_00000132793397904666603610000013262654035832646531_" gradientUnits="userSpaceOnUse" x1="-370.6893" y1="536.7021" x2="2216.7151" y2="536.7021">
	<stop  offset="0" style="stop-color:#20303A"/>
	<stop  offset="0.0437" style="stop-color:#22343F"/>
	<stop  offset="0.2913" style="stop-color:#2E4754"/>
	<stop  offset="0.5021" style="stop-color:#355463"/>
	<stop  offset="0.6656" style="stop-color:#385C6C"/>
	<stop  offset="0.7619" style="stop-color:#395E6F"/>
</linearGradient>
<path style="fill:url(#SVGID_00000132793397904666603610000013262654035832646531_);" d="M1535.28,1388.81
	c120.95-6.55,255.95-83.82,300.26-194.04c52.01-129.41-57.92-220.43,0-306.38c81-120.21,304.62-9.78,407.49-128.68
	c93.69-108.29,53.01-367.27-79.66-447.32c-163.44-98.61-341.25,149.9-585.19,70.47c-163.98-53.4-148-186.65-395.23-407.49
	c-101.18-90.38-254.1-226.96-459.57-278.81C435.75-376.01,67-270.87-159.02-0.13c-264.96,317.38-273.52,790.95-68.43,1068.26
	c96.13,129.98,225.84,198.77,279.83,226.72c57.41,29.72,286.28,144.28,553.53,89.87c261.66-53.27,275.71-210.59,461.62-202.21
	C1279.86,1192.08,1325.45,1400.17,1535.28,1388.81z"/>
<g>
</g>
<g>
</g>
<g>
</g>
<g>
</g>
<g>
</g>
<g>
</g>
</svg>
