<?xml version="1.0" encoding="utf-8"?>
<!-- Generator: Adobe Illustrator 28.3.0, SVG Export Plug-In . SVG Version: 6.00 Build 0)  -->
<svg version="1.1" id="katman_1" xmlns="http://www.w3.org/2000/svg" xmlns:xlink="http://www.w3.org/1999/xlink" x="0px" y="0px"
	 viewBox="0 0 1417.32 1417.32" enable-background="new 0 0 1417.32 1417.32" xml:space="preserve">
<g>
	<defs>
		<polygon id="SVGID_1_" points="2.07,0 1417.32,0 1415.25,1417.32 0,1417.32 		"/>
	</defs>
	<clipPath id="SVGID_00000180361361333343547080000000979367561919370924_">
		<use xlink:href="#SVGID_1_"  overflow="visible"/>
	</clipPath>
	<g clip-path="url(#SVGID_00000180361361333343547080000000979367561919370924_)">
		<g>
			<path fill="#F6F6F6" d="M757.51,95.86v869.35c0,4.39-3.52,7.96-7.91,8.04c-35.48,0.68-70.51-0.56-104.5,2.55
				c-3.36,0.31-6.63-1.44-8.02-4.5c-2.79-6.12-1.43-12.11-1.44-17.7c-0.14-125.93-0.31-251.87-0.03-377.8
				c0.27-121.19,0.86-242.38,1.66-363.57c0.46-69.49,42.99-117.22,111.38-124.38C753.38,87.36,757.51,91.09,757.51,95.86z"/>
			<path fill="#F6F6F6" d="M530.62,333.65v635.69c0,6.88-5.21,12.64-12.05,13.35c-23.8,2.45-47.41,4.89-71.08,7.33
				c-8.24,0.85-15.3-5.9-14.77-14.17c0.17-2.68,0.48-5.36,0.48-7.94c0.3-181.91,1.61-363.82,0.82-545.73
				c-0.22-51.09,33.8-90.12,80.05-101.59C522.5,318.51,530.62,324.97,530.62,333.65z"/>
			<path fill="#F6F6F6" d="M863.74,324.42c0-3.49,3.1-6.17,6.55-5.67c46.93,6.79,83.66,44.87,83.97,93.13
				c1.22,191.12,0.6,382.26,0.6,573.39l0,0c-0.02,3.23-2.83,5.74-6.04,5.39c-26.29-2.84-52.47-5.68-79.95-8.65
				c-2.91-0.31-5.12-2.77-5.12-5.7V324.42z"/>
			<path fill="#F6F6F6" d="M341.63,549.59v441.97c0,6.71-4.77,12.46-11.36,13.7c-17.92,3.37-36.29,6.82-55.12,10.35
				c-8.45,1.59-16.38-4.84-16.39-13.44c0-0.05,0-0.09,0-0.14c0.28-129.14,0.39-258.28,1.1-387.42
				c0.23-42.15,28.13-74.18,66.14-78.87C334.31,534.72,341.63,541.23,341.63,549.59z"/>
			<path fill="#F6F6F6" d="M1133.72,997.08c-0.01,11.84-10.73,20.93-22.37,18.73c-0.06-0.01-0.13-0.02-0.19-0.04
				c-14.85-2.88-29.65-6.04-44.43-9.19c-8.78-1.87-15.06-9.63-15.06-18.6V557.13c0-12.94,12.62-22.02,24.94-18.08
				c31.6,10.1,56.16,40.86,56.36,75.44c0.66,111.73,0.55,223.47,0.74,335.2C1133.73,965.29,1133.72,980.89,1133.72,997.08z"/>
		</g>
		<g>
			<rect x="0.95" y="1225.96" fill="none" width="1415.43" height="149.52"/>
			<path fill="#F6F6F6" d="M97.52,1281.8c0,9.71-2.33,19.02-6.98,27.92c-4.66,8.91-11,15.61-19.04,20.12
				c-8.53,4.8-20.58,7.21-36.16,7.21H10.21v-111.08h24.7c20.19,0,35.08,4.3,44.69,12.91c5.68,5.1,10.09,11.51,13.23,19.21
				C95.96,1265.79,97.52,1273.69,97.52,1281.8z M77.39,1281.8c0-5.1-1.01-10.11-3.01-15.01c-2.01-4.9-4.88-9.01-8.6-12.31
				c-3.14-2.9-6.89-5.05-11.25-6.45c-4.36-1.4-8.11-2.23-11.25-2.48c-3.14-0.25-7.45-0.38-12.94-0.38v72.66h4.26
				c11.37,0,20.19-1.8,26.46-5.4c5.09-2.9,9.09-7.15,11.98-12.76C75.94,1294.06,77.39,1288.11,77.39,1281.8z"/>
			<path fill="#F6F6F6" d="M203.36,1337.04h-58.51v-111.08h58.51v19.21H165v27.17h36.75v19.21H165v26.27h38.37V1337.04z"/>
			<path fill="#F6F6F6" d="M356.98,1257.63h-22.93c-8.23-9.81-17.93-14.71-29.11-14.71c-9.8,0-18.15,3.88-25.06,11.63
				c-6.91,7.76-10.36,16.69-10.36,26.8c0,10.21,3.55,19.21,10.66,27.02c7.1,7.81,15.6,11.71,25.5,11.71
				c9.9,0,19.01-4.65,27.34-13.96h23.37c-4.12,10.01-10.85,18.04-20.21,24.09c-9.36,6.06-19.38,9.08-30.06,9.08
				c-15.58,0-28.94-5.73-40.06-17.19c-11.12-11.46-16.68-25.14-16.68-41.06c0-15.71,5.54-29.2,16.61-40.46
				c11.07-11.26,24.3-16.89,39.69-16.89c11.17,0,21.39,3.05,30.65,9.16C345.58,1238.97,352.47,1247.23,356.98,1257.63z"/>
			<path fill="#F6F6F6" d="M509.71,1281.8c0,15.91-5.56,29.47-16.68,40.68c-11.12,11.21-24.53,16.81-40.2,16.81
				c-15.68,0-29.08-5.6-40.2-16.81c-11.12-11.21-16.68-24.77-16.68-40.68c0-16.11,5.54-29.82,16.61-41.13
				c11.07-11.31,24.5-16.96,40.28-16.96c15.78,0,29.2,5.66,40.28,16.96C504.17,1251.98,509.71,1265.69,509.71,1281.8z
				 M489.57,1281.65c0-10.61-3.55-19.71-10.66-27.32c-7.11-7.6-15.8-11.41-26.09-11.41s-18.99,3.8-26.09,11.41
				c-7.11,7.61-10.66,16.71-10.66,27.32c0,10.41,3.58,19.42,10.73,27.02c7.15,7.61,15.83,11.41,26.02,11.41
				c10.19,0,18.86-3.8,26.02-11.41C485.99,1301.07,489.57,1292.06,489.57,1281.65z"/>
			<path fill="#F6F6F6" d="M669.64,1337.04H649.5v-83.31h-0.44l-27.78,83.31h-17.05l-27.93-83.31H576v83.31h-20.14v-111.08h27.93
				l28.96,84.06h0.29l28.66-84.06h27.93V1337.04z"/>
			<path fill="#F6F6F6" d="M818.55,1337.04h-22.2l-11.61-28.67h-38.96l-11.61,28.67h-22.2l45.28-111.08h15.73L818.55,1337.04z
				 M777.54,1289.01l-12.35-34.08h-0.29l-12.35,34.08H777.54z"/>
			<path fill="#F6F6F6" d="M919.25,1337.04h-58.51v-111.08h58.51v19.21h-38.37v27.17h36.75v19.21h-36.75v26.27h38.37V1337.04z"/>
			<path fill="#F6F6F6" d="M1032.73,1303.87c0,10.41-3.33,18.92-10,25.52c-6.67,6.61-15.09,9.91-25.28,9.91
				c-9.7,0-17.93-3.23-24.7-9.68s-10.34-14.58-10.73-24.39h21.17c0.39,4.41,1.84,7.98,4.34,10.73c2.5,2.75,5.85,4.13,10.07,4.13
				c4.02,0,7.52-1.3,10.51-3.9c2.99-2.6,4.48-5.95,4.48-10.06c0-1.7-0.2-3.28-0.59-4.73c-0.39-1.45-1.05-2.75-1.99-3.9
				c-0.93-1.15-1.76-2.1-2.5-2.85c-0.74-0.75-1.91-1.52-3.53-2.33c-1.62-0.8-2.87-1.37-3.75-1.73c-0.88-0.35-2.33-0.9-4.34-1.65
				c-2.01-0.75-3.36-1.28-4.04-1.58c-5-2-8.28-3.4-9.85-4.2c-10.68-5.7-16.02-14.96-16.02-27.77c0-9.11,3.06-16.66,9.19-22.67
				c6.12-6,13.69-9.01,22.71-9.01c8.82,0,16.27,3.03,22.34,9.08c6.08,6.06,9.36,13.59,9.85,22.59h-20.58
				c-0.69-8.31-4.75-12.46-12.2-12.46c-3.23,0-5.91,1.05-8.01,3.15c-2.11,2.1-3.16,4.8-3.16,8.11c0,1.3,0.17,2.5,0.51,3.6
				c0.34,1.1,0.71,2.05,1.1,2.85c0.39,0.8,1.08,1.6,2.06,2.4c0.98,0.8,1.74,1.4,2.28,1.8c0.54,0.4,1.52,0.9,2.94,1.5
				c1.42,0.6,2.38,1,2.87,1.2c0.49,0.2,1.59,0.58,3.31,1.13c1.71,0.55,2.72,0.88,3.01,0.98c9.11,3.1,16.14,7.31,21.09,12.61
				C1030.25,1287.56,1032.73,1294.76,1032.73,1303.87z"/>
			<path fill="#F6F6F6" d="M1130.19,1245.17h-20.29v91.87h-20.14v-91.87h-20.14v-19.21h60.56V1245.17z"/>
			<path fill="#F6F6F6" d="M1245.58,1337.04h-24.4l-28.81-42.48h-0.29v42.48h-20.14v-111.08h33.37c11.56,0,20.38,2.5,26.46,7.51
				c8.53,7.01,12.79,15.96,12.79,26.87c0,4.8-0.93,9.63-2.79,14.49c-1.86,4.86-4.41,8.88-7.64,12.08
				c-4.41,4.2-10.44,7.26-18.08,9.16L1245.58,1337.04z M1224.41,1261.99c0-5.4-1.86-9.56-5.59-12.46c-3.73-2.9-8.33-4.35-13.82-4.35
				h-12.94v33.93h12.94c5.68,0,10.34-1.45,13.96-4.35C1222.6,1271.84,1224.41,1267.59,1224.41,1261.99z"/>
			<path fill="#F6F6F6" d="M1402.87,1281.8c0,15.91-5.56,29.47-16.68,40.68c-11.12,11.21-24.53,16.81-40.21,16.81
				c-15.68,0-29.08-5.6-40.2-16.81c-11.12-11.21-16.68-24.77-16.68-40.68c0-16.11,5.54-29.82,16.61-41.13
				c11.07-11.31,24.5-16.96,40.28-16.96c15.78,0,29.2,5.66,40.28,16.96C1397.33,1251.98,1402.87,1265.69,1402.87,1281.8z
				 M1382.73,1281.65c0-10.61-3.55-19.71-10.66-27.32c-7.11-7.6-15.8-11.41-26.09-11.41c-10.29,0-18.99,3.8-26.09,11.41
				c-7.11,7.61-10.66,16.71-10.66,27.32c0,10.41,3.58,19.42,10.73,27.02c7.15,7.61,15.83,11.41,26.02,11.41
				c10.19,0,18.86-3.8,26.02-11.41C1379.15,1301.07,1382.73,1292.06,1382.73,1281.65z"/>
		</g>
	</g>
</g>
<path fill="#F6F6F6" d="M708.17,1023.63c-261.74,0-483.36,69.73-577.55,106.4c-11.65,4.54-8.38,21.83,4.12,21.83h1151.21
	c12.53,0,15.76-17.37,4.06-21.86C1194.35,1093.34,969.86,1023.63,708.17,1023.63z"/>
<g>
</g>
<g>
</g>
<g>
</g>
<g>
</g>
<g>
</g>
<g>
</g>
</svg>
