<?xml version="1.0" encoding="utf-8"?>
<!-- Generator: Adobe Illustrator 28.3.0, SVG Export Plug-In . SVG Version: 6.00 Build 0)  -->
<svg version="1.1" id="katman_1" xmlns="http://www.w3.org/2000/svg" xmlns:xlink="http://www.w3.org/1999/xlink" x="0px" y="0px"
	 viewBox="0 0 4354 1417.3" style="enable-background:new 0 0 4354 1417.3;" xml:space="preserve">
<style type="text/css">
	.st0{fill:#20303A;}
	.st1{fill:#4B7484;}
	.st2{fill:#FFFFFF;}
	.st3{fill:#314A56;}
	.st4{fill:#2D4E9D;}
	.st5{clip-path:url(#SVGID_00000026156309855931922350000003241411381527178897_);}
	.st6{fill:#F6F6F6;}
	.st7{fill:url(#SVGID_00000137844472649727331540000006605246295350248351_);}
	.st8{fill:#253E4A;}
	.st9{fill:#293F4C;}
	.st10{fill:#172D3A;}
	.st11{fill:#23393E;}
	.st12{fill:#35585E;}
	.st13{fill:#212F3B;}
	.st14{clip-path:url(#SVGID_00000082369203324992648020000013123231713472766115_);}
	.st15{fill:#9EC1CC;}
	.st16{fill:url(#SVGID_00000147196349330883127760000013122928845460125363_);}
	.st17{clip-path:url(#SVGID_00000044158443895650402810000008781658181296117123_);}
	.st18{fill:#E5E5E5;}
	.st19{fill:url(#SVGID_00000118361089200305004760000011853215941239271561_);}
	.st20{fill:url(#SVGID_00000066480154771657605210000003028167950990610854_);}
	.st21{fill:url(#SVGID_00000080175731455717216110000008061718283523402428_);}
	.st22{fill:#00171E;}
	.st23{fill:#0D242D;}
	.st24{fill:#203641;}
	.st25{fill:#2D747F;}
	.st26{fill:#122D38;}
	.st27{fill:#2E617B;}
	.st28{opacity:0.97;}
	.st29{fill:none;}
	.st30{fill:#184456;}
</style>
<g>
	<g>
		<path class="st0" d="M2528.3,2647.4h1840.5c1.8,0,3.3-1.5,3.3-3.3s-1.5-3.3-3.3-3.3H2528.3c-1.8,0-3.3,1.5-3.3,3.3
			S2526.5,2647.4,2528.3,2647.4z"/>
	</g>
	<g>
		<path class="st1" d="M3569.6,2251c70.7,33.3,193.6,6.4,247.1-29.6c40.4-27.2,52.1-81.9,53.7-127.1
			c3.8-106.7-37.6-209.6-66.4-310.4c-17.6-61.7-81.4-117.1-141.6-136.3c-46.1-14.7-98.5-4.9-138.1,22.8
			c-39.6,27.8-66.2,72.4-74.8,120c-15.9,87.8,5.3,194.7,34.4,277.8C3503.9,2125.6,3505.2,2220.6,3569.6,2251z"/>
	</g>
	<g>
		<path class="st2" d="M3430.1,2147.1l-385.4,434.3c0,0,170.3-1.1,258.5,0l186.9-253.2L3430.1,2147.1z"/>
	</g>
	<g>
		<path class="st0" d="M3431.4,2140.7l62.3,188.1l-187.9,254.6l-1,1.4l-1.7,0c-87.1-1.1-256.7,0-258.4,0l-7.4,0.1L3431.4,2140.7z
			 M3428.8,2153.5L3052,2578.1c33.4-0.2,172.4-0.9,249.5,0l184.9-250.5L3428.8,2153.5z"/>
	</g>
	<g>
		<g>
			<path class="st3" d="M4115.2,1904.7h70.7c7.1,0,12.9-5.8,12.9-12.9v-70.7c0-7.1-5.8-12.9-12.9-12.9h-70.7
				c-7.1,0-12.9,5.8-12.9,12.9v70.7C4102.3,1899,4108.1,1904.7,4115.2,1904.7z"/>
		</g>
	</g>
	<g>
		<path class="st2" d="M3747,2101.1l-73.6-6.4l-180,18.9c-42.5,4.4-77,36.6-84.4,78.7l-25.2,142.4c-5.2,29.7,4.7,60,26.6,80.8
			l17.8,16.9l4,211h509.4l-54.9-426.8C3868.6,2152.8,3813,2106.8,3747,2101.1z"/>
	</g>
	<g>
		<polygon class="st0" points="3927.7,2536.5 3941.4,2643.3 3583.8,2643.3 		"/>
	</g>
	<g>
		<path class="st0" d="M3428.8,2646.6h516.3l-55.4-431c-18.2-64.7-75.5-112-142.4-117.8l-73.9-6.4l-0.3,0l-180,18.9
			c-25.6,2.7-48.8,15-65.4,34.6l-20.5,23.1c-1.2,1.4-1.1,3.4,0.3,4.6s3.4,1.1,4.6-0.3l20.5-23.1c15.6-18.4,37.3-29.9,61.1-32.4
			l179.7-18.8l73.3,6.3c64.2,5.5,119,50.9,136.6,112.8l54.4,422.9h-502.4l-3.9-207.8c0-1.8-1.6-3.3-3.3-3.2c-1.8,0-3.2,1.5-3.2,3.3
			L3428.8,2646.6z"/>
	</g>
	<g>
		<path class="st2" d="M3673.4,2094.8l85.2,7.4c65.3,5.6,125.4,38.2,165.5,90.1c63.1,81.8,148.8,208.4,155.3,301.1
			c7.3,103.2-244.2,121.5-335.4,131.2c-23.4,2.5-45.7-11-53.9-33c-7.7-20.6-12.7-50.8-4.8-92.3c3.6-19.1,18.2-34.4,37.2-38.7
			l105.3-24.3c0,0-105.5-108.1-106.8-159.6C3719.5,2225.3,3673.4,2094.8,3673.4,2094.8z"/>
	</g>
	<g>
		<path class="st0" d="M3738.4,2628.2c2,0,3.9-0.1,5.9-0.3c5.8-0.6,12.3-1.3,19.3-2c105.8-10.7,326-33,319-132.8
			c-6.5-91.7-88.4-215.3-156-302.9c-40.4-52.4-101.6-85.7-167.8-91.4l-85.2-7.4c-1.8-0.1-3.4,1.2-3.6,3c-0.2,1.8,1.2,3.4,3,3.6
			l85.2,7.4c64.4,5.6,123.8,37.9,163.2,88.9c67,86.8,148.3,209.2,154.6,299.3c2.8,39.8-35.7,71.3-114.5,93.6
			c-66.7,18.9-146.1,26.9-198.6,32.2c-7,0.7-13.5,1.4-19.4,2c-22,2.4-42.8-10.4-50.5-30.9c-9.6-25.6-11.2-56.1-4.7-90.6
			c3.4-17.9,17-32.1,34.7-36.1l105.3-24.3c1.8-0.4,2.9-2.2,2.5-3.9c-0.4-1.8-2.2-2.9-3.9-2.5l-105.3,24.3
			c-20.2,4.7-35.8,20.9-39.6,41.3c-6.7,35.7-5.1,67.3,5,94.1C3695,2614.2,3715.7,2628.2,3738.4,2628.2z"/>
	</g>
	<g>
		<g>
			<path class="st0" d="M3368.7,2646.9h290.9c24.5,0,44.3-19.8,44.3-44.3l0,0h-335.1V2646.9z"/>
		</g>
		<g>
			<path class="st0" d="M3017.4,2646.9h495.4l-103-272.7c-9.4-24.8-33.1-41.2-59.6-41.2h-401.5c-24.1,0-40.8,24.1-32.3,46.7
				L3017.4,2646.9z"/>
		</g>
		<g>
			<path class="st3" d="M3180.3,2500.9c3,15.5,18,25.7,33.6,22.6c15.5-3,25.7-18,22.6-33.6c-3-15.5-18-25.7-33.6-22.6
				C3187.5,2470.3,3177.3,2485.3,3180.3,2500.9z"/>
		</g>
	</g>
	<g>
		<path class="st2" d="M3720.4,2502.8l-99.2,5.4l-110.1,58.1c-5.5,2.9-7.8,9.7-5,15.3l0,0c2.7,5.5,9.1,8,14.8,5.6l71.7-29.2
			c1.2-0.5,2.1,1.2,1,1.9l-74.2,50.1c-5.2,3.5-6.5,10.6-2.9,15.8l0,0c3.4,4.8,9.9,6.2,15,3.2l83.8-50.4c0.8-0.5,1.7,0.6,1,1.3
			l-32.6,29.8c-7.3,6.7-4.1,18.9,5.6,21l0,0c3.1,0.7,6.3,0.2,9-1.4l34.1-20.5l90.1,0.7c29.6,0.2,53.7-23.8,53.7-53.4l0,0
			C3776.1,2525.7,3750.8,2501.5,3720.4,2502.8z"/>
	</g>
	<g>
		<path class="st0" d="M3588.5,2633.9c-5.7-1.3-10.1-5.5-11.6-11.2c-1.5-5.6,0.2-11.6,4.5-15.5l14.3-13.1l-62.5,37.6
			c-6.5,3.9-15,2.1-19.3-4.1c-2.2-3.2-3.1-7.1-2.4-11c0.7-3.9,2.9-7.2,6.1-9.4l56.8-38.4l-52.2,21.3c-7.2,2.9-15.6-0.2-19-7.2
			c-3.5-7.3-0.7-15.9,6.4-19.7l110.7-58.5l99.9-5.4h0c15.6-0.7,30.4,4.9,41.6,15.7s17.5,25.3,17.5,40.9c0,15.2-5.9,29.4-16.7,40.2
			s-25.1,16.6-40.3,16.5l-89.2-0.6l-33.4,20c-2.4,1.5-5.2,2.2-8,2.2C3590.8,2634.2,3589.7,2634.1,3588.5,2633.9z M3722.5,2606.1
			c0.1,0,0.2,0,0.3,0c13.3,0,25.9-5.2,35.3-14.6c9.5-9.5,14.8-22.1,14.8-35.5c0-13.8-5.5-26.6-15.4-36.2
			c-9.9-9.5-23.1-14.5-36.8-13.9l-98.5,5.3l-109.4,57.8c-4,2.1-5.6,6.9-3.6,11c1.9,3.9,6.6,5.7,10.6,4.1l71.7-29.2
			c2.1-0.9,4.4,0,5.5,2s0.5,4.4-1.4,5.7l-74.2,50.1c-1.8,1.2-3,3-3.4,5.1c-0.4,2.1,0.1,4.2,1.3,6c2.4,3.4,7,4.4,10.6,2.2l83.8-50.4
			c1.8-1.1,4.1-0.6,5.4,1.1s1,4-0.5,5.5l-32.6,29.8c-2.5,2.3-3.5,5.6-2.6,9c0.9,3.3,3.4,5.7,6.7,6.5c2.2,0.5,4.6,0.1,6.6-1.1
			l34.9-20.9L3722.5,2606.1z"/>
	</g>
	<g>
		<path class="st2" d="M3681.5,1951.8l25.9,131.2c1.8,8.9,9.1,15.6,18.1,16.5l50.6,5.2c2.4,0.2,3.5,3.3,1.7,5l-167.1,136.6
			l-78.9-129.4c-2.2-3.1-0.3-7.5,3.6-7.9l28.3-2.8c7.7-0.8,13.6-7.3,13.6-15.1v-132.9L3681.5,1951.8z"/>
	</g>
	<g>
		<path class="st0" d="M3529.1,2118.7c-1.7-2.4-1.9-5.4-0.7-8.1c1.2-2.7,3.7-4.5,6.7-4.8l28.3-2.8c6.1-0.6,10.7-5.7,10.7-11.8v-136
			l110.1-6.8l26.5,134c1.5,7.5,7.6,13.1,15.3,13.9l50.6,5.2c2.4,0.2,4.4,1.8,5.2,4.2c0.8,2.3,0.2,4.8-1.6,6.5l-170.1,139.1
			L3529.1,2118.7z M3725.2,2102.8c-10.5-1.1-19-8.8-21-19.2l-25.4-128.4l-98.2,6v129.8c0,9.5-7.1,17.4-16.6,18.3l-28.3,2.8
			c-0.9,0.1-1.3,0.7-1.4,1c-0.1,0.3-0.4,1,0.2,1.7l77.1,126.4l163.2-133.4L3725.2,2102.8z"/>
	</g>
	<g>
		<path class="st2" d="M3688,1873.7c1.9,19.3,19.1,33.5,38.4,31.6c19.3-1.9,33.5-19.1,31.6-38.4c-1.9-19.3-19.1-33.5-38.4-31.6
			C3700.3,1837.1,3686.1,1854.3,3688,1873.7z"/>
	</g>
	<g>
		<path class="st4" d="M3684.8,1874L3684.8,1874c-2-21.1,13.5-39.9,34.6-42c21.1-2.1,39.9,13.5,42,34.6c2,21.1-13.5,39.9-34.6,42
			c-1.2,0.1-2.5,0.2-3.7,0.2C3703.4,1908.7,3686.7,1893.8,3684.8,1874z M3719.9,1838.5c-17.5,1.7-30.4,17.3-28.7,34.8l0,0
			c1.7,17.5,17.3,30.4,34.8,28.7c17.5-1.7,30.4-17.3,28.7-34.8c-1.6-16.5-15.5-28.8-31.7-28.8
			C3722,1838.4,3721,1838.4,3719.9,1838.5z"/>
	</g>
	<g>
		<path class="st2" d="M3713.2,1782.7c0,0,57.4,227.6-105.1,257.2c-162.6,29.6-124.4-275-124.4-275S3584.7,1623.5,3713.2,1782.7z"/>
	</g>
	<g>
		<path class="st0" d="M3586.8,2045.1c7,0,14.3-0.7,21.9-2.1c66.5-12.1,106.5-59.6,115.6-137.3c0.2-1.8-1.1-3.4-2.9-3.6
			s-3.4,1.1-3.6,2.9c-8.9,75.6-46,119.9-110.3,131.6c-30.8,5.6-56.3-0.9-75.8-19.3c-67.4-63.8-45-250.1-44.7-252
			c0.2-1.8-1.1-3.4-2.8-3.7c-1.8-0.2-3.4,1.1-3.7,2.8c-1,7.8-23.1,191.5,46.7,257.6C3543.4,2037.4,3563.4,2045.1,3586.8,2045.1z"/>
	</g>
	<g>
		<path class="st0" d="M3555.1,1960.8c-1.3-1-2.1-2.6-2-4.2l0.7-27.8c0-1.8,1.5-3.2,3.3-3.2c0,0,0.1,0,0.1,0c1.8,0,3.2,1.5,3.2,3.3
			l-0.6,25.9l13.9-4.2c1.7-0.5,3.6,0.4,4.1,2.2c0.5,1.7-0.4,3.6-2.2,4.1l-15.7,4.8c-0.5,0.2-1,0.2-1.5,0.2
			C3557.1,1961.9,3556,1961.5,3555.1,1960.8z M3559.7,1956.8C3559.7,1956.7,3559.7,1956.7,3559.7,1956.8L3559.7,1956.8z"/>
	</g>
	<g>
		<path class="st0" d="M3496.2,1859.9c0.6,0,1.1-0.1,1.6-0.4c15.6-9.1,29.6-0.4,30.2-0.1c1.5,1,3.6,0.5,4.5-1s0.5-3.5-1-4.5
			c-0.7-0.5-17.8-11.2-37-0.1c-1.6,0.9-2.1,2.9-1.2,4.5C3494,1859.4,3495.1,1859.9,3496.2,1859.9z"/>
	</g>
	<g>
		<path class="st0" d="M3639.2,1859.8c1,0,2.1-0.5,2.7-1.4c1-1.5,0.7-3.5-0.8-4.6c-0.7-0.5-17.4-11.9-37-1.6
			c-1.6,0.8-2.2,2.8-1.4,4.4c0.8,1.6,2.8,2.2,4.4,1.4c16.1-8.5,30,1,30.2,1.1C3637.9,1859.6,3638.6,1859.8,3639.2,1859.8z"/>
	</g>
	<g>
		<path class="st0" d="M3505.8,1885.5c0,4.7,3.2,8.5,7.1,8.5c3.9,0,7.1-3.8,7.1-8.5c0-4.7-3.2-8.5-7.1-8.5
			C3509,1877,3505.8,1880.8,3505.8,1885.5z"/>
	</g>
	<g>
		<path class="st0" d="M3608.7,1887.6c0,4.7,3.2,8.5,7.1,8.5c3.9,0,7.1-3.8,7.1-8.5c0-4.7-3.2-8.5-7.1-8.5
			C3611.9,1879.1,3608.7,1882.9,3608.7,1887.6z"/>
	</g>
	<g>
		<path class="st0" d="M3576.4,1992c0.1,0,0.1,0,0.1,0c9.1-0.4,16-3.3,20.6-8.5c6.2-7.1,5.5-15.8,5.4-16.2c-0.2-1.8-1.8-3.1-3.6-3
			c-1.8,0.2-3.1,1.7-3,3.5c0,0.2,0.4,6.5-3.9,11.4c-3.3,3.8-8.7,5.8-15.9,6.2c-1.8,0.1-3.2,1.6-3.1,3.4
			C3573.2,1990.6,3574.7,1992,3576.4,1992z"/>
	</g>
	<g>
		<path class="st0" d="M3803.8,2419.1c0.8,0,1.6-0.3,2.3-0.9c1.3-1.3,1.3-3.3,0.1-4.6c-11.1-11.4-0.4-23.1,0.1-23.6
			c1.2-1.3,1.2-3.4-0.2-4.6c-1.3-1.2-3.4-1.1-4.6,0.2c-5.4,5.8-12.3,20,0.1,32.6C3802.1,2418.7,3802.9,2419.1,3803.8,2419.1z"/>
	</g>
	<g>
		<g id="XMLID_68_">
			<path class="st1" d="M4109.6,2643H4014c-12.8,0-23.2-10.4-23.2-23.2v-123.5c0-3.1,2.5-5.6,5.6-5.6h130.9c3.1,0,5.5,2.5,5.5,5.6
				v123.5C4132.8,2632.6,4122.4,2643,4109.6,2643z"/>
		</g>
		<g id="XMLID_67_">
			<path class="st0" d="M3987.5,2611.9v-124.5h148.6v124.5c0,19-15.4,34.4-34.4,34.4h-79.8
				C4002.9,2646.3,3987.5,2630.9,3987.5,2611.9z M4129.5,2494h-135.5v117.9c0,15.4,12.4,27.8,27.8,27.8h79.8
				c15.4,0,27.8-12.4,27.8-27.8L4129.5,2494L4129.5,2494z"/>
		</g>
		<g>
			<path class="st0" d="M4132.8,2570.1h15c13.1,0,23.8-10.7,23.8-23.8v-3.6c0-13.1-10.7-23.8-23.8-23.8h-15c-1.8,0-3.3,1.5-3.3,3.3
				s1.5,3.3,3.3,3.3h15c9.5,0,17.2,7.7,17.2,17.2v3.6c0,9.5-7.7,17.2-17.2,17.2h-15c-1.8,0-3.3,1.5-3.3,3.3
				C4129.5,2568.6,4131,2570.1,4132.8,2570.1z"/>
		</g>
		<g>
			<path class="st0" d="M4006.8,2581.4c0,2.9,3.7,4.9,6.6,1.6v-71.5c-2.9-3.3-6.6-1.3-6.6,1.6V2581.4z"/>
		</g>
	</g>
	<g id="XMLID_2_">
		<g id="XMLID_18_">
			<path class="st2" d="M2838.8,2643.3h-95.5c-12.8,0-23.2-10.4-23.2-23.2v-123.5c0-3.1,2.5-5.6,5.6-5.6h130.9
				c3.1,0,5.6,2.5,5.6,5.6v123.5C2862.1,2632.9,2851.7,2643.3,2838.8,2643.3z"/>
		</g>
		<g id="XMLID_17_">
			<path class="st0" d="M2716.8,2592.5v-89.3c0-8.5,6.9-15.4,15.4-15.4H2850c8.5,0,15.4,6.9,15.4,15.4v89.3
				c0,29.8-24.3,54.1-54.1,54.1h-40.4C2741,2646.6,2716.8,2622.3,2716.8,2592.5z M2732.2,2494.3c-4.9,0-8.9,4-8.9,8.9v89.3
				c0,26.2,21.3,47.5,47.5,47.5h40.4c26.2,0,47.5-21.3,47.5-47.5v-89.3c0-4.9-4-8.9-8.9-8.9H2732.2z"/>
		</g>
		<g id="XMLID_7_">
			<path class="st1" d="M2812.2,2395.5c-3.7-18.4-17.4-33.7-33.7-43s-35.2-13.1-53.9-14.9c3.9,14-3.8,28.2-8.4,41.9
				c-5.4,15.7-6.8,33.3-1.2,48.9c3.2,9,8.9,17.1,16.4,23.1c7.6,6.1,16.3,7.4,25.3,10.5c4.6,1.6,8.9,4.5,13.8,4.7
				c7.1,0.3,13.1-5.2,17-11.2c3.2-4.9,5.6-10.4,9.3-15c3.5-4.3,7.6-7.6,10.4-12.6C2812.6,2418.3,2814.5,2406.4,2812.2,2395.5z"/>
		</g>
		<g id="XMLID_6_">
			<path class="st1" d="M2906.6,2413.8c-1.7-14.8-6.9-28.9-10-43.5c-3.2-15-4.1-30.5-2.7-45.8c-17,19.9-47.8,20-69.8,34.2
				c-12.9,8.3-22.1,21.5-27,35.9c-5.4,16.1-5.8,32.7,0.8,48.5c0.3,0.7,0.6,1.4,0.9,2.1c2,4.6,4,9.3,6,13.9c1,2.3,2.2,4.8,4.6,5.6
				c1.1,0.3,2.2,0.2,3.3,0.2c8-0.2,15.4,3.3,23.2,4.6c7,1.3,15,1.2,22.1,1c13.8-0.4,28.5-4,38.1-14.7
				C2906.1,2444.8,2908.4,2428.6,2906.6,2413.8z"/>
		</g>
		<g id="XMLID_5_">
			<path class="st0" d="M2774.6,2494.3c0.1,0,0.1,0,0.2,0c1.8-0.1,3.2-1.6,3.1-3.4c-2.3-45-7.9-91.9-32.8-129.9
				c-1-1.5-3-1.9-4.5-0.9c-1.5,1-1.9,3-0.9,4.5c24,36.8,29.4,82.6,31.7,126.6C2771.4,2493,2772.9,2494.3,2774.6,2494.3z"/>
		</g>
		<g id="XMLID_4_">
			<path class="st0" d="M2804,2494.3c1.5,0,2.9-1,3.2-2.6c9.7-43.9,32.7-85.3,64.9-116.7c1.3-1.3,1.3-3.3,0.1-4.6
				c-1.3-1.3-3.3-1.3-4.6-0.1c-33.1,32.3-56.8,74.9-66.7,120c-0.4,1.8,0.7,3.5,2.5,3.9C2803.5,2494.3,2803.8,2494.3,2804,2494.3z"/>
		</g>
	</g>
	<g>
		<path class="st0" d="M3567.8,1878.8c0-30.1,24.5-54.6,54.6-54.6s54.6,24.5,54.6,54.6c0,30.1-24.5,54.6-54.6,54.6
			C3592.2,1933.4,3567.8,1908.9,3567.8,1878.8z M3574.3,1878.8c0,26.5,21.5,48,48,48s48-21.5,48-48s-21.5-48-48-48
			S3574.3,1852.3,3574.3,1878.8z"/>
	</g>
	<g>
		<path class="st0" d="M3667.1,1857.1c0.3,0,0.6,0,0.9-0.1l67.7-18.8c1.7-0.5,2.8-2.3,2.3-4c-0.5-1.7-2.3-2.8-4-2.3l-67.7,18.8
			c-1.7,0.5-2.8,2.3-2.3,4C3664.3,1856.2,3665.6,1857.1,3667.1,1857.1z"/>
	</g>
	<g>
		<path class="st1" d="M3550,1749.8c-13.7,49.3-55.1,89.8-104.6,102.2c-3.5-39,5.3-78.6,21.9-114c8-17,18.1-33.5,32.3-45.8
			c23.1-19.9,54.8-26.8,85.2-26.6c43.7,0.3,87.2,14,123.1,39c30.6,21.2,51.8,49.2,66.9,82.9c2.3,5.1,6.3,9.1,9,13.9
			c2.9,5.3,3.4,11.3,2.4,17.3c-1.3,7.3-4.4,14-12,16.1c-7.5,2.1-16,1.4-23.7,2.4c-10.1,1.3-20.3,2-30.6,1.8
			c-41-0.7-81.7-13.5-115.9-36.2C3583.1,1788.7,3564.4,1770.8,3550,1749.8z"/>
	</g>
	<g>
		<path class="st0" d="M3458.5,1878.8c0-30.1,24.5-54.6,54.6-54.6s54.6,24.5,54.6,54.6c0,30.1-24.5,54.6-54.6,54.6
			C3482.9,1933.4,3458.5,1908.9,3458.5,1878.8z M3465,1878.8c0,26.5,21.5,48,48,48s48-21.5,48-48s-21.5-48-48-48
			C3486.6,1830.8,3465,1852.3,3465,1878.8z"/>
	</g>
	<g>
		<ellipse class="st3" cx="3741.8" cy="1877.9" rx="50.9" ry="65.8"/>
	</g>
	<g>
		<ellipse class="st0" cx="3752.7" cy="1878.4" rx="40" ry="58.7"/>
	</g>
	<g>
		<g>
			<path class="st0" d="M3751.4,1881.7c6,0,10.9-4.9,10.9-10.9v-83.3c0-35-14.1-68.2-39.8-93.4c-27.3-26.8-65.6-41.8-104.9-41.2
				l-74.7,0.9c-46.3,0.6-83.9,36.8-83.9,80.7v21.2l21.9-21.2c0-32.1,28-58.5,62.3-58.9l74.7-0.9c33.5-0.6,66.1,12.2,89.3,34.9
				c21.4,21.1,33.2,48.7,33.2,77.8v83.3C3740.5,1876.8,3745.4,1881.7,3751.4,1881.7z"/>
		</g>
	</g>
	<g>
		<path class="st0" d="M3638.8,1997.7h25c19.5,0,37.7-10.5,47.4-27.4l31.4-54.6c1.8-3.1,0.7-7.2-2.4-8.9c-3.1-1.8-7.1-0.7-8.9,2.4
			l-31.4,54.6c-7.4,12.8-21.2,20.8-36,20.8h-25c-3.6,0-6.6,2.9-6.6,6.6C3632.2,1994.8,3635.2,1997.7,3638.8,1997.7z"/>
	</g>
	<g>
		<path class="st3" d="M3625.9,2004.7h25.3c2,0,3.6-1.6,3.6-3.6v-19.4c0-2-1.6-3.6-3.6-3.6h-25.3c-2,0-3.6,1.6-3.6,3.6v19.4
			C3622.3,2003.1,3623.9,2004.7,3625.9,2004.7z"/>
	</g>
	<g>
		<g>
			<path class="st0" d="M2792.9,1732.1h488.2c27.1,0,49,21.9,49,49V1988c0,27.1-21.9,49-49,49H3238v62.7c0,4.8-5.5,7.6-9.4,4.7
				l-91.1-67.4h-344.6c-27.1,0-49-21.9-49-49v-206.9C2743.9,1754.1,2765.9,1732.1,2792.9,1732.1z"/>
		</g>
		<g>
			<circle class="st1" cx="3205.9" cy="1882.9" r="76.5"/>
		</g>
		<g>
			<path class="st2" d="M2809.5,1831.7h286.6c2.2,0,4-1.8,4-4v-25.4c0-2.2-1.8-4-4-4h-286.6c-2.2,0-4,1.8-4,4v25.4
				C2805.5,1829.9,2807.3,1831.7,2809.5,1831.7z"/>
		</g>
		<g>
			<path class="st2" d="M2809.5,1899.7h286.6c2.2,0,4-1.8,4-4v-25.4c0-2.2-1.8-4-4-4h-286.6c-2.2,0-4,1.8-4,4v25.4
				C2805.5,1897.9,2807.3,1899.7,2809.5,1899.7z"/>
		</g>
		<g>
			<path class="st2" d="M2962.5,1967.6h133.6c2.2,0,4-1.8,4-4v-25.4c0-2.2-1.8-4-4-4h-133.6c-2.2,0-4,1.8-4,4v25.4
				C2958.5,1965.8,2960.3,1967.6,2962.5,1967.6z"/>
		</g>
	</g>
	<g>
		<g>
			<path class="st0" d="M3885.8,1945.8h86.7c7.1,0,12.9-5.8,12.9-12.9v-86.7c0-7.1-5.8-12.9-12.9-12.9h-86.7
				c-7.1,0-12.9,5.8-12.9,12.9v86.7C3872.9,1940,3878.6,1945.8,3885.8,1945.8z"/>
		</g>
		<g>
			<g>
				<path class="st2" d="M3924.5,1901.4c0-2.1-0.3-3.8-0.9-5s-1.7-2.4-3.3-3.4c-2.9-1.5-5.3-3.6-7.2-6.3c-1.9-2.7-2.8-5.6-2.8-8.8
					c0-5.2,1.7-9.3,5.2-12.3c3.5-3,8.2-4.6,14.2-4.6c5.6,0,10.2,1.3,13.6,4c3.4,2.7,5.1,6.6,5,11.9l-0.1,0.2h-12.5
					c-0.1-2.1-0.6-3.6-1.8-4.6c-1.1-1-2.6-1.6-4.3-1.6c-2.1,0-3.7,0.6-4.9,1.9c-1.1,1.3-1.7,3-1.7,5.1c0,2.1,0.5,3.9,1.5,5.4
					s2.3,2.9,4,4c3.3,2.3,5.6,4.3,6.8,6.1s1.9,4.4,1.9,7.9L3924.5,1901.4L3924.5,1901.4z M3924.5,1906.9h12.8v10.3h-12.8V1906.9z"/>
			</g>
		</g>
	</g>
	<g>
		<g>
			<path class="st3" d="M3995.9,2163.8h70.7c7.1,0,12.9-5.8,12.9-12.9v-70.7c0-7.1-5.8-12.9-12.9-12.9h-70.7
				c-7.1,0-12.9,5.8-12.9,12.9v70.7C3983.1,2158,3988.8,2163.8,3995.9,2163.8z"/>
		</g>
		<g>
			<g>
				<path class="st2" d="M4024.9,2087.8h12.9v35.8h-12.9V2087.8z M4024.9,2132.5h12.9v10.8h-12.9V2132.5z"/>
			</g>
		</g>
	</g>
</g>
<g>
	<g>
		<g>
			<defs>
				<polygon id="SVGID_1_" points="4117.8,1823.6 4183.4,1823.6 4183.3,1889.3 4117.7,1889.3 				"/>
			</defs>
			<clipPath id="SVGID_00000176750617230820691250000000415864723855489955_">
				<use xlink:href="#SVGID_1_"  style="overflow:visible;"/>
			</clipPath>
			<g style="clip-path:url(#SVGID_00000176750617230820691250000000415864723855489955_);">
				<g>
					<path class="st6" d="M4152.8,1828.1v40.3c0,0.2-0.2,0.4-0.4,0.4c-1.6,0-3.3,0-4.9,0.1c-0.2,0-0.3-0.1-0.4-0.2
						c-0.1-0.3-0.1-0.6-0.1-0.8c0-5.8,0-11.7,0-17.5c0-5.6,0-11.2,0.1-16.9c0-3.2,2-5.4,5.2-5.8
						C4152.6,1827.7,4152.8,1827.8,4152.8,1828.1z"/>
					<path class="st6" d="M4142.3,1839.1v29.5c0,0.3-0.2,0.6-0.6,0.6c-1.1,0.1-2.2,0.2-3.3,0.3c-0.4,0-0.7-0.3-0.7-0.7
						c0-0.1,0-0.2,0-0.4c0-8.4,0.1-16.9,0-25.3c0-2.4,1.6-4.2,3.7-4.7C4141.9,1838.4,4142.3,1838.7,4142.3,1839.1z"/>
					<path class="st6" d="M4157.7,1838.7c0-0.2,0.1-0.3,0.3-0.3c2.2,0.3,3.9,2.1,3.9,4.3c0.1,8.9,0,17.7,0,26.6l0,0
						c0,0.2-0.1,0.3-0.3,0.2c-1.2-0.1-2.4-0.3-3.7-0.4c-0.1,0-0.2-0.1-0.2-0.3L4157.7,1838.7L4157.7,1838.7z"/>
					<path class="st6" d="M4133.5,1849.1v20.5c0,0.3-0.2,0.6-0.5,0.6c-0.8,0.2-1.7,0.3-2.6,0.5c-0.4,0.1-0.8-0.2-0.8-0.6
						c0,0,0,0,0,0c0-6,0-12,0-18c0-1.9,1.3-3.4,3.1-3.7C4133.2,1848.4,4133.5,1848.7,4133.5,1849.1z"/>
					<path class="st6" d="M4170.2,1869.9c0,0.6-0.5,1-1,0.9h0c-0.7-0.1-1.4-0.3-2.1-0.4c-0.4-0.1-0.7-0.4-0.7-0.9v-20
						c0-0.6,0.6-1,1.2-0.8c1.5,0.5,2.6,1.9,2.6,3.5c0,5.2,0,10.4,0,15.6C4170.2,1868.4,4170.2,1869.1,4170.2,1869.9z"/>
				</g>
			</g>
		</g>
	</g>
	<path class="st6" d="M4150.5,1871.1c-12.1,0-22.4,3.2-26.8,4.9c-0.5,0.2-0.4,1,0.2,1h53.4c0.6,0,0.7-0.8,0.2-1
		C4173.1,1874.3,4162.6,1871.1,4150.5,1871.1z"/>
</g>
<linearGradient id="SVGID_00000013157482636898253250000000329128020169399698_" gradientUnits="userSpaceOnUse" x1="-370.6889" y1="880.0616" x2="2216.7153" y2="880.0616" gradientTransform="matrix(1 0 0 -1 0 1417.3228)">
	<stop  offset="0" style="stop-color:#20303A"/>
	<stop  offset="4.370000e-02" style="stop-color:#22343F"/>
	<stop  offset="0.2913" style="stop-color:#2E4754"/>
	<stop  offset="0.5021" style="stop-color:#355463"/>
	<stop  offset="0.6656" style="stop-color:#385C6C"/>
	<stop  offset="0.7619" style="stop-color:#395E6F"/>
</linearGradient>
<path style="fill:url(#SVGID_00000013157482636898253250000000329128020169399698_);" d="M1535.3,1389.4
	c120.9-6.6,255.9-83.8,300.3-194c52-129.4-57.9-220.4,0-306.4c81-120.2,304.6-9.8,407.5-128.7c93.7-108.3,53-367.3-79.7-447.3
	c-163.4-98.6-341.2,149.9-585.2,70.5c-164-53.4-148-186.6-395.2-407.5c-101.2-90.4-254.1-227-459.6-278.8
	C435.8-375.5,67-270.3-159,0.4c-265,317.4-273.5,791-68.4,1068.3c96.1,130,225.8,198.8,279.8,226.7
	c57.4,29.7,286.3,144.3,553.5,89.9c261.7-53.3,275.7-210.6,461.6-202.2C1279.9,1192.6,1325.4,1400.7,1535.3,1389.4z"/>
<g>
	<g id="XMLID_43_">
		<g id="XMLID_44_">
			<g id="XMLID_45_">
				<path class="st8" d="M3812.2,5520.5l8.7-46.9c-7.5-16.8-11.4-35.4-10.6-55.1c2.6-64.3,55.5-116.3,119.9-117.8
					c70.4-1.6,127.7,56,125.7,126.4c-1.8,63.2-52.3,115.2-115.4,119c-26.8,1.6-51.7-5.5-72.6-18.6l-41.1,7.5
					C3818.2,5536.7,3810.6,5529.1,3812.2,5520.5z"/>
			</g>
		</g>
	</g>
	<g>
		<g>
			<path class="st9" d="M3261.5,5529.9c1.2-3.4,1.8-6.2,1.6-8.5c-0.2-2.3-1.3-4.8-3.3-7.5c-3.8-4.2-6.4-8.9-7.9-14.3
				c-1.5-5.4-1.3-10.6,0.6-15.7c3-8.3,8.2-13.9,15.6-16.7c7.3-2.8,15.9-2.5,25.6,1c9,3.3,15.5,8.1,19.5,14.4c4,6.3,4.3,13.6,1.1,22
				l-0.3,0.3l-20.1-7.4c1.1-3.3,1.1-6.2-0.1-8.5s-3.2-4-5.9-5c-3.4-1.2-6.4-1.2-8.9,0.2c-2.6,1.4-4.5,3.8-5.7,7.2
				c-1.2,3.3-1.5,6.5-0.9,9.6c0.6,3.1,2,6,4.1,8.7c3.9,5.6,6.4,10.3,7.3,13.8c0.9,3.6,0.4,8.2-1.6,13.9L3261.5,5529.9z
				 M3258.3,5538.8l20.5,7.5l-6,16.5l-20.5-7.5L3258.3,5538.8z"/>
		</g>
	</g>
	<g>
		<path class="st8" d="M2484.6,6329h1758.9c1.7,0,3.1-1.4,3.1-3.1s-1.4-3.1-3.1-3.1H2484.6c-1.7,0-3.1,1.4-3.1,3.1
			C2481.5,6327.6,2482.9,6329,2484.6,6329z"/>
	</g>
	<g>
		<path class="st2" d="M3057.3,5821.4l-9.4-22c-7.3-17.1-11.5-35.3-12.6-53.8l-3.4-57.5c0,0-1.4-24.2,7.3-27.7
			c8.7-3.5,61.4-20.6,61.4-20.6l1.2-79c0.1-5.7,4.5-10.4,10.2-10.9l0,0c6-0.5,11.3,3.8,12,9.7l16,130.7c0.6,4.5,6.5,5.7,8.8,1.8
			l13.3-22.9c3.7-6.4,11.6-9,18.4-6l0.2,0.1c2.5,1.1,3.8,3.7,3.2,6.3l-13.4,59c-1.1,4.9-3.3,9.4-6.5,13.3l-3.4,4.2
			c-8.1,10-12.7,22.3-13,35.1l-0.6,23.4L3057.3,5821.4z"/>
	</g>
	<g>
		<path class="st8" d="M3045.1,5800.6c-7.4-17.5-11.8-35.9-12.9-54.9l-3.4-57.5c-0.2-4.4-1-26.6,9.3-30.8c7.8-3.2,49.4-16.7,59.5-20
			l1.2-76.8c0.1-7.3,5.7-13.3,13-14c7.7-0.7,14.4,4.8,15.4,12.5l16,130.7c0.1,1,0.9,1.3,1.3,1.4c0.3,0.1,1.2,0.1,1.7-0.8l13.3-22.9
			c4.5-7.8,14.1-10.9,22.5-7.2c3.8,1.7,5.9,5.8,5,9.9l-13.4,59c-1.2,5.3-3.7,10.4-7.1,14.6l-3.4,4.2c-7.6,9.4-12,21.2-12.3,33.2
			l-0.7,25.9l-94.5,17.7L3045.1,5800.6z M3144.4,5781.2c0.4-13.5,5.2-26.6,13.7-37l3.4-4.2c2.8-3.5,4.9-7.6,5.9-12l13.4-59
			c0.3-1.2-0.3-2.3-1.6-2.9c-5.3-2.3-11.5-0.3-14.4,4.7l-13.3,22.9c-1.7,3-5,4.5-8.4,3.8c-3.4-0.7-5.8-3.3-6.2-6.8l-16-130.7
			c-0.5-4.3-4.3-7.4-8.6-7c-4.1,0.4-7.2,3.7-7.3,7.8l-1.2,81.3l-2.1,0.7c-0.5,0.2-52.7,17.1-61.2,20.5c-4.5,1.8-5.9,15.8-5.4,24.6
			l3.4,57.5c1.1,18.2,5.3,36,12.4,52.8l8.4,19.7l84.6-15.8L3144.4,5781.2z"/>
	</g>
	<g>
		<path class="st8" d="M3057.8,5727.8c1.5,0,2.9-0.3,4.4-0.9c3.4-1.3,6.2-4.1,7.7-7.6c14-32.5-13.5-64.5-14.7-65.9
			c-1.1-1.3-3.1-1.4-4.4-0.3c-1.3,1.1-1.4,3.1-0.3,4.4c0.3,0.3,26.1,30.5,13.7,59.3c-0.9,2-2.4,3.5-4.2,4.2c-1.6,0.6-3,0.6-4.4-0.1
			c-2.4-1.1-6-4.8-9.4-15.3c-0.5-1.6-2.3-2.6-3.9-2c-1.6,0.5-2.6,2.3-2,3.9c3.3,10.3,7.4,16.6,12.6,19.1
			C3054.4,5727.5,3056.1,5727.8,3057.8,5727.8z"/>
	</g>
	<g>
		<path class="st8" d="M3078.2,5728.8c2.7,0,5-0.9,6.7-1.9c3.4-1.9,6-5.2,7.3-9.1c14.9-44.3-15-71.6-15.3-71.9
			c-1.3-1.2-3.3-1-4.4,0.2c-1.1,1.3-1,3.3,0.2,4.4c1.1,1,27.1,25,13.6,65.2c-0.8,2.5-2.4,4.5-4.5,5.7c-1.5,0.9-6.1,3.4-12.2-5.2
			c-1-1.4-3-1.7-4.4-0.7c-1.4,1-1.7,3-0.7,4.4C3069.4,5726.8,3074.2,5728.8,3078.2,5728.8z"/>
	</g>
	<g>
		<path class="st8" d="M3100.3,5727.7c1.3,0,2.7-0.3,4.1-0.8c3.9-1.5,7.1-4.7,8.6-8.9c15-40.8-8.6-78.4-9.6-80
			c-0.9-1.5-2.9-1.9-4.3-1c-1.5,0.9-1.9,2.9-0.9,4.3c0.2,0.4,22.9,36.6,9,74.4c-0.9,2.5-2.7,4.3-4.9,5.2c-1.4,0.5-2.5,0.5-3.5,0
			c-2-1.1-3.9-4.4-5.1-9.4c-0.4-1.7-2.1-2.7-3.8-2.3c-1.7,0.4-2.7,2.1-2.3,3.8c1.8,7,4.5,11.4,8.3,13.4
			C3097.2,5727.3,3098.7,5727.7,3100.3,5727.7z"/>
	</g>
	<g>
		<ellipse class="st8" cx="3622.2" cy="5735.7" rx="100.5" ry="21.6"/>
	</g>
	<g>
		
			<ellipse transform="matrix(0.5613 -0.8276 0.8276 0.5613 -2994.9885 5534.374)" class="st2" cx="3722.9" cy="5592.2" rx="29.1" ry="29.1"/>
	</g>
	<g>
		<path class="st8" d="M3719.1,5624.3c-8.6-1.1-16.2-5.4-21.5-12.2c-5.3-6.8-7.6-15.2-6.6-23.8c2.2-17.7,18.3-30.2,36-28.1
			c8.6,1,16.2,5.4,21.5,12.2c5.3,6.8,7.6,15.2,6.6,23.8c-1.1,8.5-5.4,16.2-12.2,21.5c-5.7,4.5-12.6,6.8-19.8,6.8
			C3721.7,5624.6,3720.4,5624.5,3719.1,5624.3z M3697.2,5589.1c-0.9,6.9,1,13.7,5.3,19.2c4.3,5.5,10.4,9,17.3,9.8
			c6.9,0.8,13.7-1,19.2-5.3c5.5-4.3,8.9-10.4,9.8-17.3c0.9-6.9-1-13.7-5.3-19.2c-4.3-5.5-10.4-9-17.3-9.8c-1.1-0.1-2.1-0.2-3.2-0.2
			C3710.1,5566.3,3698.8,5576,3697.2,5589.1z"/>
	</g>
	<g>
		<path class="st2" d="M3710.2,5624.4v164.8c0,9-4.2,17.4-11.2,22.1l-116.1,78.3l-33.1-69.5c-4.9-10.3-7.5-21.8-7.5-33.5v-65.4
			L3710.2,5624.4z"/>
	</g>
	<g>
		<path class="st8" d="M3581.7,5894.2l119.1-80.3c7.9-5.3,12.6-14.5,12.6-24.7v-164.7h-6.3v164.8c0,7.9-3.8,15.4-9.8,19.5l-113,76.2
			l-31.5-66.2c-4.7-9.9-7.2-21-7.2-32.2v-65.4h-6.3v65.4c0,12.1,2.7,24.2,7.8,34.9L3581.7,5894.2z"/>
	</g>
	<g>
		<path class="st2" d="M3555,5734.6L3555,5734.6c72.9,9,140.7-39,156.4-110.8l32.3-147.4c0,0-242.4-95.5-264.3-32.6
			c-17.5,50.1-14.5,138.3-9,202.7C3474.1,5692.2,3509.4,5728.9,3555,5734.6z"/>
	</g>
	<g>
		<path class="st8" d="M3573,5738.8c30.2,0,59.6-9.2,84.1-26.7c30.2-21.5,50.9-54.2,58.3-92.1c0.3-1.7-0.8-3.4-2.5-3.7
			c-1.7-0.3-3.4,0.8-3.7,2.5c-13.3,67.3-70.3,113.7-136.4,113.7c-5.8,0-11.6-0.4-17.5-1.1c-43.8-5.4-78.2-41.3-81.9-85.3
			c-3.1-36.1-4.1-88.4-2.6-127.2c0.1-1.7-1.3-3.2-3-3.2c-1.7-0.1-3.2,1.3-3.2,3c-1.5,39-0.4,91.6,2.6,127.9
			c4,46.9,40.8,85.2,87.4,90.9C3560.7,5738.4,3566.9,5738.8,3573,5738.8z"/>
	</g>
	<g>
		<path class="st1" d="M3638.4,5513c6.1-3,11.9-6.7,18.5-9.4c1.4-0.6,3.4-1.2,4.8-0.2c0.8,0.5,1.1,1.3,1.4,2.1
			c1.6,4.8,1.7,10.5,2.8,15.4c5.6,26.2,16.2,51.2,33.2,72c2.6,3.2,6.2,6.6,10.3,5.9c2.6-0.5,4.5-2.5,6.2-4.4
			c27.5-30,58.4-83.5,44.3-125.7c-3.9-11.7-13.1-22.1-25.1-25c-12-2.9-26.2,3.6-29.8,15.4c8.6-28.5-34.5-60.2-58.6-63.2
			c-12.9-1.6-26.9-1.1-37.8,6.1c3.9-3-26.8-34.3-30.9-37.6c-19.6-15.7-41.6-26.2-67.2-27.1c-33.1-1.2-66.8,14.5-85.7,41.7
			c-13.1,18.7-18.4,42-16.9,64.6c1.8,26.5,10.4,48.8,30.7,66.1c34.7,29.6,91.2,23.1,128.2,1.6c1.2-0.7,14-9.2,13.6-9.6
			c8.7,10.2,22.7,16.5,36.4,17C3625,5518.9,3631.8,5516.3,3638.4,5513z"/>
	</g>
	<g>
		<path class="st8" d="M3526.9,5661.8c0.3,0,0.6,0,0.9-0.1l15.4-2.7c1.7-0.3,2.9-1.9,2.6-3.6c-0.3-1.7-1.9-2.9-3.6-2.6l-13.4,2.3
			l8.2-33c0.4-1.7-0.6-3.4-2.3-3.8s-3.4,0.6-3.8,2.3l-8.8,35.4c-0.3,1.6,0.3,3.2,1.4,4.3C3524.4,5661.3,3525.6,5661.8,3526.9,5661.8
			z"/>
	</g>
	<g>
		<path class="st8" d="M3557.9,5688.2c5.1,0,9.4-1.4,12.7-4.3c6.6-5.6,6.7-14.6,6.7-15c0-1.7-1.4-3.1-3.1-3.2c0,0,0,0,0,0
			c-1.7,0-3.1,1.4-3.1,3.1c0,0.1-0.2,6.6-4.6,10.3c-2.9,2.4-7.1,3.2-12.5,2.4c-1.7-0.3-3.3,0.9-3.6,2.6c-0.3,1.7,0.9,3.3,2.6,3.6
			C3554.7,5688,3556.3,5688.2,3557.9,5688.2z"/>
	</g>
	<g>
		<path class="st8" d="M3507.9,5566.4c0.9,0,1.8-0.4,2.4-1.1c1.1-1.3,0.9-3.3-0.4-4.4c-0.6-0.5-15.6-12.7-35.1-4.4
			c-1.6,0.7-2.3,2.5-1.7,4.1c0.7,1.6,2.5,2.3,4.1,1.7c16-6.8,28.5,3.3,28.6,3.5C3506.5,5566.1,3507.2,5566.4,3507.9,5566.4z"/>
	</g>
	<g>
		<path class="st8" d="M3574.1,5572c0.6,0,1.2-0.2,1.7-0.5c14.4-9.5,28.2-2.1,28.8-1.8c1.5,0.8,3.4,0.3,4.3-1.2
			c0.8-1.5,0.3-3.4-1.2-4.2c-0.7-0.4-17.6-9.7-35.3,2c-1.4,0.9-1.8,2.9-0.9,4.3C3572.1,5571.5,3573.1,5572,3574.1,5572z"/>
	</g>
	<g>
		<path class="st8" d="M3481.8,5587.7c-0.6,4.5,2,8.4,5.8,8.9c3.7,0.5,7.2-2.8,7.7-7.2c0.6-4.5-2-8.4-5.8-8.9
			C3485.8,5580,3482.3,5583.3,3481.8,5587.7z"/>
	</g>
	<g>
		<path class="st8" d="M3578.1,5592.7c-0.6,4.5,2,8.4,5.8,8.9c3.7,0.5,7.2-2.8,7.7-7.2c0.6-4.4-2-8.4-5.8-8.9
			C3582.1,5585,3578.7,5588.3,3578.1,5592.7z"/>
	</g>
	<g>
		<path class="st2" d="M3196.4,5831.6l63,258.4l120.8-209.9c29.6-52,84.8-84,144.6-83.8v-58.4h0.5c4.7,11,46.2,19.5,96.7,19.5
			c49.7,0,90.7-8.3,96.5-19h0.8v58.5c38.7,0.1,76.2,13,106.9,36.7c101,78.1,315.2,266.1,248.1,410.3
			c-22.7,48.9-72.4,79.6-126.3,80.8l-802.5,1.4c0,0-121.5-126.1-122.6-465.1c-0.1-20.5,14.8-38.1,35.1-41.4l92.1-15.2
			C3170.1,5800.8,3189.7,5812.4,3196.4,5831.6z"/>
	</g>
	<g>
		<path class="st8" d="M3143.2,6328.1c-1.3-1.3-31.1-32.8-61.5-106.4c-27.9-67.7-61.4-185.2-61.9-360.9
			c-0.1-22.2,15.8-40.9,37.7-44.5l92.1-15.2c21.6-3.6,42.6,8.8,49.8,29.5l61.2,251l116.9-203.1c29.6-52,84.6-84.5,144.2-85.4v-58.5
			l5.7,0l0.8,1.9c3.7,8.5,42.3,17.6,93.8,17.6c52.1,0,89.2-9,93.7-17.4l0.9-1.7l5.8,0v58.5c38.1,0.8,75.5,14,105.6,37.3
			c54.2,42,130.8,107.4,187.7,180.9c70.4,91,91,169.5,61.4,233.1c-22.8,48.9-73.4,81.3-129.1,82.6l-802.5,1.4h-1.3L3143.2,6328.1z
			 M3622,5760.5c-37,0-78.6-4.8-94-15.4v54.3l-3.1,0c-0.2,0-0.3,0-0.5,0c-58.4,0-112.5,31.5-141.4,82.3l-124.7,216.6l-64.8-265.8
			c-6.3-17.7-24.3-28.3-42.9-25.3l-92.1,15.2c-18.9,3.1-32.5,19.2-32.4,38.3c0.6,174.3,33.6,290.9,61.3,358.1
			c27.1,65.7,54.4,98.1,59.6,104l801-1.4c53.3-1.2,101.7-32.2,123.5-78.9c66.5-142.9-150.7-331.9-247.2-406.5
			c-29.9-23.1-67.1-35.9-104.9-36l-3.1,0V5745C3700.7,5755.6,3658.8,5760.5,3622,5760.5z"/>
	</g>
	<g>
		<path class="st8" d="M3621.3,5826.2c56.4,0,87.4-21.5,88.8-22.5c1.4-1,1.8-3,0.8-4.4c-1-1.4-2.9-1.8-4.4-0.8
			c-0.3,0.2-35,24.1-96.4,21c-1.7,0-3.2,1.2-3.3,3s1.2,3.2,3,3.3C3613.8,5826.1,3617.6,5826.2,3621.3,5826.2z"/>
	</g>
	<g>
		<path class="st8" d="M3670.7,5843.5c0.1,0,0.2,0,0.3,0c34.2-3.3,57.6-23.9,58.6-24.8c1.3-1.1,1.4-3.1,0.2-4.4s-3.1-1.4-4.4-0.2
			c-0.2,0.2-22.9,20.2-55,23.2c-1.7,0.2-3,1.7-2.8,3.4C3667.7,5842.3,3669.1,5843.5,3670.7,5843.5z"/>
	</g>
	<g>
		<path class="st8" d="M3789.4,6123.2c0,0,0.1,0,0.1,0c1.7-0.1,3.1-1.5,3-3.2c-1-25.4,13.6-35.2,14.2-35.6c1.4-0.9,1.9-2.9,0.9-4.3
			c-0.9-1.4-2.9-1.9-4.3-0.9c-0.7,0.5-18.2,12-17.1,41.2C3786.3,6121.9,3787.7,6123.2,3789.4,6123.2z"/>
	</g>
	<g>
		<path class="st10" d="M3197.3,6325.9H3543c11.6,0,20.9-9.4,20.9-20.9v-27.5h-366.6V6325.9z"/>
	</g>
	<g>
		<g>
			<path class="st0" d="M2819.4,6325.9h541.8l-112.6-298.2c-10.2-27.1-36.2-45-65.1-45h-439.1c-26.4,0-44.6,26.4-35.3,51.1
				L2819.4,6325.9z"/>
		</g>
		<g>
			<ellipse class="st3" cx="3028.2" cy="6160.2" rx="31.3" ry="31.3"/>
		</g>
	</g>
	<g>
		<path class="st8" d="M3824.9,6329c51.4,0,97.3-0.8,123.1-1.4c1.7,0,3.1-1.5,3.1-3.2c0-1.7-1.4-3.1-3.1-3.1c0,0-0.1,0-0.1,0
			c-156.8,3.5-337.4,1.2-374.4-15.7c-49.1-22.5-35.4-110.1-32.1-127.4c1.6-8.5,8.7-14.7,17.3-15.2l274-26.8c1.7-0.2,3-1.7,2.8-3.4
			c-0.2-1.7-1.7-3-3.4-2.8l-273.9,26.8c-11.4,0.6-20.9,9-23,20.3c-4.8,25.5-16.4,110.5,35.6,134.3
			C3602.5,6325.9,3724.1,6329,3824.9,6329z"/>
	</g>
	<g>
		<path class="st2" d="M3556.8,6194.1l-94.8,5.1l-105.2,55.6c-5.3,2.8-7.4,9.3-4.8,14.7l0,0c2.6,5.2,8.7,7.6,14.1,5.4l68.5-27.9
			c1.2-0.5,2,1.1,1,1.8l-70.9,47.9c-5,3.4-6.2,10.1-2.8,15l0,0c3.2,4.6,9.5,5.9,14.3,3l80-48.2c0.8-0.5,1.6,0.6,0.9,1.2l-31.1,28.4
			c-7,6.4-3.9,18,5.4,20.1l0,0c2.9,0.6,6,0.1,8.6-1.4l32.6-19.6l86.1,0.6c28.3,0.2,51.3-22.7,51.3-51l0,0
			C3610,6216,3585.8,6192.8,3556.8,6194.1z"/>
	</g>
	<g>
		<path class="st8" d="M3430.7,6319.4c-5.4-1.2-9.7-5.3-11.1-10.7c-1.4-5.4,0.2-11,4.3-14.8l13.6-12.5l-59.8,36
			c-6.2,3.7-14.3,2-18.5-3.9c-2.2-3.1-3-6.8-2.3-10.5c0.7-3.7,2.8-6.9,5.9-9l54.3-36.7l-49.9,20.3c-6.9,2.8-14.9-0.2-18.1-6.9
			c-3.4-6.9-0.7-15.2,6.1-18.8l105.2-55.6l0.6-0.3l95.5-5.1h0c14.9-0.6,29,4.7,39.8,15c10.8,10.3,16.7,24.2,16.7,39.1
			c0,14.5-5.7,28.1-16,38.4c-10.2,10.2-23.8,15.7-38.2,15.7c-0.1,0-0.2,0-0.3,0l-85.2-0.6l-31.9,19.1c-2.3,1.4-5,2.1-7.6,2.1
			C3432.9,6319.7,3431.8,6319.6,3430.7,6319.4z M3558.7,6292.9c0.1,0,0.2,0,0.3,0c12.7,0,24.7-4.9,33.7-13.9
			c9.1-9.1,14.1-21.1,14.1-33.9c0-13.2-5.2-25.4-14.8-34.6c-9.5-9.1-22-13.8-35.1-13.2l-94.1,5.1l-104.6,55.2
			c-3.8,2-5.3,6.6-3.4,10.5c1.8,3.7,6.3,5.5,10.1,3.9l68.5-27.9c2-0.8,4.2,0,5.3,1.9s0.4,4.2-1.4,5.4l-70.9,47.9
			c-1.7,1.1-2.8,2.9-3.2,4.9c-0.4,2,0.1,4.1,1.3,5.7c2.3,3.2,6.7,4.2,10.1,2.1l80-48.2c1.7-1,3.9-0.6,5.1,1s1,3.9-0.5,5.2
			l-31.1,28.4c-2.4,2.2-3.4,5.4-2.5,8.6c0.8,3.2,3.2,5.5,6.4,6.2c2.1,0.5,4.4,0.1,6.3-1l33.4-20L3558.7,6292.9z"/>
	</g>
	<g>
		<path class="st8" d="M3637.3,6236.5c0,0,0.1,0,0.1,0c1.7-0.1,3.1-1.5,3-3.3c-0.9-21.8-13.8-41.2-33.6-50.5
			c-1.6-0.7-3.4-0.1-4.2,1.5c-0.7,1.6-0.1,3.4,1.5,4.2c17.7,8.3,29.2,25.6,30,45.1C3634.2,6235.2,3635.6,6236.5,3637.3,6236.5z"/>
	</g>
	<g>
		<path class="st8" d="M3097.8,5767.8c0,0,0.1,0,0.1,0c1.7-0.1,3.1-1.5,3-3.2c-1-29,28.4-36.6,29.6-36.9c1.7-0.4,2.7-2.1,2.3-3.8
			c-0.4-1.7-2.1-2.7-3.8-2.3c-0.4,0.1-35.5,9.1-34.4,43.2C3094.7,5766.4,3096.1,5767.8,3097.8,5767.8z"/>
	</g>
	<g id="XMLID_28_">
		<g id="XMLID_84_">
			<path class="st8" d="M4106.5,6043.5L4106.5,6043.5c5.8,0,10.5,4.9,10.5,10.9l-20.5,107.4h-21.1l20.5-107.4
				C4095.9,6048.4,4100.6,6043.5,4106.5,6043.5z"/>
		</g>
		<g id="XMLID_83_">
			<path class="st11" d="M3993.5,6043.5L3993.5,6043.5c-5.8,0-10.5,4.9-10.5,10.9l20.5,107.4h21.1l-20.5-107.4
				C4004,6048.4,3999.3,6043.5,3993.5,6043.5z"/>
		</g>
		<g id="XMLID_82_">
			<path class="st11" d="M4062.6,6043.5h14.8c1.7,0,3.1,1.4,3.1,3.1v115.2h-21.1v-115.2C4059.5,6044.9,4060.9,6043.5,4062.6,6043.5z
				"/>
		</g>
		<g id="XMLID_74_">
			<path class="st10" d="M4021.5,6043.5h14.8c1.7,0,3.1,1.4,3.1,3.1v115.2h-21.1v-115.2C4018.4,6044.9,4019.8,6043.5,4021.5,6043.5z
				"/>
		</g>
		<g id="XMLID_73_">
			<path class="st8" d="M4043.4,6031.9L4043.4,6031.9c5.8,0,10.5,4.9,10.5,10.9l10.3,119.1h-21.1l-10.3-119.1
				C4032.9,6036.8,4037.6,6031.9,4043.4,6031.9z"/>
		</g>
		<g id="XMLID_71_">
			<path class="st2" d="M3993.6,6326.8h115.4c7.5,0,13.5-6.1,13.5-13.5v-189.4c0-1.2-1-2.2-2.2-2.2h-137.9c-1.2,0-2.2,1-2.2,2.2
				v189.4C3980.1,6320.7,3986.1,6326.8,3993.6,6326.8z"/>
		</g>
		<g id="XMLID_30_">
			<path class="st8" d="M3976.9,6298.5v-172.2c0-4.3,3.5-7.8,7.8-7.8h133c4.3,0,7.8,3.5,7.8,7.8v172.2c0,17.3-14.1,31.4-31.4,31.4
				h-85.9C3991,6329.9,3976.9,6315.8,3976.9,6298.5z M3984.8,6124.8c-0.9,0-1.6,0.7-1.6,1.6v172.2c0,13.9,11.3,25.1,25.1,25.1h85.9
				c13.8,0,25.1-11.3,25.1-25.1v-172.2c0-0.9-0.7-1.6-1.6-1.6H3984.8z"/>
		</g>
	</g>
	<g>
		<path class="st8" d="M3539.7,5587.3c0-30.7,25-55.6,55.6-55.6s55.6,24.9,55.6,55.6c0,30.7-25,55.6-55.6,55.6
			S3539.7,5618,3539.7,5587.3z M3546,5587.3c0,27.2,22.1,49.4,49.4,49.4s49.4-22.1,49.4-49.4c0-27.2-22.1-49.4-49.4-49.4
			S3546,5560.1,3546,5587.3z"/>
	</g>
	<g>
		<path class="st8" d="M3425.7,5587.3c0-30.7,25-55.6,55.6-55.6s55.6,24.9,55.6,55.6c0,30.7-25,55.6-55.6,55.6
			S3425.7,5618,3425.7,5587.3z M3432,5587.3c0,27.2,22.1,49.4,49.4,49.4s49.4-22.1,49.4-49.4c0-27.2-22.1-49.4-49.4-49.4
			S3432,5560.1,3432,5587.3z"/>
	</g>
	<g>
		<path class="st8" d="M3647.8,5582.1c0.1,0,0.3,0,0.4,0l89-12.3c1.7-0.2,2.9-1.8,2.7-3.5c-0.2-1.7-1.8-2.9-3.5-2.7l-89,12.3
			c-1.7,0.2-2.9,1.8-2.7,3.5C3644.9,5581,3646.3,5582.1,3647.8,5582.1z"/>
	</g>
	<g id="XMLID_1000_">
		<g id="XMLID_998_">
			<path class="st12" d="M2749.8,6046.4c0,0,123.2-29.5,127.7-136.5c0,0-23.4,29.7-56.6,36.9
				C2820.8,5946.8,2746.1,5982.3,2749.8,6046.4z"/>
		</g>
		<g id="XMLID_997_">
			<path class="st12" d="M2610.8,6007.8c0,0-15.4,71.5,83.8,83.8c0,0,14.9-22.1-26.5-48.2c-6.5-4.1-14-6.4-21.6-7.7
				C2636.6,6034.1,2620.8,6028.3,2610.8,6007.8z"/>
		</g>
		<g id="XMLID_994_">
			<path class="st12" d="M2689.6,5875.7c0,0,106.6,106.4,31.3,197.7c0,0-23-11.6-37-50.6c-9.3-25.7-9.4-53.7-2.2-80
				C2685.8,5927.8,2689.8,5905.4,2689.6,5875.7z"/>
		</g>
		<g id="XMLID_992_">
			<path class="st12" d="M2801.4,6034.2c0,0,41.3-20.2,72.6,36c0,0-56.1-25.2-58.5,6.8c0,0-13.3,40.3-47.8,46.8
				C2767.7,6123.8,2747.7,6049.1,2801.4,6034.2z"/>
		</g>
		<g id="XMLID_981_">
			<path class="st13" d="M2755.2,6204.9c1.7,0,3-1.3,3.1-3c1.4-26.6-8.8-51.6-18.7-75.8c-7.1-17.3-14.4-35.2-17.3-53.6
				c-1.6-10.2-2-20.8-2.3-31.1l-0.1-3.6c-1.4-41.4-5.2-83.2-11.5-124.2c-0.3-1.7-1.9-2.9-3.6-2.6c-1.7,0.3-2.9,1.9-2.6,3.6
				c6.2,40.7,10.1,82.3,11.4,123.5l0.1,3.6c0.3,10.5,0.7,21.3,2.4,31.8c3.1,19,10.5,37.3,17.7,54.9c10,24.6,19.5,47.9,18.2,73.1
				c-0.1,1.7,1.2,3.2,3,3.3C2755.1,6204.9,2755.1,6204.9,2755.2,6204.9z"/>
		</g>
		<g id="XMLID_988_">
			<path class="st13" d="M2732.2,6188.5c1.5,0,2.9-1.1,3.1-2.7c5.1-36.1-3.5-68.3-23.7-88.2c-9.6-9.5-21.7-16.2-33.4-22.6
				c-14.9-8.2-29-16-38.1-29.1c-1-1.4-2.9-1.8-4.4-0.8c-1.4,1-1.8,2.9-0.8,4.4c9.9,14.3,25.3,22.8,40.2,31c11.3,6.2,23,12.7,32,21.6
				c18.8,18.6,26.7,48.8,21.9,82.9c-0.2,1.7,0.9,3.3,2.7,3.5C2731.9,6188.5,2732,6188.5,2732.2,6188.5z"/>
		</g>
		<g id="XMLID_989_">
			<path class="st13" d="M2746.8,6165c1.1,0,2.3-0.6,2.8-1.7c8.2-16.4,7.5-35.6,6-50.5c-0.4-3.7-0.8-7.4-1.2-11.1
				c-1.5-12.5-3-25.4-1.6-37.9c2.3-19.4,12.1-37.9,26.9-50.8c9.7-8.4,21.5-14.4,32.9-20.3c4.3-2.2,8.8-4.5,13.1-6.9
				c21-11.7,33.4-24,39.2-38.9c0.6-1.6-0.2-3.4-1.8-4.1c-1.6-0.6-3.4,0.2-4.1,1.8c-5.2,13.4-16.7,24.8-36.4,35.7
				c-4.2,2.4-8.7,4.6-12.9,6.8c-11.7,6-23.9,12.2-34.1,21.1c-16,13.8-26.5,33.8-29,54.8c-1.6,13.2,0,26.5,1.6,39.4
				c0.4,3.6,0.9,7.3,1.2,11c1.4,14.1,2.1,32.2-5.4,47.1c-0.8,1.5-0.1,3.4,1.4,4.2C2745.9,6164.8,2746.4,6165,2746.8,6165z"/>
		</g>
		<g id="XMLID_990_">
			<path class="st13" d="M2734.8,6198.1c1.6,0,2.9-1.2,3.1-2.8c2.1-17,11.5-32.7,19.8-46.6l48.2-80.7c2-3.4,4.2-7,7.2-9.2
				c4.1-3.1,9.6-3.8,14.1-4c8.5-0.5,17,0.4,25.3,2.5c1.7,0.4,3.4-0.6,3.8-2.2c0.4-1.7-0.6-3.4-2.2-3.8c-8.9-2.4-18.1-3.3-27.3-2.7
				c-5.3,0.3-12.1,1.2-17.5,5.3c-4,3-6.5,7.3-8.8,11l-48.2,80.7c-8.6,14.4-18.4,30.8-20.6,49.1c-0.2,1.7,1,3.3,2.7,3.5
				C2734.5,6198.1,2734.6,6198.1,2734.8,6198.1z"/>
		</g>
		<g id="XMLID_972_">
			<path class="st2" d="M2689.8,6326.8h82.6c9.6,0,17.8-7.1,19.2-16.6l21.9-152.1h-159.9l16.9,151.5
				C2671.7,6319.4,2680,6326.8,2689.8,6326.8z"/>
		</g>
		<g id="XMLID_1001_">
			<path class="st8" d="M2667.5,6309.9l-17.3-154.9h167l-22.4,155.6c-1.6,11-11.2,19.3-22.3,19.3h-82.6
				C2678.4,6329.9,2668.7,6321.3,2667.5,6309.9z M2657.1,6161.2l16.6,148c0.9,8.2,7.9,14.4,16.1,14.4h82.6c8,0,14.9-6,16.1-13.9
				l21.4-148.5H2657.1L2657.1,6161.2z"/>
		</g>
		<g id="XMLID_888_">
			<path class="st2" d="M2645.8,6175.8h175.5c1.4,0,2.6-1.2,2.6-2.6v-19.3c0-1.4-1.2-2.6-2.6-2.6h-175.5c-1.4,0-2.6,1.2-2.6,2.6
				v19.3C2643.2,6174.6,2644.4,6175.8,2645.8,6175.8z"/>
		</g>
		<g id="XMLID_95_">
			<path class="st8" d="M2648.3,6178.9h108.3c1.7,0,3.1-1.4,3.1-3.1s-1.4-3.1-3.1-3.1h-108.3c-1.1,0-1.9-0.9-1.9-1.9v-14.4
				c0-1.1,0.9-2,1.9-2h170.6c1.1,0,1.9,0.9,1.9,2v14.4c0,1.1-0.9,1.9-1.9,1.9H2794c-1.7,0-3.1,1.4-3.1,3.1s1.4,3.1,3.1,3.1h24.9
				c4.5,0,8.2-3.7,8.2-8.2v-14.4c0-4.5-3.7-8.2-8.2-8.2h-170.6c-4.5,0-8.2,3.7-8.2,8.2v14.4
				C2640.1,6175.2,2643.8,6178.9,2648.3,6178.9z"/>
		</g>
	</g>
	<g>
		<g>
			<path class="st9" d="M3097.3,5359.9h34.9v96.9h-34.9V5359.9z M3097.3,5480.9h34.9v29.2h-34.9V5480.9z"/>
		</g>
	</g>
	<g>
		<g>
			<path class="st9" d="M3288,5668.8l19.5,6.9l-19.1,54l-19.5-6.9L3288,5668.8z M3264.2,5736.3l19.5,6.9l-5.8,16.3l-19.5-6.9
				L3264.2,5736.3z"/>
		</g>
	</g>
	<g>
		<g>
			<path class="st9" d="M2869.7,5720.7l15.8-13.8l38.2,43.9l-15.8,13.8L2869.7,5720.7z M2917.4,5775.5l15.8-13.8l11.5,13.2
				l-15.8,13.8L2917.4,5775.5z"/>
		</g>
	</g>
	<g>
		<path class="st8" d="M3465.8,6187.9c1.7,0,3.1-1.4,3.1-3.1l0.5-84.2c0-1.7-1.4-3.1-3.1-3.1c0,0,0,0,0,0c-1.7,0-3.1,1.4-3.1,3.1
			l-0.5,84.2C3462.6,6186.4,3464,6187.8,3465.8,6187.9C3465.8,6187.9,3465.8,6187.9,3465.8,6187.9z"/>
	</g>
</g>
<g>
	<g>
		<defs>
			<polygon id="SVGID_00000155842244820619751860000004647362244817275047_" points="2771.5,5488.5 2938.8,5363.9 3063.3,5531.7 
				2896,5656.2 			"/>
		</defs>
		<clipPath id="SVGID_00000103981208640367342920000000598215886577353400_">
			<use xlink:href="#SVGID_00000155842244820619751860000004647362244817275047_"  style="overflow:visible;"/>
		</clipPath>
		<g style="clip-path:url(#SVGID_00000103981208640367342920000000598215886577353400_);">
			<path class="st9" d="M2869.3,5433.3l76.5,102.8c0.4,0.5,0.3,1.2-0.2,1.6c-4.1,3.2-8.4,6.1-12.1,9.5c-0.4,0.3-0.9,0.4-1.3,0.2
				c-0.9-0.5-1.2-1.3-1.7-2c-11.1-14.9-22.2-29.8-33.2-44.7c-10.6-14.4-21.2-28.7-31.8-43.1c-6.1-8.3-5.2-17.6,2.2-24.5
				C2868,5432.7,2868.9,5432.7,2869.3,5433.3z"/>
			<path class="st9" d="M2863.4,5481.4l55.9,75.2c0.6,0.8,0.5,2-0.2,2.6c-2.6,2.4-5.2,4.8-7.8,7.1c-0.9,0.8-2.3,0.7-3-0.4
				c-0.2-0.3-0.4-0.7-0.6-1c-16-21.5-31.8-43.2-47.9-64.6c-4.5-6-3.9-13.6,0.5-19C2861.1,5480.3,2862.6,5480.4,2863.4,5481.4z"/>
			<path class="st9" d="M2901.9,5451c-0.3-0.4-0.2-1,0.3-1.2c6.1-3.3,13.8-2.1,18.1,3.6c17,22.5,33.7,45.1,50.5,67.7l0,0
				c0.3,0.4,0.2,0.9-0.2,1.2c-3.4,2-6.7,4-10.2,6c-0.4,0.2-0.9,0.1-1.1-0.2L2901.9,5451z"/>
			<path class="st9" d="M2860,5523.5l38.9,52.2c0.6,0.8,0.5,1.9-0.1,2.6c-1.8,2-3.7,4-5.6,6.1c-0.9,0.9-2.4,0.9-3.1-0.1c0,0,0,0,0,0
				c-11.3-15.3-22.7-30.6-34-45.9c-3.7-5-3.2-11.2,0.9-15.1C2857.9,5522.4,2859.3,5522.6,2860,5523.5z"/>
			<path class="st9" d="M2993.1,5506.8c1,1.4,0.6,3.4-1,4.2c0,0,0,0,0,0c-2,1-4,1.9-6.1,2.8c-1.2,0.6-2.6,0.2-3.4-0.9l-37.9-50.9
				c-1.1-1.5-0.4-3.7,1.4-4.3c4.6-1.6,10.2-0.1,13.3,4c9.9,13.1,19.7,26.4,29.6,39.6C2990.2,5503,2991.6,5504.8,2993.1,5506.8z"/>
		</g>
	</g>
</g>
<path class="st9" d="M2945.1,5547.3c-30.9,23-51,50.8-58.9,63.4c-1,1.6,0.9,3.3,2.4,2.2l136.1-101.3c1.5-1.1,0.3-3.4-1.4-2.9
	C3008.7,5512.8,2976,5524.3,2945.1,5547.3z"/>
<path class="st15" d="M3933.8,5341.1c-45.4-0.4-82.4,36.6-82,82c0.4,44.1,36.4,80.1,80.5,80.5c45.4,0.4,82.4-36.6,82-82
	C4013.9,5377.5,3977.8,5341.5,3933.8,5341.1z M3931.6,5348.2c42.1-0.8,76.3,33.4,75.6,75.5c-0.7,39.7-33.1,72.1-72.8,72.8
	c-42.1,0.8-76.3-33.4-75.6-75.5C3859.6,5381.3,3892,5348.9,3931.6,5348.2z M3933,5372.9c-5.9,0-10.6,4.7-10.6,10.6
	c0,5.9,4.7,10.6,10.6,10.6s10.6-4.7,10.6-10.6C3943.6,5377.7,3938.9,5372.9,3933,5372.9z M3918.9,5408.2v7.1h3.5h3.5v45.9h-3.5h-3.5
	v7.1h3.5h3.5h14.1h3.5h3.5v-7.1h-3.5h-3.5v-53h-3.5h-14.1H3918.9L3918.9,5408.2z"/>
<linearGradient id="SVGID_00000065052041799307937420000017032052157528685955_" gradientUnits="userSpaceOnUse" x1="-245.2387" y1="-2011.9861" x2="2342.1655" y2="-2011.9861" gradientTransform="matrix(1 0 0 -1 0 1417.3228)">
	<stop  offset="0" style="stop-color:#20303A"/>
	<stop  offset="4.370000e-02" style="stop-color:#22343F"/>
	<stop  offset="0.2913" style="stop-color:#2E4754"/>
	<stop  offset="0.5021" style="stop-color:#355463"/>
	<stop  offset="0.6656" style="stop-color:#385C6C"/>
	<stop  offset="0.7619" style="stop-color:#395E6F"/>
</linearGradient>
<path style="fill:url(#SVGID_00000065052041799307937420000017032052157528685955_);" d="M1660.7,4281.4
	c120.9-6.5,255.9-83.8,300.3-194c52-129.4-57.9-220.4,0-306.4c81-120.2,304.6-9.8,407.5-128.7c93.7-108.3,53-367.3-79.7-447.3
	c-163.4-98.6-341.2,149.9-585.2,70.5c-164-53.4-148-186.7-395.2-407.5c-101.2-90.4-254.1-227-459.6-278.8
	c-287.6-72.6-656.4,32.6-882.4,303.3c-265,317.4-273.5,791-68.4,1068.3c96.1,130,225.8,198.8,279.8,226.7
	c57.4,29.7,286.3,144.3,553.5,89.9c261.7-53.3,275.7-210.6,461.6-202.2C1405.3,4084.7,1450.9,4292.8,1660.7,4281.4z"/>
<g>
	<g id="XMLID_00000178923530114178039130000010354557058457226404_">
		<g id="XMLID_00000090280699120860950320000011707166728230525605_">
			<g id="XMLID_00000177454080597685081960000004165754110070614191_">
				<path class="st8" d="M3937.7,3445.6l8.7-46.9c-7.5-16.8-11.4-35.4-10.6-55.1c2.6-64.3,55.5-116.3,119.9-117.8
					c70.4-1.6,127.7,56,125.7,126.4c-1.8,63.2-52.3,115.2-115.4,119c-26.8,1.6-51.7-5.5-72.6-18.6l-41.1,7.5
					C3943.6,3461.8,3936.1,3454.2,3937.7,3445.6z"/>
			</g>
		</g>
	</g>
	<g>
		<g>
			<path class="st9" d="M3386.9,3455c1.2-3.4,1.8-6.2,1.6-8.5c-0.2-2.3-1.3-4.8-3.3-7.5c-3.8-4.2-6.4-8.9-7.9-14.3
				c-1.5-5.4-1.3-10.6,0.6-15.7c3-8.3,8.2-13.9,15.6-16.7c7.3-2.9,15.9-2.5,25.6,1c9,3.3,15.5,8.1,19.5,14.4c4,6.3,4.3,13.6,1.1,22
				l-0.3,0.3l-20.1-7.4c1.1-3.3,1.1-6.2-0.1-8.5s-3.2-4-5.9-5c-3.4-1.2-6.4-1.2-8.9,0.2c-2.6,1.4-4.5,3.8-5.7,7.2
				c-1.2,3.3-1.5,6.5-0.9,9.6c0.6,3.1,2,6,4.1,8.7c3.9,5.6,6.4,10.3,7.3,13.8c0.9,3.6,0.4,8.2-1.6,13.9L3386.9,3455z M3383.7,3464
				l20.5,7.5l-6,16.5l-20.5-7.5L3383.7,3464z"/>
		</g>
	</g>
	<g>
		<path class="st8" d="M2610,4254.2H4369c1.7,0,3.1-1.4,3.1-3.1s-1.4-3.1-3.1-3.1H2610c-1.7,0-3.1,1.4-3.1,3.1
			C2606.9,4252.7,2608.3,4254.2,2610,4254.2z"/>
	</g>
	<g>
		<path class="st2" d="M3182.8,3746.5l-9.4-22c-7.3-17.1-11.5-35.3-12.6-53.8l-3.4-57.5c0,0-1.4-24.2,7.3-27.7s61.4-20.6,61.4-20.6
			l1.2-79c0.1-5.7,4.5-10.4,10.2-10.9l0,0c6-0.5,11.3,3.8,12,9.7l16,130.7c0.6,4.5,6.5,5.7,8.8,1.8l13.3-22.9c3.7-6.4,11.6-9,18.4-6
			l0.2,0.1c2.5,1.1,3.8,3.7,3.2,6.3l-13.4,59c-1.1,4.9-3.3,9.4-6.5,13.3l-3.4,4.2c-8.1,10-12.7,22.3-13,35.1l-0.6,23.4
			L3182.8,3746.5z"/>
	</g>
	<g>
		<path class="st8" d="M3170.5,3725.8c-7.4-17.5-11.8-35.9-12.9-54.9l-3.4-57.5c-0.2-4.4-1-26.7,9.3-30.8c7.8-3.2,49.4-16.7,59.5-20
			l1.2-76.8c0.1-7.3,5.7-13.4,13-14c7.7-0.7,14.4,4.8,15.4,12.5l16,130.7c0.1,1,0.9,1.3,1.3,1.4c0.3,0.1,1.2,0.1,1.7-0.8l13.3-22.9
			c4.5-7.8,14.1-10.9,22.5-7.2c3.8,1.7,5.9,5.8,5,9.9l-13.4,59c-1.2,5.3-3.7,10.4-7.1,14.6l-3.4,4.2c-7.6,9.4-12,21.2-12.3,33.2
			l-0.7,25.9l-94.5,17.7L3170.5,3725.8z M3269.8,3706.3c0.4-13.5,5.2-26.6,13.7-37l3.4-4.2c2.8-3.5,4.9-7.6,5.9-12l13.4-59
			c0.3-1.1-0.3-2.3-1.6-2.8c-5.3-2.3-11.5-0.3-14.4,4.7l-13.3,22.9c-1.7,3-5,4.5-8.4,3.8c-3.4-0.7-5.8-3.3-6.2-6.8l-16-130.7
			c-0.5-4.3-4.3-7.4-8.6-7c-4.1,0.4-7.2,3.7-7.3,7.8l-1.2,81.3l-2.1,0.7c-0.5,0.2-52.7,17.1-61.2,20.5c-4.5,1.8-5.9,15.8-5.4,24.6
			l3.4,57.5c1.1,18.2,5.3,36,12.4,52.8l8.4,19.7l84.6-15.8L3269.8,3706.3z"/>
	</g>
	<g>
		<path class="st8" d="M3183.2,3653c1.5,0,2.9-0.3,4.4-0.8c3.4-1.3,6.2-4.1,7.7-7.6c14-32.5-13.5-64.5-14.7-65.9
			c-1.1-1.3-3.1-1.4-4.4-0.3c-1.3,1.1-1.4,3.1-0.3,4.4c0.3,0.3,26.1,30.5,13.7,59.3c-0.9,2-2.4,3.5-4.2,4.2c-1.6,0.6-3,0.6-4.4-0.1
			c-2.4-1.2-6-4.8-9.4-15.3c-0.5-1.7-2.3-2.6-3.9-2c-1.6,0.5-2.6,2.3-2,3.9c3.3,10.3,7.4,16.6,12.6,19.1
			C3179.8,3652.6,3181.5,3653,3183.2,3653z"/>
	</g>
	<g>
		<path class="st8" d="M3203.7,3653.9c2.7,0,5-0.9,6.7-1.9c3.4-1.9,6-5.2,7.3-9.1c14.9-44.3-15-71.6-15.3-71.9
			c-1.3-1.1-3.3-1-4.4,0.2s-1,3.3,0.2,4.4c1.1,1,27.1,25,13.6,65.2c-0.8,2.5-2.4,4.5-4.5,5.7c-1.5,0.8-6.1,3.4-12.2-5.2
			c-1-1.4-3-1.7-4.4-0.7c-1.4,1-1.7,3-0.7,4.4C3194.8,3651.9,3199.7,3653.9,3203.7,3653.9z"/>
	</g>
	<g>
		<path class="st8" d="M3225.8,3652.8c1.3,0,2.7-0.3,4.1-0.8c3.9-1.5,7.1-4.7,8.6-8.9c15-40.8-8.6-78.4-9.6-80
			c-0.9-1.5-2.9-1.9-4.3-0.9c-1.5,0.9-1.9,2.9-0.9,4.3c0.2,0.4,22.9,36.6,9,74.4c-0.9,2.5-2.7,4.3-4.9,5.2c-1.4,0.5-2.5,0.5-3.5,0
			c-2-1.1-3.9-4.4-5.1-9.3c-0.4-1.7-2.1-2.7-3.8-2.3c-1.7,0.4-2.7,2.1-2.3,3.8c1.8,7,4.5,11.4,8.3,13.4
			C3222.7,3652.5,3224.2,3652.8,3225.8,3652.8z"/>
	</g>
	<g>
		<ellipse class="st8" cx="3747.6" cy="3660.8" rx="100.5" ry="21.6"/>
	</g>
	<g>
		
			<ellipse transform="matrix(0.5613 -0.8276 0.8276 0.5613 -1222.7625 4727.958)" class="st2" cx="3848.3" cy="3517.4" rx="29.1" ry="29.1"/>
	</g>
	<g>
		<path class="st8" d="M3844.5,3549.5c-8.6-1-16.2-5.4-21.5-12.2c-5.3-6.8-7.6-15.2-6.6-23.8c2.2-17.6,18.3-30.2,36-28.1
			c8.6,1,16.2,5.4,21.5,12.2c5.3,6.8,7.6,15.2,6.6,23.8c-1.1,8.5-5.4,16.2-12.2,21.5c-5.7,4.5-12.6,6.8-19.8,6.8
			C3847.2,3549.7,3845.9,3549.6,3844.5,3549.5z M3822.7,3514.3c-0.9,6.9,1,13.7,5.3,19.2c4.3,5.5,10.4,9,17.3,9.8
			c6.9,0.8,13.7-1,19.2-5.3c5.5-4.3,8.9-10.4,9.8-17.3c0.9-6.9-1-13.7-5.3-19.2c-4.3-5.5-10.4-9-17.3-9.8c-1.1-0.1-2.1-0.2-3.2-0.2
			C3835.5,3491.4,3824.3,3501.1,3822.7,3514.3z"/>
	</g>
	<g>
		<path class="st2" d="M3835.7,3549.6v164.8c0,9-4.2,17.4-11.2,22.1l-116.1,78.3l-33.1-69.5c-4.9-10.3-7.5-21.8-7.5-33.5v-65.4
			L3835.7,3549.6z"/>
	</g>
	<g>
		<path class="st8" d="M3707.2,3819.3l119.1-80.3c7.9-5.3,12.6-14.5,12.6-24.7v-164.7h-6.3v164.8c0,7.9-3.8,15.4-9.8,19.5l-113,76.2
			l-31.5-66.2c-4.7-9.9-7.2-21-7.2-32.2v-65.4h-6.3v65.4c0,12.1,2.7,24.2,7.8,34.9L3707.2,3819.3z"/>
	</g>
	<g>
		<path class="st2" d="M3680.4,3659.7L3680.4,3659.7c72.9,9,140.7-39,156.4-110.8l32.3-147.4c0,0-242.4-95.5-264.3-32.6
			c-17.5,50.1-14.5,138.3-9,202.7C3599.6,3617.3,3634.9,3654.1,3680.4,3659.7z"/>
	</g>
	<g>
		<path class="st8" d="M3698.4,3663.9c30.2,0,59.6-9.2,84.1-26.7c30.2-21.5,50.9-54.2,58.3-92.1c0.3-1.7-0.8-3.4-2.5-3.7
			c-1.7-0.3-3.4,0.8-3.7,2.5c-13.3,67.4-70.3,113.7-136.4,113.7c-5.8,0-11.6-0.3-17.5-1.1c-43.8-5.4-78.2-41.3-81.9-85.3
			c-3.1-36.1-4.1-88.4-2.6-127.2c0.1-1.7-1.3-3.2-3-3.2c-1.7-0.1-3.2,1.3-3.2,3c-1.5,39-0.4,91.6,2.6,127.9
			c4,46.9,40.8,85.2,87.4,90.9C3686.2,3663.5,3692.3,3663.9,3698.4,3663.9z"/>
	</g>
	<g>
		<path class="st1" d="M3763.8,3438.1c6.1-3.1,11.9-6.7,18.5-9.4c1.4-0.6,3.4-1.2,4.8-0.2c0.8,0.5,1.1,1.3,1.4,2.1
			c1.6,4.8,1.7,10.5,2.8,15.4c5.6,26.2,16.2,51.2,33.2,72c2.6,3.2,6.2,6.6,10.3,5.9c2.6-0.5,4.5-2.5,6.2-4.4
			c27.5-30,58.4-83.5,44.3-125.7c-3.9-11.7-13.1-22.1-25.1-25c-12-2.9-26.2,3.6-29.8,15.4c8.6-28.5-34.5-60.2-58.6-63.2
			c-12.9-1.7-26.9-1.1-37.8,6.1c3.9-3-26.8-34.3-30.9-37.6c-19.6-15.7-41.6-26.2-67.2-27.1c-33.1-1.2-66.8,14.5-85.7,41.7
			c-13.1,18.7-18.4,42-16.9,64.6c1.8,26.5,10.4,48.8,30.7,66.1c34.7,29.6,91.2,23.1,128.2,1.6c1.2-0.7,14-9.2,13.6-9.6
			c8.7,10.2,22.7,16.5,36.4,17C3750.4,3444,3757.3,3441.4,3763.8,3438.1z"/>
	</g>
	<g>
		<path class="st8" d="M3652.4,3586.9c0.3,0,0.6,0,0.9-0.1l15.4-2.7c1.7-0.3,2.9-1.9,2.6-3.6c-0.3-1.7-1.9-2.9-3.6-2.6l-13.4,2.3
			l8.2-33c0.4-1.7-0.6-3.4-2.3-3.8c-1.7-0.4-3.4,0.6-3.8,2.3l-8.8,35.4c-0.3,1.6,0.3,3.2,1.4,4.3
			C3649.8,3586.4,3651.1,3586.9,3652.4,3586.9z"/>
	</g>
	<g>
		<path class="st8" d="M3683.3,3613.3c5.1,0,9.4-1.4,12.7-4.3c6.6-5.6,6.7-14.6,6.7-15c0-1.7-1.4-3.1-3.1-3.2c0,0,0,0,0,0
			c-1.7,0-3.1,1.4-3.1,3.1c0,0.1-0.2,6.6-4.6,10.3c-2.9,2.4-7.1,3.2-12.5,2.4c-1.7-0.3-3.3,0.9-3.6,2.6c-0.3,1.7,0.9,3.3,2.6,3.6
			C3680.2,3613.2,3681.8,3613.3,3683.3,3613.3z"/>
	</g>
	<g>
		<path class="st8" d="M3633.4,3491.5c0.9,0,1.8-0.4,2.4-1.1c1.1-1.3,0.9-3.3-0.4-4.4c-0.6-0.5-15.6-12.7-35.1-4.4
			c-1.6,0.7-2.3,2.5-1.7,4.1c0.7,1.6,2.5,2.3,4.1,1.6c16-6.8,28.5,3.4,28.6,3.5C3632,3491.2,3632.7,3491.5,3633.4,3491.5z"/>
	</g>
	<g>
		<path class="st8" d="M3699.5,3497.1c0.6,0,1.2-0.2,1.7-0.5c14.4-9.5,28.2-2.1,28.8-1.8c1.5,0.8,3.4,0.3,4.3-1.2s0.3-3.4-1.2-4.2
			c-0.7-0.4-17.6-9.7-35.3,2c-1.4,0.9-1.8,2.9-0.9,4.3C3697.5,3496.6,3698.5,3497.1,3699.5,3497.1z"/>
	</g>
	<g>
		<path class="st8" d="M3607.2,3512.8c-0.6,4.4,2,8.4,5.8,8.9c3.7,0.5,7.2-2.8,7.7-7.2s-2-8.4-5.8-8.9
			C3611.2,3505.2,3607.8,3508.4,3607.2,3512.8z"/>
	</g>
	<g>
		<path class="st8" d="M3703.6,3517.8c-0.6,4.4,2,8.4,5.8,8.9c3.7,0.5,7.2-2.8,7.7-7.2s-2-8.4-5.8-8.9
			C3707.6,3510.1,3704.1,3513.4,3703.6,3517.8z"/>
	</g>
	<g>
		<path class="st2" d="M3321.9,3756.7l63,258.4l120.8-209.9c29.6-52,84.8-84,144.6-83.8v-58.4h0.5c4.7,10.9,46.2,19.5,96.7,19.5
			c49.7,0,90.7-8.3,96.5-19h0.8v58.5c38.7,0.1,76.2,13,106.9,36.7c101,78.1,315.2,266.1,248.1,410.3
			c-22.7,48.9-72.4,79.5-126.3,80.8l-802.5,1.4c0,0-121.5-126.1-122.6-465.1c-0.1-20.5,14.8-38.1,35.1-41.4l92.1-15.2
			C3295.6,3725.9,3315.1,3737.5,3321.9,3756.7z"/>
	</g>
	<g>
		<path class="st8" d="M3268.7,4253.2c-1.3-1.3-31.1-32.8-61.5-106.4c-27.9-67.7-61.4-185.2-61.9-360.9
			c-0.1-22.2,15.8-40.9,37.7-44.5l92.1-15.2c21.6-3.6,42.6,8.8,49.8,29.5l61.2,251l116.9-203.1c29.6-52,84.6-84.5,144.2-85.4v-58.5
			l5.7,0l0.8,1.9c3.7,8.5,42.3,17.6,93.8,17.6c52.1,0,89.2-9,93.7-17.4l0.9-1.7l5.8,0v58.5c38.1,0.8,75.5,14,105.6,37.3
			c54.2,41.9,130.8,107.4,187.7,180.9c70.4,91,91,169.5,61.4,233.1c-22.8,48.9-73.4,81.3-129.1,82.6l-802.5,1.4h-1.3L3268.7,4253.2z
			 M3747.5,3685.6c-37,0-78.6-4.9-94-15.4v54.3l-3.1,0c-0.2,0-0.3,0-0.5,0c-58.4,0-112.5,31.5-141.4,82.3l-124.7,216.6l-64.8-265.8
			c-6.3-17.7-24.3-28.3-42.9-25.3l-92.1,15.2c-18.9,3.1-32.5,19.2-32.4,38.3c0.6,174.3,33.6,290.9,61.3,358.1
			c27.1,65.7,54.4,98.1,59.6,103.9l801-1.4c53.3-1.2,101.7-32.2,123.5-79c66.5-142.9-150.7-331.9-247.2-406.5
			c-29.9-23.1-67.1-35.9-104.9-36l-3.1,0v-54.9C3826.1,3680.7,3784.3,3685.6,3747.5,3685.6z"/>
	</g>
	<g>
		<path class="st8" d="M3746.8,3751.3c56.4,0,87.4-21.5,88.8-22.5c1.4-1,1.8-2.9,0.8-4.4c-1-1.4-2.9-1.8-4.4-0.8
			c-0.3,0.2-35,24.1-96.4,21c-1.7,0-3.2,1.2-3.3,3s1.2,3.2,3,3.3C3739.2,3751.2,3743,3751.3,3746.8,3751.3z"/>
	</g>
	<g>
		<path class="st8" d="M3796.2,3768.6c0.1,0,0.2,0,0.3,0c34.2-3.3,57.6-23.9,58.6-24.8c1.3-1.2,1.4-3.1,0.2-4.4
			c-1.1-1.3-3.1-1.4-4.4-0.2c-0.2,0.2-22.9,20.2-55,23.2c-1.7,0.2-3,1.7-2.8,3.4C3793.2,3767.4,3794.6,3768.6,3796.2,3768.6z"/>
	</g>
	<g>
		<path class="st8" d="M3914.8,4048.3c0,0,0.1,0,0.1,0c1.7-0.1,3.1-1.5,3-3.2c-1-25.4,13.6-35.2,14.2-35.6c1.4-0.9,1.9-2.9,0.9-4.3
			c-0.9-1.4-2.9-1.9-4.3-0.9c-0.7,0.5-18.2,12-17.1,41.1C3911.7,4047,3913.1,4048.3,3914.8,4048.3z"/>
	</g>
	<g>
		<path class="st10" d="M3322.8,4251h345.6c11.6,0,20.9-9.4,20.9-20.9v-27.5h-366.6V4251z"/>
	</g>
	<g>
		<g>
			<path class="st0" d="M2944.8,4251h541.8L3374,3952.8c-10.2-27.1-36.2-45-65.1-45h-439.1c-26.4,0-44.6,26.4-35.3,51.1L2944.8,4251
				z"/>
		</g>
		<g>
			<ellipse class="st3" cx="3153.6" cy="4085.3" rx="31.3" ry="31.3"/>
		</g>
	</g>
	<g>
		<path class="st8" d="M3950.4,4254.2c51.4,0,97.3-0.8,123.1-1.4c1.7,0,3.1-1.5,3.1-3.2c0-1.7-1.4-3.1-3.1-3.1c0,0-0.1,0-0.1,0
			c-156.8,3.5-337.4,1.2-374.4-15.7c-49.1-22.5-35.4-110.1-32.1-127.4c1.6-8.5,8.7-14.7,17.3-15.2l274-26.8c1.7-0.2,3-1.7,2.8-3.4
			s-1.7-3-3.4-2.8l-273.9,26.8c-11.4,0.6-20.9,9-23,20.3c-4.8,25.5-16.4,110.5,35.6,134.3C3727.9,4251,3849.6,4254.2,3950.4,4254.2z
			"/>
	</g>
	<g>
		<path class="st2" d="M3682.3,4119.2l-94.8,5.1l-105.2,55.6c-5.3,2.8-7.4,9.3-4.8,14.7l0,0c2.6,5.2,8.7,7.6,14.1,5.4l68.5-27.9
			c1.2-0.5,2,1.1,1,1.8l-70.9,47.9c-5,3.4-6.2,10.1-2.8,15.1l0,0c3.2,4.6,9.5,5.9,14.3,3l80-48.2c0.8-0.5,1.6,0.6,0.9,1.2
			l-31.1,28.4c-7,6.4-3.9,18,5.4,20.1l0,0c2.9,0.6,6,0.1,8.6-1.4l32.6-19.6l86.1,0.6c28.3,0.2,51.3-22.7,51.3-51l0,0
			C3735.4,4141.1,3711.3,4117.9,3682.3,4119.2z"/>
	</g>
	<g>
		<path class="st8" d="M3556.2,4244.5c-5.4-1.2-9.7-5.3-11.1-10.7s0.2-11,4.3-14.8l13.6-12.5l-59.8,36c-6.2,3.7-14.3,2-18.5-3.9
			c-2.2-3.1-3-6.8-2.3-10.5c0.7-3.7,2.8-6.9,5.9-9l54.3-36.7l-49.9,20.3c-6.9,2.8-14.9-0.2-18.1-6.9c-3.4-6.9-0.7-15.2,6.1-18.8
			l105.2-55.6l0.6-0.3l95.5-5.1h0c14.9-0.6,29,4.7,39.8,15c10.8,10.3,16.7,24.2,16.7,39.1c0,14.5-5.7,28.1-16,38.4
			c-10.2,10.2-23.8,15.7-38.2,15.7c-0.1,0-0.2,0-0.3,0l-85.2-0.6l-31.9,19.1c-2.3,1.4-5,2.1-7.6,2.1
			C3558.4,4244.9,3557.3,4244.7,3556.2,4244.5z M3684.2,4218c0.1,0,0.2,0,0.3,0c12.7,0,24.7-4.9,33.7-13.9
			c9.1-9,14.1-21.1,14.1-33.9c0-13.2-5.2-25.4-14.8-34.6c-9.5-9.1-22-13.8-35.1-13.2l-94.1,5.1l-104.6,55.2c-3.8,2-5.3,6.6-3.4,10.5
			c1.8,3.7,6.3,5.4,10.1,3.9l68.5-27.9c2-0.8,4.2,0,5.3,1.9c1,1.9,0.4,4.2-1.4,5.4l-70.9,47.9c-1.7,1.1-2.8,2.9-3.2,4.9
			c-0.4,2,0.1,4.1,1.3,5.7c2.3,3.2,6.7,4.2,10.1,2.1l80-48.2c1.7-1,3.9-0.6,5.1,1c1.2,1.6,1,3.9-0.5,5.2l-31.1,28.4
			c-2.4,2.2-3.4,5.4-2.5,8.6c0.8,3.2,3.2,5.5,6.4,6.2c2.1,0.5,4.4,0.1,6.3-1l33.4-20L3684.2,4218z"/>
	</g>
	<g>
		<path class="st8" d="M3762.8,4161.7c0,0,0.1,0,0.1,0c1.7-0.1,3.1-1.5,3-3.3c-0.9-21.8-13.8-41.2-33.6-50.5
			c-1.6-0.7-3.4-0.1-4.2,1.5c-0.7,1.6-0.1,3.4,1.5,4.2c17.7,8.3,29.2,25.6,30,45.1C3759.7,4160.4,3761.1,4161.7,3762.8,4161.7z"/>
	</g>
	<g>
		<path class="st8" d="M3223.2,3692.9c0,0,0.1,0,0.1,0c1.7-0.1,3.1-1.5,3-3.2c-1-29,28.4-36.6,29.6-36.9c1.7-0.4,2.7-2.1,2.3-3.8
			c-0.4-1.7-2.1-2.7-3.8-2.3c-0.4,0.1-35.5,9.1-34.4,43.2C3220.2,3691.6,3221.6,3692.9,3223.2,3692.9z"/>
	</g>
	<g id="XMLID_00000116957152706946004090000014423705295351450031_">
		<g id="XMLID_00000032618339793607154800000004564961158086566534_">
			<path class="st8" d="M4231.9,3968.6L4231.9,3968.6c5.8,0,10.5,4.9,10.5,10.9l-20.5,107.4h-21.1l20.5-107.4
				C4221.4,3973.5,4226.1,3968.6,4231.9,3968.6z"/>
		</g>
		<g id="XMLID_00000028301514669607041840000005032888357353468604_">
			<path class="st11" d="M4118.9,3968.6L4118.9,3968.6c-5.8,0-10.5,4.9-10.5,10.9l20.5,107.4h21l-20.5-107.4
				C4129.5,3973.5,4124.7,3968.6,4118.9,3968.6z"/>
		</g>
		<g id="XMLID_00000173877160074603865800000010870622680013675943_">
			<path class="st11" d="M4188.1,3968.6h14.8c1.7,0,3.1,1.4,3.1,3.1V4087h-21v-115.2C4184.9,3970,4186.3,3968.6,4188.1,3968.6z"/>
		</g>
		<g id="XMLID_00000053543451408478097830000009900081932872977329_">
			<path class="st10" d="M4147,3968.6h14.8c1.7,0,3.1,1.4,3.1,3.1V4087h-21v-115.2C4143.9,3970,4145.3,3968.6,4147,3968.6z"/>
		</g>
		<g id="XMLID_00000092421384711592950740000016684382158398782598_">
			<path class="st8" d="M4168.8,3957L4168.8,3957c5.8,0,10.5,4.9,10.5,10.9l10.3,119.1h-21l-10.3-119.1
				C4158.3,3961.9,4163,3957,4168.8,3957z"/>
		</g>
		<g id="XMLID_00000170246819185298281450000014998201204816880029_">
			<path class="st2" d="M4119,4251.9h115.4c7.5,0,13.5-6.1,13.5-13.5V4049c0-1.2-1-2.2-2.2-2.2h-137.9c-1.2,0-2.2,1-2.2,2.2v189.4
				C4105.5,4245.9,4111.6,4251.9,4119,4251.9z"/>
		</g>
		<g id="XMLID_00000038383372671883175430000016374708038391797640_">
			<path class="st8" d="M4102.4,4223.7v-172.2c0-4.3,3.5-7.8,7.8-7.8h133c4.3,0,7.8,3.5,7.8,7.8v172.2c0,17.3-14.1,31.4-31.4,31.4
				h-85.9C4116.5,4255,4102.4,4241,4102.4,4223.7z M4110.2,4049.9c-0.9,0-1.6,0.7-1.6,1.6v172.2c0,13.9,11.3,25.1,25.1,25.1h85.9
				c13.9,0,25.1-11.3,25.1-25.1v-172.2c0-0.9-0.7-1.6-1.6-1.6H4110.2z"/>
		</g>
	</g>
	<g>
		<path class="st8" d="M3665.1,3512.4c0-30.7,25-55.6,55.6-55.6s55.6,24.9,55.6,55.6c0,30.7-25,55.6-55.6,55.6
			S3665.1,3543.1,3665.1,3512.4z M3671.4,3512.4c0,27.2,22.1,49.4,49.4,49.4s49.4-22.1,49.4-49.4s-22.1-49.4-49.4-49.4
			S3671.4,3485.2,3671.4,3512.4z"/>
	</g>
	<g>
		<path class="st8" d="M3551.2,3512.4c0-30.7,25-55.6,55.6-55.6s55.6,24.9,55.6,55.6c0,30.7-25,55.6-55.6,55.6
			S3551.2,3543.1,3551.2,3512.4z M3557.5,3512.4c0,27.2,22.1,49.4,49.4,49.4s49.4-22.1,49.4-49.4s-22.1-49.4-49.4-49.4
			S3557.5,3485.2,3557.5,3512.4z"/>
	</g>
	<g>
		<path class="st8" d="M3773.3,3507.3c0.1,0,0.3,0,0.4,0l89-12.3c1.7-0.2,2.9-1.8,2.7-3.5c-0.2-1.7-1.8-2.9-3.5-2.7l-89,12.3
			c-1.7,0.2-2.9,1.8-2.7,3.5C3770.4,3506.1,3771.7,3507.3,3773.3,3507.3z"/>
	</g>
	<g id="XMLID_00000163059307658153314640000001492961912221652157_">
		<g id="XMLID_00000075840667558373017610000001607235681822378659_">
			<path class="st12" d="M2875.2,3971.5c0,0,123.2-29.5,127.7-136.4c0,0-23.4,29.7-56.6,36.9
				C2946.2,3871.9,2871.6,3907.4,2875.2,3971.5z"/>
		</g>
		<g id="XMLID_00000020386433901353680000000009753344178335959698_">
			<path class="st12" d="M2736.3,3932.9c0,0-15.4,71.5,83.8,83.8c0,0,14.9-22.1-26.5-48.2c-6.5-4.1-14-6.4-21.6-7.7
				C2762.1,3959.2,2746.3,3953.4,2736.3,3932.9z"/>
		</g>
		<g id="XMLID_00000042721103802272439700000009130149593222684333_">
			<path class="st12" d="M2815,3800.8c0,0,106.6,106.4,31.3,197.7c0,0-23-11.6-37-50.6c-9.3-25.7-9.4-53.7-2.2-80
				C2811.2,3852.9,2815.3,3830.5,2815,3800.8z"/>
		</g>
		<g id="XMLID_00000003790422286773600720000008000649691617594802_">
			<path class="st12" d="M2926.9,3959.3c0,0,41.3-20.2,72.6,36c0,0-56.1-25.2-58.5,6.8c0,0-13.3,40.3-47.8,46.8
				C2893.2,4049,2873.1,3974.3,2926.9,3959.3z"/>
		</g>
		<g id="XMLID_00000033330691846040012090000011546762853524199596_">
			<path class="st13" d="M2880.6,4130c1.7,0,3-1.3,3.1-3c1.4-26.6-8.8-51.6-18.7-75.8c-7.1-17.3-14.4-35.2-17.3-53.6
				c-1.6-10.2-2-20.8-2.3-31.1l-0.1-3.6c-1.4-41.4-5.2-83.2-11.5-124.2c-0.3-1.7-1.9-2.9-3.6-2.6s-2.9,1.9-2.6,3.6
				c6.2,40.7,10.1,82.3,11.4,123.5l0.1,3.6c0.3,10.5,0.7,21.3,2.4,31.9c3.1,19,10.5,37.3,17.7,54.9c10,24.6,19.5,47.9,18.2,73.1
				c-0.1,1.7,1.2,3.2,3,3.3C2880.5,4130,2880.6,4130,2880.6,4130z"/>
		</g>
		<g id="XMLID_00000150088266157835697320000011101219285828917651_">
			<path class="st13" d="M2857.6,4113.6c1.5,0,2.9-1.1,3.1-2.7c5.1-36.1-3.5-68.3-23.7-88.2c-9.6-9.5-21.7-16.2-33.4-22.6
				c-14.9-8.2-29-16-38.1-29.1c-1-1.4-2.9-1.8-4.4-0.8c-1.4,1-1.8,2.9-0.8,4.4c9.9,14.3,25.3,22.8,40.2,31c11.3,6.2,23,12.7,32,21.6
				c18.8,18.6,26.7,48.8,21.9,82.9c-0.2,1.7,0.9,3.3,2.7,3.5C2857.3,4113.6,2857.5,4113.6,2857.6,4113.6z"/>
		</g>
		<g id="XMLID_00000087386976799995356840000002037087614681304968_">
			<path class="st13" d="M2872.3,4090.1c1.1,0,2.3-0.6,2.8-1.7c8.2-16.4,7.5-35.6,6-50.6c-0.4-3.7-0.8-7.4-1.2-11.1
				c-1.5-12.5-3-25.4-1.6-37.9c2.3-19.4,12.1-37.9,26.9-50.8c9.7-8.4,21.5-14.4,32.9-20.3c4.3-2.2,8.8-4.5,13.1-6.9
				c21-11.7,33.4-24,39.2-38.9c0.6-1.6-0.2-3.4-1.8-4c-1.6-0.6-3.4,0.2-4.1,1.8c-5.2,13.5-16.7,24.8-36.4,35.7
				c-4.2,2.4-8.7,4.6-12.9,6.8c-11.7,6-23.9,12.2-34.1,21.1c-16,13.8-26.5,33.8-29,54.8c-1.6,13.2,0,26.5,1.6,39.4
				c0.4,3.7,0.9,7.3,1.2,10.9c1.4,14.1,2.1,32.2-5.4,47.1c-0.8,1.6-0.1,3.4,1.4,4.2C2871.3,4090,2871.8,4090.1,2872.3,4090.1z"/>
		</g>
		<g id="XMLID_00000096743405611772250260000002097401890498472596_">
			<path class="st13" d="M2860.2,4123.2c1.6,0,2.9-1.2,3.1-2.8c2.1-17,11.5-32.7,19.8-46.6l48.2-80.7c2-3.4,4.2-7,7.2-9.2
				c4.1-3.1,9.6-3.8,14.1-4.1c8.5-0.5,17,0.3,25.3,2.5c1.7,0.4,3.4-0.6,3.8-2.2c0.4-1.7-0.6-3.4-2.2-3.8c-8.9-2.3-18.1-3.3-27.3-2.7
				c-5.3,0.3-12.1,1.2-17.5,5.3c-4,3-6.5,7.3-8.8,11l-48.2,80.7c-8.6,14.4-18.4,30.8-20.6,49.1c-0.2,1.7,1,3.3,2.7,3.5
				C2860,4123.2,2860.1,4123.2,2860.2,4123.2z"/>
		</g>
		<g id="XMLID_00000113346352508918598870000017514786851689034903_">
			<path class="st2" d="M2815.3,4251.9h82.6c9.6,0,17.8-7.1,19.2-16.6l21.9-152.1h-159.9l16.9,151.5
				C2797.1,4244.5,2805.4,4251.9,2815.3,4251.9z"/>
		</g>
		<g id="XMLID_00000142174620038782293210000012213205260116445361_">
			<path class="st8" d="M2792.9,4235l-17.3-154.9h167l-22.4,155.6c-1.6,11-11.2,19.3-22.3,19.3h-82.6
				C2803.8,4255,2794.2,4246.4,2792.9,4235z M2782.6,4086.4l16.6,148c0.9,8.2,7.9,14.4,16.1,14.4h82.6c8,0,14.9-6,16.1-13.9
				l21.4-148.5L2782.6,4086.4L2782.6,4086.4z"/>
		</g>
		<g id="XMLID_00000153696046659322731570000015175220492959926965_">
			<path class="st2" d="M2771.3,4100.9h175.5c1.4,0,2.6-1.2,2.6-2.6v-19.3c0-1.4-1.2-2.6-2.6-2.6h-175.5c-1.4,0-2.6,1.2-2.6,2.6
				v19.3C2768.7,4099.7,2769.8,4100.9,2771.3,4100.9z"/>
		</g>
		<g id="XMLID_00000165222503854959274170000004732351383691277973_">
			<path class="st8" d="M2773.7,4104H2882c1.7,0,3.1-1.4,3.1-3.1s-1.4-3.1-3.1-3.1h-108.3c-1.1,0-1.9-0.9-1.9-2v-14.4
				c0-1.1,0.9-1.9,1.9-1.9h170.6c1.1,0,1.9,0.9,1.9,1.9v14.4c0,1.1-0.9,2-1.9,2h-24.9c-1.7,0-3.1,1.4-3.1,3.1s1.4,3.1,3.1,3.1h24.9
				c4.5,0,8.2-3.7,8.2-8.2v-14.4c0-4.5-3.7-8.2-8.2-8.2h-170.6c-4.5,0-8.2,3.7-8.2,8.2v14.4C2765.5,4100.3,2769.2,4104,2773.7,4104z
				"/>
		</g>
	</g>
	<g>
		<g>
			<path class="st9" d="M3222.7,3285h34.9v96.9h-34.9V3285z M3222.7,3406h34.9v29.2h-34.9V3406z"/>
		</g>
	</g>
	<g>
		<g>
			<path class="st9" d="M3413.5,3593.9l19.5,6.9l-19.1,54l-19.5-6.9L3413.5,3593.9z M3389.6,3661.4l19.5,6.9l-5.8,16.3l-19.5-6.9
				L3389.6,3661.4z"/>
		</g>
	</g>
	<g>
		<g>
			<path class="st9" d="M2995.2,3645.8l15.8-13.8l38.2,43.9l-15.8,13.8L2995.2,3645.8z M3042.9,3700.7l15.8-13.8l11.5,13.2
				l-15.8,13.8L3042.9,3700.7z"/>
		</g>
	</g>
	<g>
		<path class="st8" d="M3591.2,4113c1.7,0,3.1-1.4,3.1-3.1l0.5-84.2c0-1.7-1.4-3.1-3.1-3.2c0,0,0,0,0,0c-1.7,0-3.1,1.4-3.1,3.1
			l-0.5,84.2C3588.1,4111.6,3589.5,4113,3591.2,4113C3591.2,4113,3591.2,4113,3591.2,4113z"/>
	</g>
</g>
<g>
	<g>
		<defs>
			<polygon id="SVGID_00000133501909042817838540000008496452743523866008_" points="2897,3413.6 3064.3,3289 3188.8,3456.8 
				3021.4,3581.3 			"/>
		</defs>
		<clipPath id="SVGID_00000134963316530545910240000007821432386300480911_">
			<use xlink:href="#SVGID_00000133501909042817838540000008496452743523866008_"  style="overflow:visible;"/>
		</clipPath>
		<g style="clip-path:url(#SVGID_00000134963316530545910240000007821432386300480911_);">
			<path class="st9" d="M2994.7,3358.4l76.5,102.8c0.4,0.5,0.3,1.2-0.2,1.7c-4.1,3.2-8.4,6.1-12.1,9.5c-0.4,0.3-0.9,0.4-1.3,0.2
				c-0.9-0.5-1.2-1.3-1.7-2c-11.1-14.9-22.2-29.8-33.2-44.7c-10.6-14.4-21.2-28.7-31.8-43.1c-6.1-8.3-5.2-17.6,2.2-24.5
				C2993.5,3357.8,2994.3,3357.9,2994.7,3358.4z"/>
			<path class="st9" d="M2988.8,3406.5l55.9,75.2c0.6,0.8,0.5,1.9-0.2,2.6c-2.6,2.4-5.2,4.8-7.8,7.1c-0.9,0.8-2.3,0.6-3-0.4
				c-0.2-0.3-0.4-0.7-0.6-1c-16-21.5-31.8-43.2-47.9-64.6c-4.5-6-3.9-13.6,0.5-19.1C2986.5,3405.4,2988.1,3405.5,2988.8,3406.5z"/>
			<path class="st9" d="M3027.4,3376.1c-0.3-0.4-0.2-1,0.3-1.2c6.1-3.3,13.8-2.1,18.1,3.6c17,22.5,33.7,45.1,50.5,67.7l0,0
				c0.3,0.4,0.2,0.9-0.2,1.2c-3.4,2-6.7,3.9-10.2,6c-0.4,0.2-0.9,0.1-1.1-0.2L3027.4,3376.1z"/>
			<path class="st9" d="M2985.5,3448.7l38.9,52.2c0.6,0.8,0.5,1.9-0.1,2.6c-1.8,2-3.7,4-5.6,6.1c-0.9,0.9-2.4,0.9-3.1-0.2
				c0,0,0,0,0,0c-11.3-15.3-22.7-30.6-34-45.9c-3.7-5-3.2-11.2,0.9-15.1C2983.3,3447.6,2984.7,3447.7,2985.5,3448.7z"/>
			<path class="st9" d="M3118.5,3431.9c1,1.4,0.6,3.4-1,4.2c0,0,0,0,0,0c-2,1-4,1.9-6.1,2.8c-1.2,0.6-2.6,0.2-3.4-0.9l-37.9-50.9
				c-1.1-1.5-0.4-3.7,1.4-4.3c4.6-1.6,10.2-0.1,13.3,4c9.9,13.1,19.7,26.4,29.6,39.6C3115.7,3428.1,3117.1,3430,3118.5,3431.9z"/>
		</g>
	</g>
</g>
<path class="st9" d="M3070.5,3472.5c-30.9,23-51,50.8-58.9,63.4c-1,1.6,0.9,3.3,2.4,2.2l136.1-101.3c1.5-1.1,0.3-3.4-1.4-2.9
	C3134.1,3437.9,3101.5,3449.4,3070.5,3472.5z"/>
<path class="st15" d="M4059.2,3266.2c-45.4-0.4-82.4,36.6-82,82c0.4,44.1,36.4,80.1,80.5,80.5c45.4,0.4,82.4-36.6,82-82
	C4139.3,3302.7,4103.3,3266.6,4059.2,3266.2z M4057.1,3273.3c42.1-0.8,76.3,33.4,75.5,75.6c-0.7,39.7-33.1,72.1-72.8,72.8
	c-42.1,0.8-76.3-33.4-75.6-75.6C3985,3306.4,4017.4,3274,4057.1,3273.3z M4058.5,3298c-5.9,0-10.6,4.7-10.6,10.6
	c0,5.9,4.7,10.6,10.6,10.6s10.6-4.7,10.6-10.6C4069.1,3302.8,4064.3,3298,4058.5,3298z M4044.3,3333.3v7.1h3.5h3.5v45.9h-3.5h-3.5
	v7.1h3.5h3.5h14.1h3.5h3.5v-7.1h-3.5h-3.5v-53h-3.5h-14.1H4044.3L4044.3,3333.3z"/>
<g>
	<g>
		<path class="st18" d="M2954.3,690.3c61.2-19.5,74.9-82.7,38.6-167.3c-36.3-84.6-120.2-131.4-142.9-75.7
			C2827.3,502.9,2813.7,735.1,2954.3,690.3z"/>
		<path class="st18" d="M2950.4,263.5c-25.2-26.1-80,46.8-52.7,65.1C2924.8,347,2981,295.2,2950.4,263.5z"/>
		<path class="st18" d="M3875.8,577.5c-53.6-22.2-100.2,46.8-19.5,66.8C3937,664.4,3952.4,609.3,3875.8,577.5z"/>
		<g>
			<path class="st18" d="M4003.4,1065.5l-1109.2-10.7c0,0-149.2-152.1-33.5-257.5c0.9-0.8,1.8-1.7,2.8-2.5
				c19.9-17.4,47.3-33.5,84-47.3c50.6-19.1,83.5-38.2,103.9-57.8c0.8-0.8,1.7-1.6,2.5-2.5c66.2-67.6-14.3-141.9-39.7-244.5
				c-4.7-18.8-6.7-38.2-6.2-57.7c0-1.1,0-2.3,0.1-3.4c5.2-127.6,119-262.5,329-302.9c1.3-0.3,2.7-0.5,4-0.7
				c68.1-12.7,146.1-15.4,233.7-4.8c1.3,0.1,2.6,0.3,3.9,0.5c30.4,3.8,61.9,9.1,94.6,16.3c112.8,24.6,174,78.1,200.9,140.7
				c0.5,1.1,0.9,2.2,1.4,3.4c37.2,91.3,2.9,201.4-50.6,270.2c-0.7,0.9-1.4,1.8-2.1,2.7c-11.9,14.9-24.6,27.7-37.7,37.9
				c-34.3,26.7-54,51.2-61.2,72.9c-0.4,1.1-0.7,2.2-1,3.3c-13.5,48.9,37.7,83.4,129.4,97.1c1.3,0.2,2.6,0.4,3.8,0.6
				C3993.2,737.9,4125.9,918.7,4003.4,1065.5z"/>
			<path class="st2" d="M3856.8,720.1c-64.2,21.1-120,31.7-167.9,31.7c-49.9,0-91.3-11.4-124.9-34.3c-80-54.3-121.4-173-134.2-384.9
				c-6.9-113.4-38-198.7-92.7-254c1.3-0.3,2.7-0.5,4-0.7c54.3,56,85.2,141.5,92.1,254.6c12.7,210.7,53.7,328.6,132.7,382.3
				c64.5,43.8,158.3,44.9,286.6,3.2c1.1-0.3,2.2-0.7,3.3-1l0.5,1.6L3856.8,720.1z"/>
			<path class="st2" d="M3724.1,617.5c-0.4,1.1-0.7,2.2-1,3.3c-12.7-5.4-25.3-13.4-37.1-25.2c-48.2-48-71.6-146.2-71.6-300.4
				c0-91.9-13.3-166.3-39.6-222.2c1.3,0.1,2.6,0.3,3.9,0.5c26,56.2,39,130.3,39,221.7c0,153.2,23.1,250.7,70.6,298
				C3699.7,604.5,3711.8,612.3,3724.1,617.5z"/>
			<path class="st2" d="M3684.7,994.4c-33.5,5-68.1,10.2-102.8,10.2c-110.8,0-222.7-52.8-303.9-332.3
				c-54.3-186.9-164-256.1-246.3-281.2c-8-2.5-15.9-4.5-23.7-6.3c0-1.1,0-2.3,0.1-3.4c8,1.8,16.2,3.9,24.5,6.5
				c83.2,25.4,193.9,95.1,248.6,283.4c47.1,162.2,108.3,261.6,187,303.8c70.4,37.8,147.7,26.2,216,16L3684.7,994.4z"/>
			<path class="st2" d="M3199,1026.3l-3.3-0.8c25.5-103,12.7-188.3-38.3-253.3c-28.2-36-65.8-62.8-106.1-82.6
				c0.8-0.8,1.7-1.6,2.5-2.5c40.3,20,77.9,46.8,106.2,83C3211.7,836,3224.8,922.2,3199,1026.3z"/>
			<path class="st2" d="M2928.6,1003.5l-3.2-1.2c26.7-73.2,24.6-129.3-6.4-166.6c-15-18-35.6-30.2-58.3-38.4
				c0.9-0.8,1.8-1.7,2.8-2.5c22.6,8.3,43.1,20.7,58.1,38.8C2953.4,871.8,2955.8,929,2928.6,1003.5z"/>
			<path class="st2" d="M3825,504c-0.7,0.9-1.4,1.8-2.1,2.7c-28.1-18-45.3-40.6-51.1-67.3c-15.5-70.8,52.2-156.6,102.4-208.9
				c0.5,1.1,0.9,2.2,1.4,3.4c-49.7,51.8-115.7,135.8-100.6,204.8C3780.8,464.6,3797.5,486.4,3825,504z"/>
		</g>
	</g>
	<g>
		
			<linearGradient id="SVGID_00000117670163461666203810000002303515466848208792_" gradientUnits="userSpaceOnUse" x1="2473.7214" y1="1270.7992" x2="4242.7256" y2="1270.7992">
			<stop  offset="0" style="stop-color:#20303A"/>
			<stop  offset="4.370000e-02" style="stop-color:#22343F"/>
			<stop  offset="0.2913" style="stop-color:#2E4754"/>
			<stop  offset="0.5021" style="stop-color:#355463"/>
			<stop  offset="0.6656" style="stop-color:#385C6C"/>
			<stop  offset="0.7619" style="stop-color:#395E6F"/>
		</linearGradient>
		<path style="fill:url(#SVGID_00000117670163461666203810000002303515466848208792_);" d="M4242.7,1255.7
			c0-24.9-396-45.1-884.5-45.1s-884.5,20.2-884.5,45.1c0,24.9,396,45.1,884.5,45.1c17.7,0,35.3,0,52.7-0.1
			c30,17.3,164.2,30.4,325.3,30.4c183.1,0,331.6-16.9,331.6-37.7c0-3.5-4.1-6.8-11.8-10C4173,1275.7,4242.7,1266.1,4242.7,1255.7z"
			/>
		
			<linearGradient id="SVGID_00000152965250600724062930000015105554633467358632_" gradientUnits="userSpaceOnUse" x1="3105.4089" y1="1361.2678" x2="3434.5234" y2="1361.2678">
			<stop  offset="0" style="stop-color:#20303A"/>
			<stop  offset="4.370000e-02" style="stop-color:#22343F"/>
			<stop  offset="0.2913" style="stop-color:#2E4754"/>
			<stop  offset="0.5021" style="stop-color:#355463"/>
			<stop  offset="0.6656" style="stop-color:#385C6C"/>
			<stop  offset="0.7619" style="stop-color:#395E6F"/>
		</linearGradient>
		
			<ellipse style="fill:url(#SVGID_00000152965250600724062930000015105554633467358632_);" cx="3270" cy="1361.3" rx="164.6" ry="30.3"/>
		
			<linearGradient id="SVGID_00000103947585272953818450000002902927943084838030_" gradientUnits="userSpaceOnUse" x1="2927.0276" y1="1346.1337" x2="3058.9053" y2="1346.1337">
			<stop  offset="0" style="stop-color:#20303A"/>
			<stop  offset="4.370000e-02" style="stop-color:#22343F"/>
			<stop  offset="0.2913" style="stop-color:#2E4754"/>
			<stop  offset="0.5021" style="stop-color:#355463"/>
			<stop  offset="0.6656" style="stop-color:#385C6C"/>
			<stop  offset="0.7619" style="stop-color:#395E6F"/>
		</linearGradient>
		<path style="fill:url(#SVGID_00000103947585272953818450000002902927943084838030_);" d="M2993,1331c-36.4,0-65.9,6.8-65.9,15.1
			c0,8.4,29.5,15.1,65.9,15.1c36.4,0,65.9-6.8,65.9-15.1C3058.9,1337.8,3029.4,1331,2993,1331z"/>
	</g>
</g>
<g>
	<g>
		<polygon class="st22" points="3180.4,821.9 2984,821.9 2984,1214.7 3214.6,1214.7 3214.6,821.9 		"/>
		<polygon class="st22" points="3758.7,701.2 3418,701.2 3418,1094 3818,1094 3818,701.2 		"/>
		<g>
			<rect x="3519.2" y="868.7" class="st23" width="524.3" height="380.2"/>
			<rect x="3789.4" y="868.7" class="st24" width="254.1" height="380.2"/>
			<polygon class="st25" points="3789.4,868.7 3859.7,958.1 4108.4,958.1 4043.5,868.7 			"/>
		</g>
		<g>
			<rect x="2884.9" y="913.8" class="st24" width="284.7" height="335.1"/>
			<rect x="2672.3" y="913.8" class="st25" width="255.9" height="335.1"/>
			<polygon class="st26" points="2928.2,913.8 2857,1002.5 2604.3,1002.5 2672.3,913.8 			"/>
			<polygon class="st26" points="2928.2,913.8 2981.3,1002.5 3223.2,1002.5 3169.6,913.8 			"/>
		</g>
		<g>
			<rect x="3535.4" y="1002.5" class="st24" width="367.6" height="246.4"/>
			<rect x="3719.2" y="1002.5" class="st25" width="183.8" height="246.4"/>
			<path class="st24" d="M3846.2,1057h-58.6c-7.5,0-13.5-6.1-13.5-13.5l0,0c0-7.5,6.1-13.5,13.5-13.5h58.6c7.5,0,13.5,6.1,13.5,13.5
				l0,0C3859.7,1051,3853.7,1057,3846.2,1057z"/>
		</g>
		<g>
			<rect x="3106.5" y="780.4" class="st25" width="491.9" height="468.5"/>
			<path class="st24" d="M3452.5,868.7c0,8-3.2,15.2-8.4,20.4c-3.3,3.3-7.4,5.8-11.9,7.2c-2.7,0.8-5.5,1.3-8.4,1.3h-142.3
				c-9.1,0-17.3-4.2-22.6-10.9c-3.9-4.9-6.3-11.2-6.3-18c0-8,3.2-15.2,8.4-20.4c0.1-0.1,0.3-0.3,0.4-0.4c5.2-5,12.2-8,20-8h142.3
				C3439.6,839.9,3452.5,852.8,3452.5,868.7z"/>
			<path class="st24" d="M3555.3,1186.3h-83.8c-6.5,0-11.8-5.3-11.8-11.8l0,0c0-6.5,5.3-11.8,11.8-11.8h83.8
				c6.5,0,11.8,5.3,11.8,11.8l0,0C3567,1181,3561.8,1186.3,3555.3,1186.3z"/>
			<path class="st24" d="M3561.1,1206.4h-95.6c-3.3,0-5.9-2.6-5.9-5.9l0,0c0-3.3,2.6-5.9,5.9-5.9h95.6c3.3,0,5.9,2.6,5.9,5.9l0,0
				C3567,1203.8,3564.4,1206.4,3561.1,1206.4z"/>
		</g>
	</g>
	<g>
		<path class="st27" d="M2648.2,1274.9c0,0-15.3-28.4-6-32.4c9.3-4,19.2,16.2,19.2,16.2s-6-55.9,3.3-61.9c9.3-6,24.5,78.1,24.5,78.1
			H2648.2z"/>
		<path class="st27" d="M3972,1274.9c0,0-15.3-28.4-6-32.4c9.3-4,19.2,16.2,19.2,16.2s-6-55.9,3.3-61.9c9.3-6,24.5,78.1,24.5,78.1
			H3972z"/>
		<path class="st27" d="M3129.8,1274.9c0,0-17.4-44.2-6.8-50.4c10.6-6.3,21.9,25.2,21.9,25.2s-6.8-87,3.8-96.2
			c10.6-9.3,27.9,121.4,27.9,121.4H3129.8z"/>
		<path class="st27" d="M3703.9,1300.9c0,0,13.9-40.7,27.8-42.7c13.9-2,7.9,35.7,7.9,35.7s25.3-70.6,34.5-74
			c9.2-3.4,15.3,77,15.3,77s10.8-22.3,15.7-22.1c5,0.2,5.9,26,5.9,26H3703.9z"/>
	</g>
</g>
<g>
	<g class="st28">
		<rect x="3129.8" y="975.8" class="st29" width="456.8" height="39.7"/>
		<path class="st30" d="M3164.4,995.3c0,3.4-0.8,6.7-2.5,9.8c-1.7,3.1-3.9,5.5-6.8,7.1c-3.1,1.7-7.4,2.5-13,2.5h-9v-39h8.8
			c7.2,0,12.6,1.5,16,4.5c2,1.8,3.6,4,4.7,6.7C3163.8,989.7,3164.4,992.5,3164.4,995.3z M3157.2,995.3c0-1.8-0.4-3.5-1.1-5.3
			c-0.7-1.7-1.7-3.2-3.1-4.3c-1.1-1-2.5-1.8-4-2.3c-1.6-0.5-2.9-0.8-4-0.9c-1.1-0.1-2.7-0.1-4.6-0.1v25.5h1.5c4.1,0,7.2-0.6,9.5-1.9
			c1.8-1,3.3-2.5,4.3-4.5C3156.7,999.6,3157.2,997.5,3157.2,995.3z"/>
		<path class="st30" d="M3197.2,1014.7h-20.9v-39h20.9v6.7h-13.7v9.5h13.2v6.7h-13.2v9.2h13.7V1014.7z"/>
		<path class="st30" d="M3247.1,986.9h-8.2c-2.9-3.4-6.4-5.2-10.4-5.2c-3.5,0-6.5,1.4-9,4.1c-2.5,2.7-3.7,5.9-3.7,9.4
			c0,3.6,1.3,6.7,3.8,9.5c2.5,2.7,5.6,4.1,9.1,4.1c3.5,0,6.8-1.6,9.8-4.9h8.4c-1.5,3.5-3.9,6.3-7.2,8.4c-3.4,2.1-6.9,3.2-10.8,3.2
			c-5.6,0-10.4-2-14.3-6s-6-8.8-6-14.4c0-5.5,2-10.2,5.9-14.2s8.7-5.9,14.2-5.9c4,0,7.7,1.1,11,3.2
			C3243,980.3,3245.5,983.2,3247.1,986.9z"/>
		<path class="st30" d="M3296.7,995.3c0,5.6-2,10.3-6,14.3c-4,3.9-8.8,5.9-14.4,5.9c-5.6,0-10.4-2-14.4-5.9c-4-3.9-6-8.7-6-14.3
			c0-5.7,2-10.5,5.9-14.4s8.8-5.9,14.4-5.9c5.7,0,10.5,2,14.4,5.9S3296.7,989.7,3296.7,995.3z M3289.5,995.3c0-3.7-1.3-6.9-3.8-9.6
			c-2.5-2.7-5.7-4-9.3-4c-3.7,0-6.8,1.3-9.3,4s-3.8,5.9-3.8,9.6c0,3.7,1.3,6.8,3.8,9.5c2.6,2.7,5.7,4,9.3,4c3.6,0,6.8-1.3,9.3-4
			C3288.2,1002.1,3289.5,998.9,3289.5,995.3z"/>
		<path class="st30" d="M3348.9,1014.7h-7.2v-29.2h-0.2l-9.9,29.2h-6.1l-10-29.2h-0.1v29.2h-7.2v-39h10l10.4,29.5h0.1l10.3-29.5h10
			V1014.7L3348.9,1014.7z"/>
		<path class="st30" d="M3397.1,1014.7h-8l-4.2-10.1h-14l-4.2,10.1h-8l16.2-39h5.6L3397.1,1014.7z M3382.4,997.9l-4.4-12h-0.1
			l-4.4,12H3382.4z"/>
		<path class="st30" d="M3428,1014.7h-20.9v-39h20.9v6.7h-13.7v9.5h13.2v6.7h-13.2v9.2h13.7V1014.7z"/>
		<path class="st30" d="M3463.6,1003.1c0,3.7-1.2,6.6-3.6,8.9c-2.4,2.3-5.4,3.5-9.1,3.5c-3.5,0-6.4-1.1-8.8-3.4
			c-2.4-2.3-3.7-5.1-3.8-8.6h7.6c0.1,1.5,0.7,2.8,1.6,3.8c0.9,1,2.1,1.4,3.6,1.4c1.4,0,2.7-0.5,3.8-1.4c1.1-0.9,1.6-2.1,1.6-3.5
			c0-0.6-0.1-1.1-0.2-1.7s-0.4-1-0.7-1.4c-0.3-0.4-0.6-0.7-0.9-1c-0.3-0.3-0.7-0.5-1.3-0.8c-0.6-0.3-1-0.5-1.3-0.6
			c-0.3-0.1-0.8-0.3-1.6-0.6c-0.7-0.3-1.2-0.4-1.4-0.6c-1.8-0.7-3-1.2-3.5-1.5c-3.8-2-5.7-5.2-5.7-9.7c0-3.2,1.1-5.8,3.3-8
			c2.2-2.1,4.9-3.2,8.1-3.2c3.2,0,5.8,1.1,8,3.2c2.2,2.1,3.4,4.8,3.5,7.9h-7.4c-0.2-2.9-1.7-4.4-4.4-4.4c-1.2,0-2.1,0.4-2.9,1.1
			c-0.8,0.7-1.1,1.7-1.1,2.8c0,0.5,0.1,0.9,0.2,1.3s0.3,0.7,0.4,1c0.1,0.3,0.4,0.6,0.7,0.8c0.3,0.3,0.6,0.5,0.8,0.6s0.5,0.3,1.1,0.5
			c0.5,0.2,0.8,0.3,1,0.4s0.6,0.2,1.2,0.4c0.6,0.2,1,0.3,1.1,0.3c3.3,1.1,5.8,2.6,7.6,4.4C3462.7,997.4,3463.6,999.9,3463.6,1003.1z
			"/>
		<path class="st30" d="M3493.4,982.5h-7.3v32.2h-7.2v-32.2h-7.2v-6.7h21.7V982.5z"/>
		<path class="st30" d="M3529.6,1014.7h-8.7l-10.3-14.9h-0.1v14.9h-7.2v-39h12c4.1,0,7.3,0.9,9.5,2.6c3.1,2.5,4.6,5.6,4.6,9.4
			c0,1.7-0.3,3.4-1,5.1c-0.7,1.7-1.6,3.1-2.7,4.2c-1.6,1.5-3.7,2.5-6.5,3.2L3529.6,1014.7z M3522,988.4c0-1.9-0.7-3.4-2-4.4
			c-1.3-1-3-1.5-4.9-1.5h-4.6v11.9h4.6c2,0,3.7-0.5,5-1.5C3521.4,991.8,3522,990.4,3522,988.4z"/>
		<path class="st30" d="M3580.8,995.3c0,5.6-2,10.3-6,14.3c-4,3.9-8.8,5.9-14.4,5.9s-10.4-2-14.4-5.9c-4-3.9-6-8.7-6-14.3
			c0-5.7,2-10.5,5.9-14.4s8.8-5.9,14.4-5.9s10.5,2,14.4,5.9S3580.8,989.7,3580.8,995.3z M3573.6,995.3c0-3.7-1.3-6.9-3.8-9.6
			c-2.5-2.7-5.7-4-9.3-4c-3.7,0-6.8,1.3-9.3,4c-2.5,2.7-3.8,5.9-3.8,9.6c0,3.7,1.3,6.8,3.8,9.5c2.6,2.7,5.7,4,9.3,4
			c3.6,0,6.8-1.3,9.3-4C3572.3,1002.1,3573.6,998.9,3573.6,995.3z"/>
	</g>
	<g class="st28">
		<rect x="3151.3" y="1030.1" class="st29" width="413.9" height="31.5"/>
		<path class="st30" d="M3182.7,1037h-1.5c-0.4-0.6-0.9-1.1-1.5-1.7c-0.6-0.6-1.4-1.3-2.4-2c-1-0.8-2.2-1.4-3.7-1.9
			c-1.5-0.5-3-0.7-4.6-0.7c-4.1,0-7.6,1.4-10.5,4.2c-2.9,2.8-4.3,6.4-4.3,10.7c0,4.2,1.4,7.8,4.3,10.6c2.9,2.8,6.4,4.3,10.5,4.3
			c1.7,0,3.3-0.3,4.8-0.8c1.5-0.5,2.7-1.1,3.7-1.9c1-0.8,1.8-1.4,2.3-1.9c0.5-0.5,1-1,1.3-1.5h1.4c-1.2,2-3,3.7-5.4,5.1
			c-2.4,1.4-5.1,2.2-8.1,2.2c-4.5,0-8.3-1.5-11.4-4.6c-3.1-3-4.7-6.9-4.7-11.5s1.6-8.4,4.7-11.5c3.1-3.1,6.9-4.6,11.4-4.5
			c3,0,5.7,0.7,8.1,2.2C3179.5,1033.2,3181.3,1034.9,3182.7,1037z"/>
		<path class="st30" d="M3211.9,1039.8c0,1-0.2,2.1-0.5,3.1s-0.9,2-1.6,3c-0.7,1-1.6,1.8-2.9,2.4c-1.2,0.6-2.6,1-4.2,1l-1.2,0
			l8.3,11.7h-1.6l-9.1-12.8h1.9c1.6,0,2.9-0.1,3.9-0.4c1-0.3,2-0.8,2.9-1.6c1.8-1.8,2.6-4.1,2.6-6.6c0-1.4-0.3-2.8-1-4.1
			c-0.7-1.3-1.6-2.4-2.7-3.1c-0.9-0.6-1.8-0.9-2.9-1c-1.1-0.1-2.7-0.2-4.9-0.2h-5.8v29.9h-1.3v-31h7.1c3.9,0,6.7,0.4,8.3,1.3
			c1.3,0.7,2.3,1.8,3.2,3.3c0.9,1.5,1.3,3.2,1.3,5V1039.8L3211.9,1039.8z"/>
		<path class="st30" d="M3237.8,1061.1h-17v-31h17v1.1H3222v13.7h15.8v1.1H3222v13.9h15.8V1061.1z"/>
		<path class="st30" d="M3274,1061.1h-1.3l-4.7-10.8h-16.2l-4.7,10.8h-1.3l13.3-31h1.6L3274,1061.1z M3267.5,1049.1l-7.6-17.9
			l-7.5,17.9H3267.5z"/>
		<path class="st30" d="M3294.3,1031.2h-8.4v29.9h-1.3v-29.9h-8.4v-1.1h18.1V1031.2L3294.3,1031.2z"/>
		<path class="st30" d="M3302.4,1033.9h-1.2v-3.8h1.2V1033.9z M3302.4,1061.1h-1.2v-22.2h1.2V1061.1z"/>
		<path class="st30" d="M3338.4,1030.1l-13.2,31h-0.9l-13.2-31h1.4l12.2,28.9l12.3-28.9H3338.4L3338.4,1030.1z"/>
		<path class="st30" d="M3364,1061.1h-17v-31h17v1.1h-15.8v13.7h15.8v1.1h-15.8v13.9h15.8V1061.1L3364,1061.1z"/>
		<path class="st30" d="M3411.8,1034.2c2.8,2.7,4.1,6.5,4.1,11.4s-1.4,8.7-4.1,11.4c-2.8,2.7-6.6,4.1-11.5,4.1h-8.8v-31h8.8
			C3405.3,1030.1,3409.1,1031.4,3411.8,1034.2z M3414.7,1045.6c0-4.5-1.3-8.1-3.8-10.6c-2.5-2.6-6.1-3.8-10.6-3.8h-7.5v28.7h7.5
			c4.5,0,8-1.3,10.6-3.8C3413.5,1053.6,3414.7,1050.1,3414.7,1045.6z"/>
		<path class="st30" d="M3443.1,1061.1h-17v-31h17v1.1h-15.8v13.7h15.8v1.1h-15.8v13.9h15.8V1061.1z"/>
		<path class="st30" d="M3470.7,1052.9c0,2.5-0.9,4.6-2.7,6.2c-1.8,1.6-3.9,2.5-6.3,2.5c-1,0-2-0.2-2.9-0.5c-1-0.3-1.9-0.8-2.8-1.5
			c-0.9-0.6-1.6-1.5-2.2-2.6c-0.6-1.1-0.9-2.4-1-3.8h1.3c0.2,1.4,0.6,2.6,1.2,3.6s1.3,1.8,2.1,2.3c0.8,0.5,1.6,0.8,2.3,1
			c0.7,0.2,1.4,0.3,2.1,0.3c2,0,3.8-0.7,5.4-2.1c1.6-1.4,2.4-3.2,2.4-5.3c0-1.1-0.2-2.1-0.6-2.9c-0.4-0.8-0.8-1.5-1.3-2
			c-0.5-0.5-1.1-0.9-2-1.4s-1.5-0.7-2-0.8s-1.1-0.3-2-0.5c-0.9-0.2-1.5-0.4-1.9-0.5c-0.4-0.1-1.1-0.4-2-0.8
			c-0.9-0.4-1.6-0.9-2.1-1.4c-0.5-0.5-1-1.2-1.4-2.1s-0.6-1.9-0.7-3v-0.1c0-2.4,0.8-4.4,2.4-5.8c1.6-1.4,3.6-2.2,6-2.2
			c2,0,3.7,0.6,5.3,1.8c1.5,1.2,2.4,3,2.7,5.4h-1.3c-0.8-4.1-3-6.1-6.8-6.1c-2,0-3.7,0.6-5,1.9c-1.4,1.3-2,2.9-2,4.9
			c0,1,0.2,1.8,0.5,2.5c0.3,0.7,0.7,1.3,1.1,1.8c0.4,0.4,1.1,0.9,1.9,1.3c0.9,0.4,1.6,0.7,2.2,0.9c0.6,0.2,1.5,0.4,2.6,0.7
			c2.3,0.6,4,1.3,5.1,2.3C3469.8,1048.4,3470.7,1050.4,3470.7,1052.9z"/>
		<path class="st30" d="M3482,1033.9h-1.2v-3.8h1.2V1033.9z M3482,1061.1h-1.2v-22.2h1.2V1061.1z"/>
		<path class="st30" d="M3518.1,1061.1h-1.6l-21.5-29.7h-0.1v29.7h-1.3v-31h1.9l21.2,29.3h0.1v-29.3h1.3L3518.1,1061.1
			L3518.1,1061.1z"/>
		<path class="st30" d="M3560.7,1047.9c-0.4,3.8-2.2,7-5.4,9.7c-3.1,2.7-6.8,4-11.1,4c-4.5,0-8.3-1.5-11.4-4.6
			c-3.1-3-4.7-6.9-4.7-11.5s1.6-8.4,4.7-11.5c3.1-3,6.9-4.6,11.4-4.6c2.9,0,5.6,0.7,8.1,2c2.6,1.3,4.5,3.1,5.9,5.4h-1.5
			c-3.2-4.2-7.4-6.3-12.6-6.3c-4.1,0-7.6,1.4-10.5,4.3c-2.9,2.8-4.3,6.4-4.3,10.6c0,4.2,1.4,7.8,4.3,10.6c2.9,2.8,6.4,4.3,10.5,4.3
			c3.8,0,7.1-1.1,9.9-3.4c2.8-2.3,4.5-4.9,5.1-8h-18.5v-1.1L3560.7,1047.9L3560.7,1047.9z"/>
	</g>
</g>
</svg>
